<svg width="24" height="30" viewBox="0 0 24 30" fill="none" xmlns="http://www.w3.org/2000/svg">
<path fill-rule="evenodd" clip-rule="evenodd" d="M18.6216 12.4493C18.6216 16.2354 15.5521 19.3055 11.7654 19.3055C7.97926 19.3055 4.90918 16.236 4.90918 12.4493C4.90918 8.66254 7.97869 5.59473 11.7654 5.59473C15.5521 5.59473 18.6216 8.66311 18.6216 12.4493ZM16.8284 12.4493C16.8284 9.65472 14.5622 7.38688 11.766 7.38688C8.96974 7.38688 6.7036 9.65472 6.7036 12.4493C6.7036 15.2455 8.96974 17.5116 11.766 17.5116C14.5622 17.5116 16.8284 15.2455 16.8284 12.4493Z" fill="white"/>
<path d="M11.7656 8.32324C12.54 8.32324 13.2652 8.53699 13.8854 8.90834V13.1095H15.838C15.7864 13.4361 15.6946 13.7507 15.571 14.0467H7.95958C7.83428 13.7507 7.7447 13.4355 7.69141 13.1095H9.64571V8.90834C10.2643 8.53699 10.9894 8.32324 11.7656 8.32324Z" fill="white" fill-opacity="0.7"/>
<path d="M20.7417 13.1096H22.6767C22.9352 13.1096 23.1444 13.3205 23.1444 13.5796C23.1444 13.8381 22.9352 14.0473 22.6767 14.0473H19.3934C19.5012 13.5314 19.5573 12.9979 19.5573 12.4496C19.5573 9.92951 18.3599 7.68718 16.502 6.26355V4.76394C16.502 4.45665 16.7531 4.20605 17.0598 4.20605H20.1855C20.4928 4.20605 20.7417 4.45722 20.7417 4.76394V13.1096Z" fill="white" fill-opacity="0.3"/>
<path d="M2.7886 13.1096H0.853571C0.595038 13.1096 0.38583 13.3205 0.38583 13.5796C0.38583 13.8381 0.595038 14.0473 0.853571 14.0473H4.13683C4.02911 13.5314 3.97298 12.9979 3.97298 12.4496C3.97298 9.92951 5.1704 7.68718 7.02832 6.26355V4.76394C7.02832 4.45665 6.77716 4.20605 6.47043 4.20605H3.34479C3.0375 4.20605 2.7886 4.45722 2.7886 4.76394V13.1096Z" fill="white" fill-opacity="0.3"/>
<path d="M9.35547 20.7259V19.8613C10.1141 20.1068 10.9242 20.2418 11.7662 20.2423C12.5847 20.2424 13.3982 20.1138 14.1769 19.8613V20.7259C14.1769 21.0247 13.9308 21.2691 13.632 21.2691H13.1513V28.4995C13.1513 29.2609 12.5282 29.8863 11.7662 29.8863C11.0031 29.8863 10.3794 29.2615 10.3794 28.4995V21.2691H9.89861C9.59983 21.2691 9.35547 21.0247 9.35547 20.7259Z" fill="white" fill-opacity="0.7"/>
<path d="M9.64551 4.95046C10.3191 4.75939 11.0312 4.6579 11.7654 4.6579C12.5001 4.6579 13.2122 4.75882 13.8852 4.94989V1.41433C13.8852 1.10704 13.6341 0.856445 13.3273 0.856445H10.2017C9.8944 0.856445 9.64551 1.10761 9.64551 1.41433V4.95046Z" fill="white" fill-opacity="0.3"/>
</svg>
