<svg width="55" height="53" viewBox="0 0 55 53" fill="none" xmlns="http://www.w3.org/2000/svg">
<rect x="0.533203" width="53.58" height="52.75" rx="9.48511" fill="#F98222" fill-opacity="0.2"/>
<path fill-rule="evenodd" clip-rule="evenodd" d="M34.1802 23.4493C34.1802 27.2354 31.1107 30.3055 27.324 30.3055C23.5379 30.3055 20.4678 27.236 20.4678 23.4493C20.4678 19.6625 23.5373 16.5947 27.324 16.5947C31.1107 16.5947 34.1802 19.6631 34.1802 23.4493ZM32.3869 23.4493C32.3869 20.6547 30.1208 18.3869 27.3246 18.3869C24.5283 18.3869 22.2622 20.6547 22.2622 23.4493C22.2622 26.2455 24.5283 28.5116 27.3246 28.5116C30.1208 28.5116 32.3869 26.2455 32.3869 23.4493Z" fill="#F98222"/>
<path d="M27.3237 19.3232C28.0981 19.3232 28.8233 19.537 29.4435 19.9083V24.1095H31.3961C31.3446 24.4361 31.2527 24.7507 31.1291 25.0467H23.5177C23.3924 24.7507 23.3028 24.4355 23.2495 24.1095H25.2038V19.9083C25.8224 19.537 26.5475 19.3232 27.3237 19.3232Z" fill="#F98222" fill-opacity="0.7"/>
<path d="M36.2998 24.1096H38.2348C38.4933 24.1096 38.7025 24.3205 38.7025 24.5796C38.7025 24.8381 38.4933 25.0473 38.2348 25.0473H34.9515C35.0593 24.5314 35.1154 23.9979 35.1154 23.4496C35.1154 20.9295 33.918 18.6872 32.0601 17.2635V15.7639C32.0601 15.4567 32.3112 15.2061 32.6179 15.2061H35.7436C36.0509 15.2061 36.2998 15.4572 36.2998 15.7639V24.1096Z" fill="#F98222" fill-opacity="0.3"/>
<path d="M18.3467 24.1096H16.4117C16.1531 24.1096 15.9439 24.3205 15.9439 24.5796C15.9439 24.8381 16.1531 25.0473 16.4117 25.0473H19.6949C19.5872 24.5314 19.5311 23.9979 19.5311 23.4496C19.5311 20.9295 20.7285 18.6872 22.5864 17.2635V15.7639C22.5864 15.4567 22.3353 15.2061 22.0285 15.2061H18.9029C18.5956 15.2061 18.3467 15.4572 18.3467 15.7639V24.1096Z" fill="#F98222" fill-opacity="0.3"/>
<path d="M24.9131 31.7259V30.8613C25.6717 31.1068 26.4819 31.2418 27.3238 31.2423C28.1424 31.2424 28.9558 31.1138 29.7345 30.8613V31.7259C29.7345 32.0247 29.4884 32.2691 29.1897 32.2691H28.7089V39.4995C28.7089 40.2609 28.0858 40.8863 27.3238 40.8863C26.5607 40.8863 25.937 40.2615 25.937 39.4995V32.2691H25.4562C25.1574 32.2691 24.9131 32.0247 24.9131 31.7259Z" fill="#F98222" fill-opacity="0.7"/>
<path d="M25.2041 15.9505C25.8776 15.7594 26.5897 15.6579 27.324 15.6579C28.0587 15.6579 28.7708 15.7588 29.4438 15.9499V12.4143C29.4438 12.107 29.1927 11.8564 28.8859 11.8564H25.7603C25.453 11.8564 25.2041 12.1076 25.2041 12.4143V15.9505Z" fill="#F98222" fill-opacity="0.3"/>
</svg>
