<svg width="24" height="30" viewBox="0 0 24 30" fill="none" xmlns="http://www.w3.org/2000/svg">
<path fill-rule="evenodd" clip-rule="evenodd" d="M18.6231 11.9956C18.6231 15.7818 15.5536 18.8519 11.7669 18.8519C7.98073 18.8519 4.91064 15.7824 4.91064 11.9956C4.91064 8.20893 7.98016 5.14111 11.7669 5.14111C15.5536 5.14111 18.6231 8.2095 18.6231 11.9956ZM16.8298 11.9956C16.8298 9.20111 14.5637 6.93327 11.7674 6.93327C8.9712 6.93327 6.70507 9.20111 6.70507 11.9956C6.70507 14.7919 8.9712 17.058 11.7674 17.058C14.5637 17.058 16.8298 14.7919 16.8298 11.9956Z" fill="#F98222"/>
<path d="M11.7666 7.86963C12.541 7.86963 13.2662 8.08337 13.8864 8.45473V12.6559H15.839C15.7874 12.9825 15.6956 13.2971 15.572 13.5931H7.96055C7.83526 13.2971 7.74568 12.9819 7.69238 12.6559H9.64669V8.45473C10.2652 8.08337 10.9904 7.86963 11.7666 7.86963Z" fill="#F98222" fill-opacity="0.7"/>
<path d="M20.7426 12.656H22.6777C22.9362 12.656 23.1454 12.8669 23.1454 13.126C23.1454 13.3845 22.9362 13.5937 22.6777 13.5937H19.3944C19.5021 13.0778 19.5583 12.5443 19.5583 11.996C19.5583 9.47589 18.3609 7.23357 16.5029 5.80993V4.31033C16.5029 4.00304 16.7541 3.75244 17.0608 3.75244H20.1865C20.4938 3.75244 20.7426 4.0036 20.7426 4.31033V12.656Z" fill="#F98222" fill-opacity="0.3"/>
<path d="M2.78958 12.656H0.854548C0.596014 12.656 0.386806 12.8669 0.386806 13.126C0.386806 13.3845 0.596014 13.5937 0.854548 13.5937H4.13781C4.03008 13.0778 3.97395 12.5443 3.97395 11.996C3.97395 9.47589 5.17137 7.23357 7.0293 5.80993V4.31033C7.0293 4.00304 6.77813 3.75244 6.47141 3.75244H3.34577C3.03847 3.75244 2.78958 4.0036 2.78958 4.31033V12.656Z" fill="#F98222" fill-opacity="0.3"/>
<path d="M9.35596 20.2723V19.4077C10.1145 19.6532 10.9247 19.7881 11.7667 19.7887C12.5852 19.7888 13.3987 19.6602 14.1774 19.4077V20.2723C14.1774 20.5711 13.9313 20.8155 13.6325 20.8155H13.1517V28.0459C13.1517 28.8073 12.5287 29.4327 11.7667 29.4327C11.0035 29.4327 10.3799 28.8079 10.3799 28.0459V20.8155H9.8991C9.60032 20.8155 9.35596 20.5711 9.35596 20.2723Z" fill="#F98222" fill-opacity="0.7"/>
<path d="M9.64697 4.49684C10.3205 4.30578 11.0326 4.20429 11.7668 4.20429C12.5016 4.20429 13.2137 4.30521 13.8867 4.49627V0.96072C13.8867 0.653428 13.6355 0.402832 13.3288 0.402832H10.2032C9.89587 0.402832 9.64697 0.653995 9.64697 0.96072V4.49684Z" fill="#F98222" fill-opacity="0.3"/>
</svg>
