<svg width="32" height="30" viewBox="0 0 32 30" fill="none" xmlns="http://www.w3.org/2000/svg">
<path d="M18.309 8.28906C18.2102 8.28906 18.1155 8.3283 18.0456 8.39815C17.9758 8.468 17.9366 8.56273 17.9366 8.66151V16.7342C19.0456 15.9307 20.3656 15.4015 21.7964 15.2469V8.66151C21.7964 8.56273 21.7572 8.468 21.6873 8.39815C21.6175 8.3283 21.5227 8.28906 21.424 8.28906H18.309ZM16.5378 18.0209V13.0896C16.5378 12.9909 16.4985 12.8961 16.4287 12.8263C16.3588 12.7564 16.2641 12.7172 16.1653 12.7172H13.0505C12.9517 12.7172 12.8569 12.7564 12.7871 12.8263C12.7172 12.8961 12.678 12.9909 12.678 13.0896V22.5429H11.2792V10.7874C11.2792 10.6886 11.24 10.5939 11.1701 10.524C11.1003 10.4542 11.0056 10.4149 10.9068 10.4149H7.79183C7.69306 10.4149 7.59832 10.4542 7.52848 10.524C7.45863 10.5939 7.41939 10.6886 7.41939 10.7874V22.5429H6.02061V15.4703C6.02061 15.3715 5.98137 15.2768 5.91152 15.2069C5.84167 15.1371 5.74694 15.0979 5.64816 15.0979H2.53508C2.4363 15.0979 2.34157 15.1371 2.27172 15.2069C2.20187 15.2768 2.16263 15.3715 2.16263 15.4703V22.5429H1.18434C0.772978 22.5429 0.439453 22.8764 0.439453 23.2878C0.439453 23.6992 0.772978 24.0327 1.18434 24.0327H14.6175C14.5946 23.7851 14.583 23.5365 14.5828 23.2878C14.5828 21.2779 15.3199 19.4371 16.5377 18.0209H16.5378Z" fill="white"/>
<path d="M23.0433 22.9151H28.8952C28.994 22.9151 29.0888 22.9544 29.1586 23.0242C29.2285 23.0941 29.2677 23.1888 29.2677 23.2876C29.2677 26.9261 26.3094 29.8862 22.6709 29.8862C19.0324 29.8862 16.0723 26.9261 16.0723 23.2876C16.0723 19.6491 19.0324 16.689 22.6709 16.689C22.7697 16.689 22.8644 16.7282 22.9342 16.7981C23.0041 16.8679 23.0433 16.9626 23.0433 17.0614V22.9151Z" fill="white" fill-opacity="0.3"/>
<path d="M24.3884 14.8381C24.4582 14.7682 24.553 14.729 24.6517 14.729C28.2892 14.729 31.2486 17.6891 31.2486 21.3276C31.2486 21.4264 31.2093 21.5211 31.1395 21.591C31.0696 21.6608 30.9749 21.7001 30.8761 21.7001H24.6517C24.553 21.7001 24.4582 21.6608 24.3884 21.591C24.3185 21.5211 24.2793 21.4264 24.2793 21.3276V15.1014C24.2793 15.0027 24.3185 14.9079 24.3884 14.8381Z" fill="white" fill-opacity="0.7"/>
<path d="M2.03527 10.4827C1.73017 10.7586 1.70652 11.2297 1.9825 11.5348C2.0523 11.6121 2.13756 11.6739 2.23277 11.7161C2.32797 11.7583 2.43099 11.7801 2.53515 11.78C2.71978 11.7802 2.89786 11.7115 3.0346 11.5875L9.73899 5.52337L13.8548 9.22598C14.1493 9.49097 14.5996 9.47899 14.8797 9.19891L20.6789 3.39969V3.59715C20.6789 4.00851 21.0125 4.34204 21.4238 4.34204C21.8352 4.34204 22.1687 4.00851 22.1687 3.59715V1.60134C22.1687 1.18997 21.8352 0.856445 21.4238 0.856445H19.4262C19.0149 0.856445 18.6813 1.18997 18.6813 1.60134C18.6813 2.0127 19.0149 2.34623 19.4262 2.34623H19.6255L14.3258 7.64581L10.2358 3.96643C10.0988 3.84317 9.92095 3.77508 9.73665 3.77534C9.55234 3.77559 9.37467 3.84416 9.23799 3.96779L2.03527 10.4827Z" fill="white" fill-opacity="0.3"/>
</svg>
