<svg width="55" height="53" viewBox="0 0 55 53" fill="none" xmlns="http://www.w3.org/2000/svg">
<rect x="0.61084" width="53.58" height="52.75" rx="9.48511" fill="#F98222" fill-opacity="0.2"/>
<path d="M29.8661 19.2891C29.7674 19.2891 29.6726 19.3283 29.6028 19.3981C29.5329 19.468 29.4937 19.5627 29.4937 19.6615V27.7342C30.6028 26.9307 31.9227 26.4015 33.3535 26.2469V19.6615C33.3535 19.5627 33.3143 19.468 33.2444 19.3981C33.1746 19.3283 33.0799 19.2891 32.9811 19.2891H29.8661ZM28.0949 29.0209V24.0896C28.0949 23.9909 28.0557 23.8961 27.9858 23.8263C27.916 23.7564 27.8212 23.7172 27.7225 23.7172H24.6076C24.5088 23.7172 24.4141 23.7564 24.3442 23.8263C24.2744 23.8961 24.2351 23.9909 24.2351 24.0896V33.5429H22.8364V21.7874C22.8364 21.6886 22.7971 21.5939 22.7273 21.524C22.6574 21.4542 22.5627 21.4149 22.4639 21.4149H19.349C19.2502 21.4149 19.1555 21.4542 19.0856 21.524C19.0158 21.5939 18.9765 21.6886 18.9765 21.7874V33.5429H17.5777V26.4703C17.5777 26.3715 17.5385 26.2768 17.4687 26.2069C17.3988 26.1371 17.3041 26.0979 17.2053 26.0979H14.0922C13.9934 26.0979 13.8987 26.1371 13.8288 26.2069C13.759 26.2768 13.7198 26.3715 13.7198 26.4703V33.5429H12.7415C12.3301 33.5429 11.9966 33.8764 11.9966 34.2878C11.9966 34.6992 12.3301 35.0327 12.7415 35.0327H26.1746C26.1517 34.7851 26.1401 34.5365 26.1399 34.2878C26.1399 32.2779 26.8771 30.4371 28.0948 29.0209H28.0949Z" fill="#F98222"/>
<path d="M34.6009 33.9151H40.4529C40.5516 33.9151 40.6464 33.9544 40.7162 34.0242C40.7861 34.0941 40.8253 34.1888 40.8253 34.2876C40.8253 37.9261 37.867 40.8862 34.2285 40.8862C30.59 40.8862 27.6299 37.9261 27.6299 34.2876C27.6299 30.6491 30.59 27.689 34.2285 27.689C34.3273 27.689 34.422 27.7282 34.4919 27.7981C34.5617 27.8679 34.6009 27.9626 34.6009 28.0614V33.9151Z" fill="#F98222" fill-opacity="0.3"/>
<path d="M35.945 25.8381C36.0149 25.7682 36.1096 25.729 36.2084 25.729C39.8459 25.729 42.8052 28.6891 42.8052 32.3276C42.8052 32.4264 42.766 32.5211 42.6961 32.591C42.6263 32.6608 42.5315 32.7001 42.4328 32.7001H36.2084C36.1096 32.7001 36.0149 32.6608 35.945 32.591C35.8752 32.5211 35.8359 32.4264 35.8359 32.3276V26.1014C35.8359 26.0027 35.8752 25.9079 35.945 25.8381Z" fill="#F98222" fill-opacity="0.7"/>
<path d="M13.5924 21.4827C13.2873 21.7586 13.2636 22.2297 13.5396 22.5348C13.6094 22.6121 13.6947 22.6739 13.7899 22.7161C13.8851 22.7583 13.9881 22.7801 14.0923 22.78C14.2769 22.7802 14.455 22.7115 14.5917 22.5875L21.2961 16.5234L25.4119 20.226C25.7064 20.491 26.1567 20.479 26.4368 20.1989L32.2361 14.3997V14.5971C32.2361 15.0085 32.5696 15.342 32.981 15.342C33.3923 15.342 33.7259 15.0085 33.7259 14.5971V12.6013C33.7259 12.19 33.3923 11.8564 32.981 11.8564H30.9834C30.572 11.8564 30.2385 12.19 30.2385 12.6013C30.2385 13.0127 30.572 13.3462 30.9834 13.3462H31.1826L25.883 18.6458L21.793 14.9664C21.6559 14.8432 21.4781 14.7751 21.2938 14.7753C21.1095 14.7756 20.9318 14.8442 20.7951 14.9678L13.5924 21.4827Z" fill="#F98222" fill-opacity="0.3"/>
</svg>
