<svg width="32" height="30" viewBox="0 0 32 30" fill="none" xmlns="http://www.w3.org/2000/svg">
<path d="M18.309 7.83545C18.2102 7.83545 18.1155 7.87469 18.0456 7.94454C17.9758 8.01438 17.9366 8.10912 17.9366 8.20789V16.2806C19.0456 15.4771 20.3656 14.9479 21.7964 14.7933V8.20789C21.7964 8.10912 21.7572 8.01438 21.6873 7.94454C21.6175 7.87469 21.5227 7.83545 21.424 7.83545H18.309ZM16.5378 17.5673V12.636C16.5378 12.5372 16.4985 12.4425 16.4287 12.3727C16.3588 12.3028 16.2641 12.2636 16.1653 12.2636H13.0505C12.9517 12.2636 12.8569 12.3028 12.7871 12.3727C12.7172 12.4425 12.678 12.5372 12.678 12.636V22.0893H11.2792V10.3338C11.2792 10.235 11.24 10.1402 11.1701 10.0704C11.1003 10.0005 11.0056 9.9613 10.9068 9.9613H7.79183C7.69306 9.9613 7.59832 10.0005 7.52848 10.0704C7.45863 10.1402 7.41939 10.235 7.41939 10.3338V22.0893H6.02061V15.0167C6.02061 14.9179 5.98137 14.8232 5.91152 14.7533C5.84167 14.6835 5.74694 14.6442 5.64816 14.6442H2.53508C2.4363 14.6442 2.34157 14.6835 2.27172 14.7533C2.20187 14.8232 2.16263 14.9179 2.16263 15.0167V22.0893H1.18434C0.772978 22.0893 0.439453 22.4228 0.439453 22.8342C0.439453 23.2456 0.772978 23.5791 1.18434 23.5791H14.6175C14.5946 23.3314 14.583 23.0829 14.5828 22.8342C14.5828 20.8243 15.3199 18.9835 16.5377 17.5673H16.5378Z" fill="#F98222"/>
<path d="M23.0438 22.4615H28.8957C28.9945 22.4615 29.0892 22.5008 29.1591 22.5706C29.2289 22.6405 29.2682 22.7352 29.2682 22.834C29.2682 26.4724 26.3098 29.4326 22.6714 29.4326C19.0329 29.4326 16.0728 26.4724 16.0728 22.834C16.0728 19.1955 19.0329 16.2354 22.6714 16.2354C22.7701 16.2354 22.8649 16.2746 22.9347 16.3444C23.0046 16.4143 23.0438 16.509 23.0438 16.6078V22.4615Z" fill="#F98222" fill-opacity="0.3"/>
<path d="M24.3884 14.3845C24.4582 14.3146 24.553 14.2754 24.6517 14.2754C28.2892 14.2754 31.2486 17.2355 31.2486 20.874C31.2486 20.9728 31.2093 21.0675 31.1395 21.1374C31.0696 21.2072 30.9749 21.2465 30.8761 21.2465H24.6517C24.553 21.2465 24.4582 21.2072 24.3884 21.1374C24.3185 21.0675 24.2793 20.9728 24.2793 20.874V14.6478C24.2793 14.5491 24.3185 14.4543 24.3884 14.3845Z" fill="#F98222" fill-opacity="0.7"/>
<path d="M2.03527 10.0291C1.73017 10.305 1.70652 10.7761 1.9825 11.0812C2.0523 11.1585 2.13756 11.2202 2.23277 11.2625C2.32797 11.3047 2.43099 11.3265 2.53515 11.3263C2.71978 11.3265 2.89786 11.2579 3.0346 11.1339L9.73899 5.06976L13.8548 8.77236C14.1493 9.03736 14.5996 9.02538 14.8797 8.7453L20.6789 2.94608V3.14353C20.6789 3.5549 21.0125 3.88842 21.4238 3.88842C21.8352 3.88842 22.1687 3.5549 22.1687 3.14353V1.14772C22.1687 0.736357 21.8352 0.402832 21.4238 0.402832H19.4262C19.0149 0.402832 18.6813 0.736357 18.6813 1.14772C18.6813 1.55909 19.0149 1.89261 19.4262 1.89261H19.6255L14.3258 7.1922L10.2358 3.51281C10.0988 3.38955 9.92095 3.32147 9.73665 3.32172C9.55234 3.32197 9.37467 3.39055 9.23799 3.51418L2.03527 10.0291Z" fill="#F98222" fill-opacity="0.3"/>
</svg>
