<svg width="30" height="30" viewBox="0 0 30 30" fill="none" xmlns="http://www.w3.org/2000/svg">
<path d="M12.3773 10.2212C12.2663 10.2129 12.1596 10.188 12.0455 10.188C10.9456 10.188 9.89081 10.6249 9.11309 11.4026C8.33536 12.1804 7.89844 13.2352 7.89844 14.3351C7.89844 15.9358 8.81494 17.3085 10.143 18C10.481 15.1862 11.327 12.5549 12.3773 10.2212Z" fill="white" fill-opacity="0.3"/>
<path d="M9.97153 20.5516C9.97153 20.0674 10.0078 19.5915 10.04 19.1156C8.93571 18.6526 8.02582 17.8215 7.46485 16.7637C6.90388 15.7058 6.72643 14.4863 6.96265 13.3125C7.19886 12.1386 7.83418 11.0827 8.76066 10.3241C9.68714 9.56559 10.8477 9.15116 12.0451 9.15127C12.3167 9.15127 12.5769 9.19066 12.8372 9.2311C13.5239 7.83309 14.2981 6.47984 15.1554 5.17941V3.96743C15.1554 3.69246 15.0461 3.42876 14.8517 3.23433C14.6573 3.03989 14.3936 2.93066 14.1186 2.93066H9.97153C9.69656 2.93066 9.43286 3.03989 9.23843 3.23433C9.04399 3.42876 8.93476 3.69246 8.93476 3.96743V5.54539C8.62676 5.65472 8.32465 5.77999 8.02966 5.9207L6.91307 4.80514C6.71864 4.61078 6.45499 4.50159 6.18007 4.50159C5.90516 4.50159 5.6415 4.61078 5.44708 4.80514L2.5151 7.73712C2.32074 7.93154 2.21155 8.1952 2.21155 8.47011C2.21155 8.74503 2.32074 9.00868 2.5151 9.20311L3.63066 10.3197C3.48995 10.6147 3.36468 10.9168 3.25535 11.2248H1.67739C1.40242 11.2248 1.13872 11.334 0.944287 11.5285C0.749855 11.7229 0.640625 11.9866 0.640625 12.2616V16.4086C0.640625 16.6836 0.749855 16.9473 0.944287 17.1417C1.13872 17.3362 1.40242 17.4454 1.67739 17.4454H3.25535C3.36525 17.7544 3.4907 18.0561 3.63066 18.3505L2.5151 19.4671C2.32074 19.6615 2.21155 19.9252 2.21155 20.2001C2.21155 20.475 2.32074 20.7387 2.5151 20.9331L5.44708 23.8651C5.6415 24.0594 5.90516 24.1686 6.18007 24.1686C6.45499 24.1686 6.71864 24.0594 6.91307 23.8651L8.02966 22.7495C8.32411 22.8895 8.62581 23.0149 8.93476 23.1248V24.7028C8.93476 24.9777 9.04399 25.2415 9.23843 25.4359C9.43286 25.6303 9.69656 25.7395 9.97153 25.7395H11.3753C10.4564 24.165 9.97199 22.3747 9.97153 20.5516Z" fill="white" fill-opacity="0.7"/>
<path d="M21.0831 1.1597C20.6923 0.755361 19.9852 0.755361 19.5943 1.1597C19.2439 1.52049 11.0078 10.136 11.0078 20.5514C11.0078 25.6989 15.1943 29.8864 20.3387 29.8864C25.4842 29.8864 29.6696 25.6989 29.6696 20.5514C29.6696 10.136 21.4335 1.52049 21.0831 1.1597ZM27.0777 17.4452C27.2152 17.4452 27.347 17.4999 27.4443 17.5971C27.5415 17.6943 27.5961 17.8261 27.5961 17.9636C27.5961 18.1011 27.5415 18.233 27.4443 18.3302C27.347 18.4274 27.2152 18.482 27.0777 18.482C26.9402 18.482 26.8084 18.4274 26.7112 18.3302C26.6139 18.233 26.5593 18.1011 26.5593 17.9636C26.5593 17.8261 26.6139 17.6943 26.7112 17.5971C26.8084 17.4999 26.9402 17.4452 27.0777 17.4452ZM20.3387 27.8129C20.2012 27.8129 20.0694 27.7583 19.9722 27.6611C19.8749 27.5639 19.8203 27.432 19.8203 27.2945C19.8203 27.157 19.8749 27.0252 19.9722 26.928C20.0694 26.8308 20.2012 26.7761 20.3387 26.7761C23.7694 26.7761 26.5593 23.9862 26.5593 20.5555C26.5593 20.4181 26.6139 20.2862 26.7112 20.189C26.8084 20.0918 26.9402 20.0372 27.0777 20.0372C27.2152 20.0372 27.347 20.0918 27.4443 20.189C27.5415 20.2862 27.5961 20.4181 27.5961 20.5555C27.5961 24.5575 24.3406 27.8129 20.3387 27.8129Z" fill="white"/>
</svg>
