<svg width="30" height="30" viewBox="0 0 30 30" fill="none" xmlns="http://www.w3.org/2000/svg">
<path d="M12.3778 9.76755C12.2668 9.75926 12.16 9.73438 12.046 9.73438C10.9461 9.73438 9.8913 10.1713 9.11357 10.949C8.33585 11.7267 7.89893 12.7816 7.89893 13.8814C7.89893 15.4822 8.81543 16.8549 10.1435 17.5464C10.4815 14.7326 11.3275 12.1013 12.3778 9.76755Z" fill="#F98222" fill-opacity="0.3"/>
<path d="M9.97251 20.0979C9.97251 19.6138 10.0088 19.1379 10.0409 18.662C8.93669 18.199 8.0268 17.3679 7.46583 16.3101C6.90486 15.2522 6.72741 14.0327 6.96363 12.8589C7.19984 11.685 7.83515 10.6291 8.76164 9.87053C9.68812 9.11198 10.8486 8.69755 12.046 8.69765C12.3177 8.69765 12.5779 8.73705 12.8381 8.77748C13.5248 7.37948 14.2991 6.02623 15.1563 4.7258V3.51382C15.1563 3.23885 15.0471 2.97514 14.8527 2.78071C14.6582 2.58628 14.3945 2.47705 14.1196 2.47705H9.97251C9.69754 2.47705 9.43383 2.58628 9.2394 2.78071C9.04497 2.97514 8.93574 3.23885 8.93574 3.51382V5.09178C8.62774 5.20111 8.32563 5.32638 8.03064 5.46709L6.91404 4.35153C6.71962 4.15716 6.45596 4.04797 6.18105 4.04797C5.90614 4.04797 5.64248 4.15716 5.44805 4.35153L2.51608 7.2835C2.32171 7.47793 2.21253 7.74159 2.21253 8.0165C2.21253 8.29141 2.32171 8.55507 2.51608 8.74949L3.63164 9.86609C3.49093 10.1611 3.36566 10.4632 3.25633 10.7712H1.67837C1.4034 10.7712 1.1397 10.8804 0.945264 11.0749C0.750832 11.2693 0.641602 11.533 0.641602 11.808V15.955C0.641602 16.23 0.750832 16.4937 0.945264 16.6881C1.1397 16.8826 1.4034 16.9918 1.67837 16.9918H3.25633C3.36623 17.3007 3.49167 17.6024 3.63164 17.8969L2.51608 19.0135C2.32171 19.2079 2.21253 19.4716 2.21253 19.7465C2.21253 20.0214 2.32171 20.2851 2.51608 20.4795L5.44805 23.4115C5.64248 23.6058 5.90614 23.715 6.18105 23.715C6.45596 23.715 6.71962 23.6058 6.91404 23.4115L8.03064 22.2959C8.32508 22.4359 8.62678 22.5613 8.93574 22.6712V24.2492C8.93574 24.5241 9.04497 24.7878 9.2394 24.9823C9.43383 25.1767 9.69754 25.2859 9.97251 25.2859H11.3763C10.4574 23.7113 9.97297 21.921 9.97251 20.0979Z" fill="#F98222" fill-opacity="0.7"/>
<path d="M21.0846 0.706086C20.6937 0.301747 19.9866 0.301747 19.5958 0.706086C19.2454 1.06688 11.0093 9.68242 11.0093 20.0978C11.0093 25.2453 15.1957 29.4328 20.3402 29.4328C25.4857 29.4328 29.6711 25.2453 29.6711 20.0978C29.6711 9.68242 21.435 1.06688 21.0846 0.706086ZM27.0792 16.9916C27.2167 16.9916 27.3485 17.0462 27.4457 17.1435C27.5429 17.2407 27.5976 17.3725 27.5976 17.51C27.5976 17.6475 27.5429 17.7793 27.4457 17.8766C27.3485 17.9738 27.2167 18.0284 27.0792 18.0284C26.9417 18.0284 26.8098 17.9738 26.7126 17.8766C26.6154 17.7793 26.5608 17.6475 26.5608 17.51C26.5608 17.3725 26.6154 17.2407 26.7126 17.1435C26.8098 17.0462 26.9417 16.9916 27.0792 16.9916ZM20.3402 27.3593C20.2027 27.3593 20.0708 27.3047 19.9736 27.2075C19.8764 27.1103 19.8218 26.9784 19.8218 26.8409C19.8218 26.7034 19.8764 26.5716 19.9736 26.4744C20.0708 26.3771 20.2027 26.3225 20.3402 26.3225C23.7708 26.3225 26.5608 23.5326 26.5608 20.1019C26.5608 19.9644 26.6154 19.8326 26.7126 19.7354C26.8098 19.6382 26.9417 19.5835 27.0792 19.5835C27.2167 19.5835 27.3485 19.6382 27.4457 19.7354C27.5429 19.8326 27.5976 19.9644 27.5976 20.1019C27.5976 24.1038 24.3421 27.3593 20.3402 27.3593Z" fill="#F98222"/>
</svg>
