<svg width="55" height="53" viewBox="0 0 55 53" fill="none" xmlns="http://www.w3.org/2000/svg">
<rect x="0.92334" width="53.58" height="52.75" rx="9.48511" fill="#F98222" fill-opacity="0.2"/>
<path d="M24.9349 21.2212C24.824 21.2129 24.7172 21.188 24.6031 21.188C23.5033 21.188 22.4484 21.6249 21.6707 22.4026C20.893 23.1804 20.4561 24.2352 20.4561 25.3351C20.4561 26.9358 21.3726 28.3085 22.7007 29C23.0386 26.1862 23.8846 23.5549 24.9349 21.2212Z" fill="#F98222" fill-opacity="0.3"/>
<path d="M22.5296 31.5516C22.5296 31.0674 22.5659 30.5915 22.5981 30.1156C21.4938 29.6526 20.5839 28.8215 20.023 27.7637C19.462 26.7058 19.2845 25.4863 19.5208 24.3125C19.757 23.1386 20.3923 22.0827 21.3188 21.3241C22.2453 20.5656 23.4058 20.1512 24.6032 20.1513C24.8748 20.1513 25.135 20.1907 25.3953 20.2311C26.082 18.8331 26.8562 17.4798 27.7135 16.1794V14.9674C27.7135 14.6925 27.6042 14.4288 27.4098 14.2343C27.2154 14.0399 26.9517 13.9307 26.6767 13.9307H22.5296C22.2547 13.9307 21.991 14.0399 21.7965 14.2343C21.6021 14.4288 21.4929 14.6925 21.4929 14.9674V16.5454C21.1849 16.6547 20.8828 16.78 20.5878 16.9207L19.4712 15.8051C19.2767 15.6108 19.0131 15.5016 18.7382 15.5016C18.4633 15.5016 18.1996 15.6108 18.0052 15.8051L15.0732 18.7371C14.8788 18.9315 14.7697 19.1952 14.7697 19.4701C14.7697 19.745 14.8788 20.0087 15.0732 20.2031L16.1888 21.3197C16.0481 21.6147 15.9228 21.9168 15.8135 22.2248H14.2355C13.9605 22.2248 13.6968 22.334 13.5024 22.5285C13.308 22.7229 13.1987 22.9866 13.1987 23.2616V27.4086C13.1987 27.6836 13.308 27.9473 13.5024 28.1417C13.6968 28.3362 13.9605 28.4454 14.2355 28.4454H15.8135C15.9234 28.7544 16.0488 29.0561 16.1888 29.3505L15.0732 30.4671C14.8788 30.6615 14.7697 30.9252 14.7697 31.2001C14.7697 31.475 14.8788 31.7387 15.0732 31.9331L18.0052 34.8651C18.1996 35.0594 18.4633 35.1686 18.7382 35.1686C19.0131 35.1686 19.2767 35.0594 19.4712 34.8651L20.5878 33.7495C20.8822 33.8895 21.1839 34.0149 21.4929 34.1248V35.7028C21.4929 35.9777 21.6021 36.2415 21.7965 36.4359C21.991 36.6303 22.2547 36.7395 22.5296 36.7395H23.9334C23.0145 35.165 22.5301 33.3747 22.5296 31.5516Z" fill="#F98222" fill-opacity="0.7"/>
<path d="M33.6417 12.1597C33.2508 11.7554 32.5438 11.7554 32.1529 12.1597C31.8025 12.5205 23.5664 21.136 23.5664 31.5514C23.5664 36.6989 27.7529 40.8864 32.8973 40.8864C38.0428 40.8864 42.2282 36.6989 42.2282 31.5514C42.2282 21.136 33.9921 12.5205 33.6417 12.1597ZM39.6363 28.4452C39.7738 28.4452 39.9056 28.4999 40.0029 28.5971C40.1001 28.6943 40.1547 28.8261 40.1547 28.9636C40.1547 29.1011 40.1001 29.233 40.0029 29.3302C39.9056 29.4274 39.7738 29.482 39.6363 29.482C39.4988 29.482 39.367 29.4274 39.2697 29.3302C39.1725 29.233 39.1179 29.1011 39.1179 28.9636C39.1179 28.8261 39.1725 28.6943 39.2697 28.5971C39.367 28.4999 39.4988 28.4452 39.6363 28.4452ZM32.8973 38.8129C32.7598 38.8129 32.628 38.7583 32.5308 38.6611C32.4335 38.5639 32.3789 38.432 32.3789 38.2945C32.3789 38.157 32.4335 38.0252 32.5308 37.928C32.628 37.8308 32.7598 37.7761 32.8973 37.7761C36.328 37.7761 39.1179 34.9862 39.1179 31.5555C39.1179 31.4181 39.1725 31.2862 39.2697 31.189C39.367 31.0918 39.4988 31.0372 39.6363 31.0372C39.7738 31.0372 39.9056 31.0918 40.0029 31.189C40.1001 31.2862 40.1547 31.4181 40.1547 31.5555C40.1547 35.5575 36.8992 38.8129 32.8973 38.8129Z" fill="#F98222"/>
</svg>
