<svg width="30" height="30" viewBox="0 0 30 30" fill="none" xmlns="http://www.w3.org/2000/svg">
<path d="M19.2481 10.061H10.7515C10.556 10.061 10.3975 10.2195 10.3975 10.4151V12.5392C10.3975 12.7347 10.556 12.8932 10.7515 12.8932H19.2481C19.4436 12.8932 19.6021 12.7347 19.6021 12.5392V10.4151C19.6021 10.2195 19.4436 10.061 19.2481 10.061Z" fill="white" fill-opacity="0.3"/>
<path d="M21.1366 20.6816H19.6025V19.1475C19.6025 19.0536 19.5652 18.9635 19.4988 18.8971C19.4324 18.8308 19.3424 18.7935 19.2485 18.7935H10.7519C10.658 18.7935 10.568 18.8308 10.5016 18.8971C10.4352 18.9635 10.3979 19.0536 10.3979 19.1475V20.6816H8.86379C8.7699 20.6816 8.67985 20.7189 8.61346 20.7853C8.54706 20.8517 8.50977 20.9417 8.50977 21.0356V29.5322C8.50977 29.6261 8.54706 29.7161 8.61346 29.7825C8.67985 29.8489 8.7699 29.8862 8.86379 29.8862H21.1366C21.2305 29.8862 21.3206 29.8489 21.387 29.7825C21.4534 29.7161 21.4907 29.6261 21.4907 29.5322V21.0356C21.4907 20.9417 21.4534 20.8517 21.387 20.7853C21.3206 20.7189 21.2305 20.6816 21.1366 20.6816Z" fill="white"/>
<path d="M21.9618 0.856445H8.03684C7.51545 0.856445 7.09277 1.27912 7.09277 1.80051C7.09277 2.3219 7.51545 2.74458 8.03684 2.74458H21.9618C22.4832 2.74458 22.9059 2.3219 22.9059 1.80051C22.9059 1.27912 22.4832 0.856445 21.9618 0.856445Z" fill="white" fill-opacity="0.3"/>
<path d="M29.6325 20.6816H27.5083C27.3128 20.6816 27.1543 20.8401 27.1543 21.0357V29.5323C27.1543 29.7278 27.3128 29.8863 27.5083 29.8863H29.6325C29.828 29.8863 29.9865 29.7278 29.9865 29.5323V21.0357C29.9865 20.8401 29.828 20.6816 29.6325 20.6816Z" fill="white" fill-opacity="0.3"/>
<path d="M22.1982 21.626H26.4465V28.9425H22.1982V21.626Z" fill="white" fill-opacity="0.7"/>
<path d="M2.49087 20.6816H0.36672C0.171197 20.6816 0.0126953 20.8401 0.0126953 21.0357V29.5323C0.0126953 29.7278 0.171197 29.8863 0.36672 29.8863H2.49087C2.68639 29.8863 2.84489 29.7278 2.84489 29.5323V21.0357C2.84489 20.8401 2.68639 20.6816 2.49087 20.6816Z" fill="white" fill-opacity="0.3"/>
<path d="M3.55273 21.6259H7.80103V28.9424H3.55273V21.6259ZM11.3413 13.6013H18.6578V18.0856H11.3413V13.6013ZM12.2853 8.05495H17.7137V9.35304H12.2853V8.05495ZM20.8372 3.45264H9.1619L12.1909 7.34691H17.8081L20.8372 3.45264Z" fill="white" fill-opacity="0.7"/>
</svg>
