<svg width="30" height="30" viewBox="0 0 30 30" fill="none" xmlns="http://www.w3.org/2000/svg">
<path d="M19.249 9.60742H10.7525C10.5569 9.60742 10.3984 9.76592 10.3984 9.96145V12.0856C10.3984 12.2811 10.5569 12.4396 10.7525 12.4396H19.249C19.4446 12.4396 19.6031 12.2811 19.6031 12.0856V9.96145C19.6031 9.76592 19.4446 9.60742 19.249 9.60742Z" fill="#F98222" fill-opacity="0.3"/>
<path d="M21.1371 20.228H19.603V18.6939C19.603 18.6 19.5657 18.5099 19.4993 18.4435C19.4329 18.3771 19.3429 18.3398 19.249 18.3398H10.7524C10.6585 18.3398 10.5685 18.3771 10.5021 18.4435C10.4357 18.5099 10.3984 18.6 10.3984 18.6939V20.228H8.86428C8.77039 20.228 8.68034 20.2653 8.61394 20.3317C8.54755 20.3981 8.51025 20.4881 8.51025 20.582V29.0786C8.51025 29.1725 8.54755 29.2625 8.61394 29.3289C8.68034 29.3953 8.77039 29.4326 8.86428 29.4326H21.1371C21.231 29.4326 21.3211 29.3953 21.3875 29.3289C21.4539 29.2625 21.4911 29.1725 21.4911 29.0786V20.582C21.4911 20.4881 21.4539 20.3981 21.3875 20.3317C21.3211 20.2653 21.231 20.228 21.1371 20.228Z" fill="#F98222"/>
<path d="M21.9633 0.402832H8.0383C7.51691 0.402832 7.09424 0.825504 7.09424 1.3469C7.09424 1.86829 7.51691 2.29096 8.0383 2.29096H21.9633C22.4847 2.29096 22.9073 1.86829 22.9073 1.3469C22.9073 0.825504 22.4847 0.402832 21.9633 0.402832Z" fill="#F98222" fill-opacity="0.3"/>
<path d="M29.6339 20.228H27.5098C27.3143 20.228 27.1558 20.3865 27.1558 20.5821V29.0786C27.1558 29.2742 27.3143 29.4327 27.5098 29.4327H29.6339C29.8295 29.4327 29.988 29.2742 29.988 29.0786V20.5821C29.988 20.3865 29.8295 20.228 29.6339 20.228Z" fill="#F98222" fill-opacity="0.3"/>
<path d="M22.1992 21.1724H26.4475V28.4889H22.1992V21.1724Z" fill="#F98222" fill-opacity="0.7"/>
<path d="M2.49184 20.228H0.367696C0.172174 20.228 0.0136719 20.3865 0.0136719 20.5821V29.0786C0.0136719 29.2742 0.172174 29.4327 0.367696 29.4327H2.49184C2.68737 29.4327 2.84587 29.2742 2.84587 29.0786V20.5821C2.84587 20.3865 2.68737 20.228 2.49184 20.228Z" fill="#F98222" fill-opacity="0.3"/>
<path d="M3.55371 21.1723H7.802V28.4888H3.55371V21.1723ZM11.3422 13.1477H18.6588V17.632H11.3422V13.1477ZM12.2863 7.60134H17.7147V8.89943H12.2863V7.60134ZM20.8381 2.99902H9.16287L12.1919 6.89329H17.8091L20.8381 2.99902Z" fill="#F98222" fill-opacity="0.7"/>
</svg>
