<svg width="55" height="53" viewBox="0 0 55 53" fill="none" xmlns="http://www.w3.org/2000/svg">
<rect x="0.768066" width="53.58" height="52.75" rx="9.48511" fill="#F98222" fill-opacity="0.2"/>
<path d="M31.8062 21.061H23.3096C23.1141 21.061 22.9556 21.2195 22.9556 21.4151V23.5392C22.9556 23.7347 23.1141 23.8932 23.3096 23.8932H31.8062C32.0017 23.8932 32.1602 23.7347 32.1602 23.5392V21.4151C32.1602 21.2195 32.0017 21.061 31.8062 21.061Z" fill="#F98222" fill-opacity="0.3"/>
<path d="M33.6943 31.6816H32.1601V30.1475C32.1601 30.0536 32.1228 29.9635 32.0565 29.8971C31.9901 29.8308 31.9 29.7935 31.8061 29.7935H23.3095C23.2156 29.7935 23.1256 29.8308 23.0592 29.8971C22.9928 29.9635 22.9555 30.0536 22.9555 30.1475V31.6816H21.4214C21.3275 31.6816 21.2375 31.7189 21.1711 31.7853C21.1047 31.8517 21.0674 31.9417 21.0674 32.0356V40.5322C21.0674 40.6261 21.1047 40.7161 21.1711 40.7825C21.2375 40.8489 21.3275 40.8862 21.4214 40.8862H33.6943C33.7881 40.8862 33.8782 40.8489 33.9446 40.7825C34.011 40.7161 34.0483 40.6261 34.0483 40.5322V32.0356C34.0483 31.9417 34.011 31.8517 33.9446 31.7853C33.8782 31.7189 33.7881 31.6816 33.6943 31.6816Z" fill="#F98222"/>
<path d="M34.5204 11.8564H20.5954C20.074 11.8564 19.6514 12.2791 19.6514 12.8005C19.6514 13.3219 20.074 13.7446 20.5954 13.7446H34.5204C35.0418 13.7446 35.4645 13.3219 35.4645 12.8005C35.4645 12.2791 35.0418 11.8564 34.5204 11.8564Z" fill="#F98222" fill-opacity="0.3"/>
<path d="M42.1911 31.6816H40.0669C39.8714 31.6816 39.7129 31.8401 39.7129 32.0357V40.5323C39.7129 40.7278 39.8714 40.8863 40.0669 40.8863H42.1911C42.3866 40.8863 42.5451 40.7278 42.5451 40.5323V32.0357C42.5451 31.8401 42.3866 31.6816 42.1911 31.6816Z" fill="#F98222" fill-opacity="0.3"/>
<path d="M34.7563 32.626H39.0046V39.9425H34.7563V32.626Z" fill="#F98222" fill-opacity="0.7"/>
<path d="M15.049 31.6816H12.9248C12.7293 31.6816 12.5708 31.8401 12.5708 32.0357V40.5323C12.5708 40.7278 12.7293 40.8863 12.9248 40.8863H15.049C15.2445 40.8863 15.403 40.7278 15.403 40.5323V32.0357C15.403 31.8401 15.2445 31.6816 15.049 31.6816Z" fill="#F98222" fill-opacity="0.3"/>
<path d="M16.1108 32.6259H20.3591V39.9424H16.1108V32.6259ZM23.8994 24.6013H31.2159V29.0856H23.8994V24.6013ZM24.8434 19.055H30.2718V20.353H24.8434V19.055ZM33.3953 14.4526H21.72L24.749 18.3469H30.3662L33.3953 14.4526Z" fill="#F98222" fill-opacity="0.7"/>
</svg>
