<svg width="20" height="30" viewBox="0 0 20 30" fill="none" xmlns="http://www.w3.org/2000/svg">
<path d="M0.590178 0.402832H6.81088C6.94837 0.402832 7.08022 0.457449 7.17744 0.554668C7.27466 0.651887 7.32928 0.783744 7.32928 0.921233V1.43963C7.32928 1.57712 7.27466 1.70898 7.17744 1.8062C7.08022 1.90342 6.94837 1.95803 6.81088 1.95803H0.590178C0.45269 1.95803 0.320832 1.90342 0.223613 1.8062C0.126394 1.70898 0.0717773 1.57712 0.0717773 1.43963V0.921233C0.0717699 0.853153 0.0851736 0.785739 0.111223 0.722841C0.137273 0.659942 0.175457 0.602791 0.223597 0.554652C0.271736 0.506512 0.328887 0.468327 0.391786 0.442278C0.454685 0.416228 0.522099 0.402825 0.590178 0.402832Z" fill="#F98222" fill-opacity="0.3"/>
<path d="M10.4398 15.4362C10.7261 15.4362 10.9582 15.2041 10.9582 14.9178C10.9582 14.6315 10.7261 14.3994 10.4398 14.3994C10.1535 14.3994 9.92139 14.6315 9.92139 14.9178C9.92139 15.2041 10.1535 15.4362 10.4398 15.4362Z" fill="#F98222" fill-opacity="0.7"/>
<path d="M14.5868 28.9146V28.3962C14.5868 28.3281 14.5734 28.2607 14.5473 28.1978C14.5213 28.1349 14.4831 28.0778 14.4349 28.0297C14.3868 27.9815 14.3297 27.9433 14.2668 27.9173C14.2039 27.8912 14.1365 27.8778 14.0684 27.8778H6.81088C6.7428 27.8778 6.67539 27.8912 6.6125 27.9173C6.5496 27.9433 6.49245 27.9815 6.44432 28.0297C6.39618 28.0778 6.35799 28.1349 6.33194 28.1978C6.30589 28.2607 6.29248 28.3281 6.29248 28.3962V28.9146C6.29248 28.9827 6.30589 29.0501 6.33194 29.113C6.35799 29.1759 6.39618 29.233 6.44432 29.2812C6.49245 29.3293 6.5496 29.3675 6.6125 29.3936C6.67539 29.4196 6.7428 29.433 6.81088 29.433H14.0684C14.1365 29.433 14.2039 29.4196 14.2668 29.3936C14.3297 29.3675 14.3868 29.3293 14.4349 29.2812C14.4831 29.233 14.5213 29.1759 14.5473 29.113C14.5734 29.0501 14.5868 28.9827 14.5868 28.9146ZM10.4396 11.2944C8.43906 11.2973 6.81933 12.9209 6.82126 14.9214C6.82319 16.922 8.44597 18.5425 10.4465 18.5416C12.4471 18.5406 14.0684 16.9185 14.0684 14.918C14.0655 12.9159 12.4417 11.2944 10.4396 11.2944ZM10.4396 16.4732C9.58075 16.4732 8.88443 15.777 8.88443 14.918C8.88443 14.0591 9.5807 13.3628 10.4396 13.3628C11.2985 13.3628 11.9948 14.0591 11.9948 14.918C11.9948 15.7769 11.2985 16.4732 10.4396 16.4732Z" fill="#F98222" fill-opacity="0.3"/>
<path d="M7.84766 24.9448C8.6937 25.1679 9.56466 25.2825 10.4396 25.2859C11.3146 25.2825 12.1855 25.1679 13.0316 24.9448V26.8411H7.84766V24.9448Z" fill="#F98222"/>
<path d="M10.4395 5.58663C8.067 5.58685 5.78408 6.49282 4.05704 8.1195C4.00799 8.16807 3.94974 8.20635 3.88569 8.23211C3.82165 8.25787 3.75311 8.27057 3.68409 8.26949C3.61507 8.2684 3.54697 8.25354 3.48377 8.22579C3.42057 8.19803 3.36354 8.15793 3.31605 8.10784C3.26855 8.05776 3.23153 7.99869 3.20716 7.9341C3.1828 7.86952 3.17157 7.80072 3.17415 7.73174C3.17673 7.66276 3.19305 7.59499 3.22217 7.5324C3.25129 7.46982 3.29261 7.41368 3.34371 7.36727C4.20625 6.55498 5.20415 5.89971 6.29235 5.43105V2.99463H1.1084V14.9177C1.1084 20.0711 5.28605 24.2487 10.4394 24.2487C15.5928 24.2487 19.7705 20.0711 19.7705 14.9177C19.7705 9.76429 15.5929 5.58663 10.4395 5.58663ZM17.6566 18.0026L16.7235 19.6179C16.6368 19.7695 16.513 19.8966 16.3638 19.9873C16.2145 20.078 16.0447 20.1293 15.8702 20.1363L14.8309 20.1814L12.806 21.3457L12.2482 22.2218C12.1549 22.3692 12.0257 22.4905 11.8728 22.5744C11.7198 22.6584 11.5481 22.7022 11.3737 22.7018H9.5064C9.33201 22.7022 9.16036 22.6584 9.00744 22.5746C8.85452 22.4907 8.72532 22.3695 8.63187 22.2223L8.07305 21.3457L6.05132 20.1787L5.01197 20.1337C4.83748 20.1266 4.66765 20.0753 4.51841 19.9846C4.36916 19.894 4.24539 19.7669 4.1587 19.6153L3.2256 18.0005C3.13792 17.8494 3.08997 17.6786 3.08625 17.504C3.08253 17.3294 3.12316 17.1567 3.20434 17.0021L3.68487 16.0819V13.7491L3.20434 12.8289C3.12317 12.6744 3.08254 12.5018 3.08625 12.3272C3.08997 12.1527 3.13792 11.982 3.2256 11.831L4.1587 10.2157C4.24539 10.0641 4.36916 9.93704 4.51841 9.84636C4.66765 9.75569 4.83748 9.70441 5.01197 9.69733L6.05132 9.65225L8.07305 8.48532L8.63085 7.60926C8.72421 7.46189 8.85337 7.34057 9.0063 7.25663C9.15923 7.17269 9.33093 7.12887 9.50538 7.12925H11.3716C11.546 7.12886 11.7176 7.17263 11.8705 7.25647C12.0235 7.34032 12.1527 7.46151 12.2461 7.60875L12.806 8.48952L14.8303 9.65645L15.8696 9.70152C16.0441 9.7086 16.214 9.75988 16.3632 9.85056C16.5125 9.94123 16.6362 10.0683 16.7229 10.2199L17.656 11.8347C17.7437 11.9858 17.7916 12.1566 17.7954 12.3312C17.7991 12.5058 17.7584 12.6785 17.6773 12.8331L17.1967 13.7533V16.0861L17.6773 17.0063C17.7583 17.1606 17.7988 17.3329 17.7952 17.5071C17.7916 17.6813 17.7439 17.8518 17.6566 18.0026Z" fill="#F98222"/>
<path d="M16.2193 13.3837L16.7585 12.3506L15.8254 10.7363L14.6595 10.6845C14.5763 10.6811 14.4951 10.6574 14.4231 10.6155L12.1785 9.31954C12.1063 9.27768 12.0452 9.21921 12.0001 9.14898L11.3739 8.16406H9.50663L8.88038 9.14898C8.83534 9.2192 8.77421 9.27767 8.70206 9.31954L6.4574 10.6155C6.38541 10.6574 6.30426 10.6811 6.22102 10.6845L5.05517 10.7363L4.12207 12.3511L4.66122 13.3837C4.69966 13.4579 4.71974 13.5402 4.71979 13.6237V16.2137C4.71974 16.2972 4.69966 16.3795 4.66122 16.4537L4.12207 17.4868L5.05517 19.1011L6.22102 19.1529C6.30426 19.1563 6.38541 19.18 6.4574 19.2219L8.70206 20.5179C8.77423 20.5597 8.83536 20.6182 8.88038 20.6884L9.50663 21.6733H11.3728L11.9991 20.6884C12.0441 20.6182 12.1052 20.5597 12.1774 20.5179L14.4221 19.2219C14.494 19.18 14.5752 19.1563 14.6584 19.1529L15.8243 19.1011L16.7574 17.4863L16.2182 16.4537C16.1798 16.3795 16.1597 16.2972 16.1597 16.2137V13.6217C16.1604 13.5388 16.1808 13.4572 16.2193 13.3837ZM10.4397 19.578C7.86654 19.5751 5.78262 17.4874 5.78455 14.9142C5.78648 12.341 7.87346 10.2564 10.4466 10.2573C13.0198 10.2583 15.1053 12.3445 15.1053 14.9177C15.101 17.4918 13.0138 19.5766 10.4397 19.578Z" fill="#F98222" fill-opacity="0.7"/>
</svg>
