<svg width="20" height="30" viewBox="0 0 20 30" fill="none" xmlns="http://www.w3.org/2000/svg">
<path d="M0.58969 0.856445H6.81039C6.94788 0.856445 7.07973 0.911062 7.17695 1.00828C7.27417 1.1055 7.32879 1.23736 7.32879 1.37485V1.89325C7.32879 2.03074 7.27417 2.16259 7.17695 2.25981C7.07973 2.35703 6.94788 2.41165 6.81039 2.41165H0.58969C0.452201 2.41165 0.320344 2.35703 0.223125 2.25981C0.125906 2.16259 0.0712891 2.03074 0.0712891 1.89325V1.37485C0.0712816 1.30677 0.0846854 1.23935 0.110735 1.17645C0.136784 1.11356 0.174969 1.0564 0.223108 1.00826C0.271248 0.960125 0.328399 0.921941 0.391298 0.895891C0.454196 0.869842 0.52161 0.856438 0.58969 0.856445Z" fill="white" fill-opacity="0.3"/>
<path d="M10.4393 15.8898C10.7256 15.8898 10.9577 15.6577 10.9577 15.3714C10.9577 15.0851 10.7256 14.853 10.4393 14.853C10.153 14.853 9.9209 15.0851 9.9209 15.3714C9.9209 15.6577 10.153 15.8898 10.4393 15.8898Z" fill="white" fill-opacity="0.7"/>
<path d="M14.5863 29.3682V28.8498C14.5863 28.7818 14.5729 28.7143 14.5468 28.6515C14.5208 28.5886 14.4826 28.5314 14.4345 28.4833C14.3863 28.4351 14.3292 28.3969 14.2663 28.3709C14.2034 28.3448 14.136 28.3314 14.0679 28.3314H6.81039C6.74232 28.3314 6.6749 28.3448 6.61201 28.3709C6.54911 28.3969 6.49197 28.4351 6.44383 28.4833C6.39569 28.5314 6.35751 28.5886 6.33145 28.6515C6.3054 28.7143 6.29199 28.7818 6.29199 28.8498V29.3682C6.29199 29.4363 6.3054 29.5037 6.33145 29.5666C6.35751 29.6295 6.39569 29.6867 6.44383 29.7348C6.49197 29.7829 6.54911 29.8211 6.61201 29.8472C6.6749 29.8732 6.74232 29.8866 6.81039 29.8866H14.0679C14.136 29.8866 14.2034 29.8732 14.2663 29.8472C14.3292 29.8211 14.3863 29.7829 14.4345 29.7348C14.4826 29.6867 14.5208 29.6295 14.5468 29.5666C14.5729 29.5037 14.5863 29.4363 14.5863 29.3682ZM10.4391 11.748C8.43857 11.7509 6.81884 13.3745 6.82077 15.375C6.8227 17.3756 8.44549 18.9961 10.4461 18.9952C12.4466 18.9943 14.0679 17.3722 14.0679 15.3716C14.065 13.3695 12.4412 11.748 10.4391 11.748ZM10.4391 16.9268C9.58026 16.9268 8.88394 16.2306 8.88394 15.3716C8.88394 14.5128 9.58021 13.8164 10.4391 13.8164C11.298 13.8164 11.9943 14.5127 11.9943 15.3716C11.9943 16.2305 11.298 16.9268 10.4391 16.9268Z" fill="white" fill-opacity="0.3"/>
<path d="M7.84766 25.3984C8.6937 25.6215 9.56466 25.7361 10.4396 25.7395C11.3146 25.7361 12.1855 25.6215 13.0316 25.3984V27.2947H7.84766V25.3984Z" fill="white"/>
<path d="M10.4395 6.04025C8.067 6.04046 5.78408 6.94643 4.05704 8.57311C4.00799 8.62168 3.94974 8.65997 3.88569 8.68572C3.82165 8.71148 3.75311 8.72419 3.68409 8.7231C3.61507 8.72201 3.54697 8.70716 3.48377 8.6794C3.42057 8.65164 3.36354 8.61154 3.31605 8.56146C3.26855 8.51137 3.23153 8.4523 3.20716 8.38772C3.1828 8.32313 3.17157 8.25433 3.17415 8.18535C3.17673 8.11637 3.19305 8.0486 3.22217 7.98602C3.25129 7.92343 3.29261 7.86729 3.34371 7.82089C4.20625 7.00859 5.20415 6.35332 6.29235 5.88466V3.44824H1.1084V15.3713C1.1084 20.5247 5.28605 24.7023 10.4394 24.7023C15.5928 24.7023 19.7705 20.5247 19.7705 15.3713C19.7705 10.2179 15.5929 6.04025 10.4395 6.04025ZM17.6566 18.4562L16.7235 20.0715C16.6368 20.2231 16.513 20.3502 16.3638 20.4409C16.2145 20.5316 16.0447 20.5829 15.8702 20.5899L14.8309 20.635L12.806 21.7993L12.2482 22.6754C12.1549 22.8228 12.0257 22.9441 11.8728 23.028C11.7198 23.112 11.5481 23.1558 11.3737 23.1554H9.5064C9.33201 23.1558 9.16036 23.112 9.00744 23.0282C8.85452 22.9443 8.72532 22.8232 8.63187 22.6759L8.07305 21.7993L6.05132 20.6324L5.01197 20.5873C4.83748 20.5802 4.66765 20.5289 4.51841 20.4382C4.36916 20.3476 4.24539 20.2205 4.1587 20.0689L3.2256 18.4541C3.13792 18.303 3.08997 18.1322 3.08625 17.9576C3.08253 17.783 3.12316 17.6103 3.20434 17.4557L3.68487 16.5355V14.2027L3.20434 13.2826C3.12317 13.128 3.08254 12.9554 3.08625 12.7809C3.08997 12.6063 3.13792 12.4356 3.2256 12.2846L4.1587 10.6693C4.24539 10.5177 4.36916 10.3907 4.51841 10.3C4.66765 10.2093 4.83748 10.158 5.01197 10.1509L6.05132 10.1059L8.07305 8.93894L8.63085 8.06288C8.72421 7.91551 8.85337 7.79419 9.0063 7.71025C9.15923 7.62631 9.33093 7.58248 9.50538 7.58286H11.3716C11.546 7.58248 11.7176 7.62624 11.8705 7.71009C12.0235 7.79393 12.1527 7.91512 12.2461 8.06237L12.806 8.94313L14.8303 10.1101L15.8696 10.1551C16.0441 10.1622 16.214 10.2135 16.3632 10.3042C16.5125 10.3948 16.6362 10.5219 16.7229 10.6735L17.656 12.2883C17.7437 12.4394 17.7916 12.6102 17.7954 12.7848C17.7991 12.9594 17.7584 13.1321 17.6773 13.2867L17.1967 14.2069V16.5397L17.6773 17.4599C17.7583 17.6142 17.7988 17.7865 17.7952 17.9607C17.7916 18.135 17.7439 18.3054 17.6566 18.4562Z" fill="white"/>
<path d="M16.2183 13.8373L16.7575 12.8042L15.8244 11.1899L14.6585 11.1381C14.5753 11.1347 14.4941 11.111 14.4222 11.0691L12.1775 9.77315C12.1053 9.7313 12.0442 9.67283 11.9992 9.6026L11.3729 8.61768H9.50565L8.87941 9.6026C8.83437 9.67281 8.77324 9.73128 8.70109 9.77315L6.45642 11.0691C6.38443 11.111 6.30328 11.1347 6.22004 11.1381L5.05419 11.1899L4.12109 12.8047L4.66025 13.8373C4.69868 13.9115 4.71877 13.9938 4.71882 14.0774V16.6673C4.71877 16.7508 4.69868 16.8331 4.66025 16.9073L4.12109 17.9404L5.05419 19.5547L6.22004 19.6066C6.30328 19.6099 6.38443 19.6336 6.45642 19.6755L8.70109 20.9715C8.77325 21.0133 8.83438 21.0718 8.87941 21.142L9.50565 22.1269H11.3718L11.9981 21.142C12.0431 21.0718 12.1042 21.0133 12.1764 20.9715L14.4211 19.6755C14.4931 19.6336 14.5742 19.6099 14.6575 19.6066L15.8233 19.5547L16.7564 17.9399L16.2172 16.9073C16.1788 16.8331 16.1587 16.7508 16.1587 16.6673V14.0753C16.1594 13.9924 16.1798 13.9108 16.2183 13.8373ZM10.4387 20.0316C7.86557 20.0287 5.78164 17.941 5.78357 15.3678C5.7855 12.7947 7.87249 10.71 10.4457 10.711C13.0188 10.7119 15.1043 12.7981 15.1043 15.3713C15.1 17.9454 13.0128 20.0302 10.4387 20.0316Z" fill="white" fill-opacity="0.7"/>
</svg>
