<svg width="55" height="53" viewBox="0 0 55 53" fill="none" xmlns="http://www.w3.org/2000/svg">
<rect x="0.688477" width="53.58" height="52.75" rx="9.48511" fill="#F98222" fill-opacity="0.2"/>
<path d="M18.1473 11.8564H24.368C24.5055 11.8564 24.6374 11.9111 24.7346 12.0083C24.8318 12.1055 24.8864 12.2374 24.8864 12.3748V12.8932C24.8864 13.0307 24.8318 13.1626 24.7346 13.2598C24.6374 13.357 24.5055 13.4116 24.368 13.4116H18.1473C18.0098 13.4116 17.878 13.357 17.7807 13.2598C17.6835 13.1626 17.6289 13.0307 17.6289 12.8932V12.3748C17.6289 12.3068 17.6423 12.2394 17.6684 12.1765C17.6944 12.1136 17.7326 12.0564 17.7807 12.0083C17.8289 11.9601 17.886 11.9219 17.9489 11.8959C18.0118 11.8698 18.0792 11.8564 18.1473 11.8564Z" fill="#F98222" fill-opacity="0.3"/>
<path d="M27.9969 26.8898C28.2832 26.8898 28.5153 26.6577 28.5153 26.3714C28.5153 26.0851 28.2832 25.853 27.9969 25.853C27.7106 25.853 27.4785 26.0851 27.4785 26.3714C27.4785 26.6577 27.7106 26.8898 27.9969 26.8898Z" fill="#F98222" fill-opacity="0.7"/>
<path d="M32.1439 40.3682V39.8498C32.1439 39.7818 32.1305 39.7143 32.1044 39.6515C32.0784 39.5886 32.0402 39.5314 31.9921 39.4833C31.9439 39.4351 31.8868 39.3969 31.8239 39.3709C31.761 39.3448 31.6936 39.3314 31.6255 39.3314H24.368C24.2999 39.3314 24.2325 39.3448 24.1696 39.3709C24.1067 39.3969 24.0496 39.4351 24.0014 39.4833C23.9533 39.5314 23.9151 39.5886 23.8891 39.6515C23.863 39.7143 23.8496 39.7818 23.8496 39.8498V40.3682C23.8496 40.4363 23.863 40.5037 23.8891 40.5666C23.9151 40.6295 23.9533 40.6867 24.0014 40.7348C24.0496 40.7829 24.1067 40.8211 24.1696 40.8472C24.2325 40.8732 24.2999 40.8866 24.368 40.8866H31.6255C31.6936 40.8866 31.761 40.8732 31.8239 40.8472C31.8868 40.8211 31.9439 40.7829 31.9921 40.7348C32.0402 40.6867 32.0784 40.6295 32.1044 40.5666C32.1305 40.5037 32.1439 40.4363 32.1439 40.3682ZM27.9968 22.748C25.9962 22.7509 24.3765 24.3745 24.3784 26.375C24.3803 28.3756 26.0031 29.9961 28.0037 29.9952C30.0043 29.9943 31.6255 28.3722 31.6255 26.3716C31.6226 24.3695 29.9988 22.748 27.9968 22.748ZM27.9968 27.9268C27.1379 27.9268 26.4416 27.2306 26.4416 26.3716C26.4416 25.5128 27.1378 24.8164 27.9968 24.8164C28.8556 24.8164 29.552 25.5127 29.552 26.3716C29.5519 27.2305 28.8556 27.9268 27.9968 27.9268Z" fill="#F98222" fill-opacity="0.3"/>
<path d="M25.4048 36.3984C26.2508 36.6215 27.1218 36.7361 27.9967 36.7395C28.8717 36.7361 29.7427 36.6215 30.5887 36.3984V38.2947H25.4048V36.3984Z" fill="#F98222"/>
<path d="M27.9966 17.0402C25.6241 17.0405 23.3412 17.9464 21.6142 19.5731C21.5651 19.6217 21.5069 19.66 21.4428 19.6857C21.3788 19.7115 21.3102 19.7242 21.2412 19.7231C21.1722 19.722 21.1041 19.7072 21.0409 19.6794C20.9777 19.6516 20.9207 19.6115 20.8732 19.5615C20.8257 19.5114 20.7887 19.4523 20.7643 19.3877C20.7399 19.3231 20.7287 19.2543 20.7313 19.1854C20.7339 19.1164 20.7502 19.0486 20.7793 18.986C20.8084 18.9234 20.8497 18.8673 20.9008 18.8209C21.7634 18.0086 22.7613 17.3533 23.8495 16.8847V14.4482H18.6655V26.3713C18.6655 31.5247 22.8432 35.7023 27.9966 35.7023C33.15 35.7023 37.3277 31.5247 37.3277 26.3713C37.3277 21.2179 33.15 17.0402 27.9966 17.0402ZM35.2137 29.4562L34.2806 31.0715C34.1939 31.2231 34.0701 31.3502 33.9209 31.4409C33.7717 31.5316 33.6018 31.5829 33.4273 31.5899L32.388 31.635L30.3631 32.7993L29.8053 33.6754C29.712 33.8228 29.5828 33.9441 29.4299 34.028C29.277 34.112 29.1053 34.1558 28.9308 34.1554H27.0635C26.8891 34.1558 26.7175 34.112 26.5646 34.0282C26.4117 33.9443 26.2825 33.8232 26.189 33.6759L25.6302 32.7993L23.6085 31.6324L22.5691 31.5873C22.3946 31.5802 22.2248 31.5289 22.0755 31.4382C21.9263 31.3476 21.8025 31.2205 21.7158 31.0689L20.7827 29.4541C20.695 29.303 20.6471 29.1322 20.6434 28.9576C20.6397 28.783 20.6803 28.6103 20.7615 28.4557L21.242 27.5355V25.2027L20.7615 24.2826C20.6803 24.128 20.6397 23.9554 20.6434 23.7809C20.6471 23.6063 20.695 23.4356 20.7827 23.2846L21.7158 21.6693C21.8025 21.5177 21.9263 21.3907 22.0755 21.3C22.2248 21.2093 22.3946 21.158 22.5691 21.1509L23.6085 21.1059L25.6302 19.9389L26.188 19.0629C26.2813 18.9155 26.4105 18.7942 26.5634 18.7102C26.7164 18.6263 26.8881 18.5825 27.0625 18.5829H28.9287C29.1031 18.5825 29.2748 18.6262 29.4277 18.7101C29.5806 18.7939 29.7098 18.9151 29.8032 19.0624L30.3631 19.9431L32.3874 21.1101L33.4268 21.1551C33.6013 21.1622 33.7711 21.2135 33.9203 21.3042C34.0696 21.3948 34.1934 21.5219 34.28 21.6735L35.2131 23.2883C35.3008 23.4394 35.3488 23.6102 35.3525 23.7848C35.3562 23.9594 35.3156 24.1321 35.2344 24.2867L34.7539 25.2069V27.5397L35.2344 28.4599C35.3154 28.6142 35.356 28.7865 35.3523 28.9607C35.3487 29.135 35.301 29.3054 35.2137 29.4562Z" fill="#F98222"/>
<path d="M33.7764 24.8373L34.3156 23.8042L33.3825 22.1899L32.2166 22.1381C32.1334 22.1347 32.0522 22.111 31.9803 22.0691L29.7356 20.7731C29.6634 20.7313 29.6023 20.6728 29.5573 20.6026L28.931 19.6177H27.0638L26.4375 20.6026C26.3925 20.6728 26.3313 20.7313 26.2592 20.7731L24.0145 22.0691C23.9425 22.111 23.8614 22.1347 23.7781 22.1381L22.6123 22.1899L21.6792 23.8047L22.2184 24.8373C22.2568 24.9115 22.2769 24.9938 22.2769 25.0774V27.6673C22.2769 27.7508 22.2568 27.8331 22.2184 27.9073L21.6792 28.9404L22.6123 30.5547L23.7781 30.6066C23.8614 30.6099 23.9425 30.6336 24.0145 30.6755L26.2592 31.9715C26.3314 32.0133 26.3925 32.0718 26.4375 32.142L27.0638 33.1269H28.93L29.5562 32.142C29.6012 32.0718 29.6624 32.0133 29.7345 31.9715L31.9792 30.6755C32.0512 30.6336 32.1323 30.6099 32.2156 30.6066L33.3814 30.5547L34.3145 28.9399L33.7754 27.9073C33.7369 27.8331 33.7168 27.7508 33.7168 27.6673V25.0753C33.7175 24.9924 33.7379 24.9108 33.7764 24.8373ZM27.9969 31.0316C25.4237 31.0287 23.3397 28.941 23.3417 26.3678C23.3436 23.7947 25.4306 21.71 28.0038 21.711C30.577 21.7119 32.6624 23.7981 32.6624 26.3713C32.6581 28.9454 30.5709 31.0302 27.9969 31.0316Z" fill="#F98222" fill-opacity="0.7"/>
</svg>
