<svg width="30" height="30" viewBox="0 0 30 30" fill="none" xmlns="http://www.w3.org/2000/svg">
<path d="M27.2699 22.6293C26.7878 22.6324 26.3212 22.805 25.9531 23.1166C25.884 23.1752 25.8007 23.2146 25.7116 23.231C25.6224 23.2474 25.5306 23.2401 25.4451 23.2099C25.2751 23.1477 25.1486 23.0025 25.1082 22.8263C24.9785 22.1945 24.7031 21.6017 24.3037 21.0952C23.9044 20.5887 23.3923 20.1826 22.8081 19.9092C22.224 19.6357 21.584 19.5026 20.9393 19.5203C20.2946 19.5381 19.6629 19.7062 19.0947 20.0114C18.9522 20.0839 18.7852 20.0891 18.6385 20.0269C18.5667 19.9944 18.503 19.9463 18.4519 19.8863C18.4009 19.8263 18.3637 19.7557 18.3431 19.6796C18.2286 19.212 18.0219 18.7721 17.735 18.3856C17.4481 17.9991 17.0869 17.6738 16.6725 17.429C16.2581 17.1841 15.7989 17.0246 15.322 16.9597C14.845 16.8948 14.3599 16.926 13.8952 17.0513C13.2676 17.2153 12.6961 17.5463 12.2416 18.0091C11.787 18.4719 11.4663 19.0491 11.3136 19.6796C11.2721 19.8335 11.1632 19.9611 11.0181 20.0269C10.8714 20.0891 10.7044 20.0839 10.5619 20.0114C9.99367 19.7062 9.36202 19.5381 8.7173 19.5203C8.07258 19.5026 7.43263 19.6357 6.8485 19.9092C6.26436 20.1826 5.7522 20.5887 5.35287 21.0952C4.95354 21.6017 4.67807 22.1945 4.54846 22.8263C4.50802 23.0025 4.38153 23.1477 4.2115 23.2099C4.12605 23.2401 4.03417 23.2474 3.94503 23.231C3.85589 23.2146 3.7726 23.1752 3.70347 23.1166C3.4035 22.8639 3.03801 22.7014 2.64944 22.6481C2.26087 22.5948 1.86514 22.6528 1.50819 22.8153C1.15125 22.9779 0.847716 23.2383 0.632837 23.5664C0.417957 23.8945 0.30054 24.2769 0.294215 24.669C0.28789 25.0612 0.392916 25.4471 0.597102 25.782C0.801288 26.1169 1.09626 26.387 1.44778 26.5609C1.7993 26.7349 2.19295 26.8056 2.58304 26.7648C2.97313 26.7241 3.34366 26.5735 3.65163 26.3306C3.72432 26.2745 3.81062 26.2387 3.90171 26.2268C3.9928 26.215 4.08539 26.2275 4.17003 26.2632C4.25495 26.2979 4.32907 26.3546 4.38468 26.4275C4.44028 26.5004 4.47535 26.5869 4.48625 26.678C4.57662 27.4597 4.91894 28.1907 5.46149 28.7607C6.00404 29.3307 6.71734 29.7086 7.49365 29.8374C8.26995 29.9662 9.06709 29.8389 9.76463 29.4747C10.4622 29.1104 11.0222 28.5291 11.3602 27.8184C11.4019 27.7314 11.4673 27.658 11.549 27.6067C11.6306 27.5553 11.7251 27.5281 11.8216 27.5281C11.9184 27.5228 12.0146 27.5467 12.0978 27.5966C12.181 27.6465 12.2473 27.7201 12.2882 27.8081C12.526 28.2775 12.8893 28.6719 13.3377 28.9474C13.7861 29.2229 14.302 29.3687 14.8283 29.3687C15.3546 29.3687 15.8705 29.2229 16.3189 28.9474C16.7673 28.6719 17.1306 28.2775 17.3685 27.8081C17.4123 27.7236 17.4785 27.6527 17.5598 27.6033C17.6412 27.554 17.7346 27.5279 17.8298 27.5281H17.835C18.032 27.5281 18.2114 27.6411 18.2964 27.8184C18.6344 28.5291 19.1944 29.1104 19.892 29.4747C20.5895 29.8389 21.3867 29.9662 22.163 29.8374C22.9393 29.7086 23.6526 29.3307 24.1951 28.7607C24.7377 28.1907 25.08 27.4597 25.1704 26.678C25.1813 26.5869 25.2163 26.5004 25.2719 26.4275C25.3275 26.3546 25.4017 26.2979 25.4866 26.2632C25.5712 26.2275 25.6638 26.215 25.7549 26.2268C25.846 26.2387 25.9323 26.2745 26.005 26.3306C26.3645 26.6172 26.8101 26.7742 27.2699 26.7765C27.8198 26.7765 28.3473 26.558 28.7361 26.1691C29.125 25.7802 29.3435 25.2528 29.3435 24.7029C29.3435 24.1529 29.125 23.6255 28.7361 23.2366C28.3473 22.8477 27.8198 22.6293 27.2699 22.6293ZM8.60752 27.8133C8.47003 27.8133 8.33817 27.7586 8.24096 27.6614C8.14374 27.5642 8.08912 27.4323 8.08912 27.2949C8.08912 27.1574 8.14374 27.0255 8.24096 26.9283C8.33817 26.8311 8.47003 26.7765 8.60752 26.7765C8.74501 26.7765 8.87686 26.8311 8.97408 26.9283C9.0713 27.0255 9.12592 27.1574 9.12592 27.2949C9.12592 27.4323 9.0713 27.5642 8.97408 27.6614C8.87686 27.7586 8.74501 27.8133 8.60752 27.8133ZM8.08912 24.7029C7.67704 24.7016 7.28218 24.5374 6.99079 24.246C6.6994 23.9546 6.53515 23.5598 6.53392 23.1477C6.53392 23.0102 6.58854 22.8783 6.68576 22.7811C6.78298 22.6839 6.91483 22.6293 7.05232 22.6293C7.18981 22.6293 7.32167 22.6839 7.41889 22.7811C7.5161 22.8783 7.57072 23.0102 7.57072 23.1477C7.57072 23.2852 7.62534 23.417 7.72256 23.5142C7.81978 23.6115 7.95163 23.6661 8.08912 23.6661C8.22661 23.6661 8.35847 23.6115 8.45568 23.5142C8.5529 23.417 8.60752 23.2852 8.60752 23.1477C8.60752 23.0102 8.66214 22.8783 8.75935 22.7811C8.85657 22.6839 8.98843 22.6293 9.12592 22.6293C9.26341 22.6293 9.39526 22.6839 9.49248 22.7811C9.5897 22.8783 9.64432 23.0102 9.64432 23.1477C9.64309 23.5598 9.47884 23.9546 9.18745 24.246C8.89606 24.5374 8.50121 24.7016 8.08912 24.7029ZM13.7915 26.7765C13.3794 26.7752 12.9846 26.611 12.6932 26.3196C12.4018 26.0282 12.2375 25.6333 12.2363 25.2213C12.2363 25.0838 12.2909 24.9519 12.3881 24.8547C12.4854 24.7575 12.6172 24.7029 12.7547 24.7029C12.8922 24.7029 13.0241 24.7575 13.1213 24.8547C13.2185 24.9519 13.2731 25.0838 13.2731 25.2213C13.2731 25.3588 13.3277 25.4906 13.4249 25.5878C13.5222 25.685 13.654 25.7397 13.7915 25.7397C13.929 25.7397 14.0609 25.685 14.1581 25.5878C14.2553 25.4906 14.3099 25.3588 14.3099 25.2213C14.3099 25.0838 14.3645 24.9519 14.4617 24.8547C14.559 24.7575 14.6908 24.7029 14.8283 24.7029C14.9658 24.7029 15.0977 24.7575 15.1949 24.8547C15.2921 24.9519 15.3467 25.0838 15.3467 25.2213C15.3455 25.6333 15.1812 26.0282 14.8898 26.3196C14.5984 26.611 14.2036 26.7752 13.7915 26.7765ZM14.8283 20.0373H14.8076C14.56 20.0973 14.334 20.2247 14.1544 20.4053C14.1061 20.4533 14.0487 20.4913 13.9857 20.5172C13.9227 20.543 13.8552 20.5562 13.7871 20.556C13.719 20.5557 13.6516 20.5421 13.5887 20.5158C13.5259 20.4895 13.4688 20.4511 13.4209 20.4027C13.3729 20.3544 13.3349 20.2971 13.309 20.2341C13.2832 20.1711 13.27 20.1036 13.2702 20.0354C13.2705 19.9673 13.2841 19.8999 13.3104 19.8371C13.3367 19.7743 13.3751 19.7172 13.4234 19.6692C13.6748 19.4267 13.9705 19.2349 14.2944 19.1042C14.6459 18.9624 15.0394 18.9662 15.3882 19.1145C15.7009 19.2471 15.9872 19.435 16.2332 19.6692C16.4353 19.8729 16.4353 20.2016 16.2332 20.4053C16.1349 20.5017 16.0027 20.5557 15.8651 20.5557C15.7275 20.5557 15.5953 20.5017 15.497 20.4053C15.3172 20.2169 15.0837 20.0884 14.8283 20.0373ZM16.3835 23.1477C16.246 23.1477 16.1142 23.0931 16.0169 22.9958C15.9197 22.8986 15.8651 22.7668 15.8651 22.6293C15.8651 22.4918 15.9197 22.3599 16.0169 22.2627C16.1142 22.1655 16.246 22.1109 16.3835 22.1109C16.521 22.1109 16.6528 22.1655 16.7501 22.2627C16.8473 22.3599 16.9019 22.4918 16.9019 22.6293C16.9019 22.7668 16.8473 22.8986 16.7501 22.9958C16.6528 23.0931 16.521 23.1477 16.3835 23.1477ZM21.0491 27.2949C20.9116 27.2949 20.7797 27.2402 20.6825 27.143C20.5853 27.0458 20.5307 26.9139 20.5307 26.7765C20.5307 26.639 20.5853 26.5071 20.6825 26.4099C20.7797 26.3127 20.9116 26.2581 21.0491 26.2581C21.1866 26.2581 21.3184 26.3127 21.4157 26.4099C21.5129 26.5071 21.5675 26.639 21.5675 26.7765C21.5675 26.9139 21.5129 27.0458 21.4157 27.143C21.3184 27.2402 21.1866 27.2949 21.0491 27.2949ZM20.5307 23.6661C20.1186 23.6648 19.7238 23.5006 19.4324 23.2092C19.141 22.9178 18.9767 22.523 18.9755 22.1109C18.9755 21.9734 19.0301 21.8415 19.1273 21.7443C19.2246 21.6471 19.3564 21.5925 19.4939 21.5925C19.6314 21.5925 19.7632 21.6471 19.8605 21.7443C19.9577 21.8415 20.0123 21.9734 20.0123 22.1109C20.0123 22.2484 20.0669 22.3802 20.1641 22.4774C20.2613 22.5747 20.3932 22.6293 20.5307 22.6293C20.6682 22.6293 20.8 22.5747 20.8973 22.4774C20.9945 22.3802 21.0491 22.2484 21.0491 22.1109C21.0491 21.9734 21.1037 21.8415 21.2009 21.7443C21.2981 21.6471 21.43 21.5925 21.5675 21.5925C21.705 21.5925 21.8368 21.6471 21.9341 21.7443C22.0313 21.8415 22.0859 21.9734 22.0859 22.1109C22.0847 22.523 21.9204 22.9178 21.629 23.2092C21.3376 23.5006 20.9428 23.6648 20.5307 23.6661ZM24.1595 24.7029C24.022 24.7029 23.8901 24.6482 23.7929 24.551C23.6957 24.4538 23.6411 24.322 23.6411 24.1845C23.6411 24.047 23.6957 23.9151 23.7929 23.8179C23.8901 23.7207 24.022 23.6661 24.1595 23.6661C24.297 23.6661 24.4288 23.7207 24.526 23.8179C24.6233 23.9151 24.6779 24.047 24.6779 24.1845C24.6779 24.322 24.6233 24.4538 24.526 24.551C24.4288 24.6482 24.297 24.7029 24.1595 24.7029Z" fill="white" fill-opacity="0.7"/>
<path d="M29.3436 21.0744C29.6299 21.0744 29.862 20.8423 29.862 20.556C29.862 20.2697 29.6299 20.0376 29.3436 20.0376C29.0573 20.0376 28.8252 20.2697 28.8252 20.556C28.8252 20.8423 29.0573 21.0744 29.3436 21.0744Z" fill="white" fill-opacity="0.3"/>
<path d="M3.42367 19.5192C3.70998 19.5192 3.94207 19.2871 3.94207 19.0008C3.94207 18.7145 3.70998 18.4824 3.42367 18.4824C3.13737 18.4824 2.90527 18.7145 2.90527 19.0008C2.90527 19.2871 3.13737 19.5192 3.42367 19.5192Z" fill="white" fill-opacity="0.3"/>
<path d="M26.7518 20.0373C27.0381 20.0373 27.2702 19.8052 27.2702 19.5189C27.2702 19.2326 27.0381 19.0005 26.7518 19.0005C26.4655 19.0005 26.2334 19.2326 26.2334 19.5189C26.2334 19.8052 26.4655 20.0373 26.7518 20.0373Z" fill="white" fill-opacity="0.3"/>
<path d="M5.49691 17.4455C5.78322 17.4455 6.01531 17.2134 6.01531 16.9271C6.01531 16.6408 5.78322 16.4087 5.49691 16.4087C5.21061 16.4087 4.97852 16.6408 4.97852 16.9271C4.97852 17.2134 5.21061 17.4455 5.49691 17.4455Z" fill="white" fill-opacity="0.3"/>
<path d="M24.7239 2.96394C24.5956 2.94372 24.4644 2.9724 24.3562 3.0443C21.8296 5.07668 19.5144 7.35882 17.446 9.85606C17.6326 8.2231 18.2288 5.45485 20.1261 3.5627C22.1271 1.55649 25.0975 1.00699 26.6838 0.856653H26.7409C26.8053 0.854729 26.8694 0.866172 26.9292 0.890262C26.989 0.914352 27.0431 0.950566 27.0882 0.996621C27.1402 1.04911 27.1795 1.1129 27.2029 1.18304C27.2262 1.25317 27.2331 1.32775 27.223 1.40097C27.0778 2.98727 26.5283 5.9577 24.5221 7.95872C22.5885 9.89235 19.758 10.473 18.1354 10.644C20.1893 8.15543 22.4888 5.88025 24.999 3.853C25.0935 3.76385 25.151 3.6425 25.1603 3.51296C25.1695 3.38341 25.1298 3.25512 25.049 3.15345C24.9682 3.05178 24.8522 2.98415 24.7239 2.96394Z" fill="white"/>
<path d="M10.8934 12.1889C9.25009 12.1007 6.45592 11.6756 4.44453 9.89235C2.32428 8.01056 1.59852 5.0816 1.35487 3.50049C1.34239 3.42804 1.34614 3.35372 1.36586 3.2829C1.38558 3.21208 1.42078 3.14652 1.46892 3.09095C1.51599 3.03899 1.57368 2.99775 1.63807 2.97003C1.70247 2.9423 1.77207 2.92873 1.84217 2.93025H1.8629C2.92943 2.9668 3.98845 3.1233 5.01995 3.39681C6.32772 3.73343 7.54194 4.3627 8.57098 5.23712C10.6135 7.04634 11.36 9.83014 11.6295 11.4475C9.61297 9.49836 4.52747 4.83277 4.29419 4.62023C4.19232 4.52755 4.05789 4.47897 3.9203 4.48513C3.78271 4.49128 3.65316 4.55167 3.55997 4.65308C3.46678 4.75449 3.41754 4.88868 3.42301 5.0263C3.42848 5.16392 3.48823 5.29377 3.58917 5.38746C3.6462 5.4393 8.86129 10.2189 10.8934 12.1889Z" fill="white"/>
<path d="M12.5471 12.3962C13.4083 13.4485 14.096 14.6315 14.5844 15.9006C14.2314 15.9149 13.8815 15.9724 13.5424 16.0717C13.1053 15.004 12.5132 14.0065 11.7851 13.1116C11.9903 13.0245 12.1744 12.8939 12.3242 12.728C12.4123 12.6269 12.487 12.5154 12.5471 12.3962Z" fill="white"/>
<path d="M16.8239 11.2609C16.9914 11.427 17.1956 11.5513 17.4201 11.6238C16.6869 12.9979 16.171 14.4774 15.8908 16.0095C15.5523 15.9327 15.2065 15.8928 14.8592 15.8902C15.1668 14.167 15.7571 12.5065 16.6062 10.9758C16.6648 11.0807 16.7381 11.1767 16.8239 11.2609Z" fill="white"/>
</svg>
