<svg width="30" height="30" viewBox="0 0 30 30" fill="none" xmlns="http://www.w3.org/2000/svg">
<path d="M27.2704 22.1757C26.7883 22.1788 26.3217 22.3514 25.9536 22.663C25.8845 22.7216 25.8012 22.761 25.7121 22.7774C25.6229 22.7938 25.5311 22.7865 25.4456 22.7563C25.2756 22.6941 25.1491 22.5489 25.1086 22.3726C24.979 21.7408 24.7036 21.1481 24.3042 20.6416C23.9049 20.1351 23.3927 19.729 22.8086 19.4555C22.2245 19.1821 21.5845 19.049 20.9398 19.0667C20.2951 19.0844 19.6634 19.2526 19.0952 19.5577C18.9527 19.6303 18.7857 19.6355 18.639 19.5733C18.5672 19.5407 18.5035 19.4927 18.4524 19.4327C18.4013 19.3726 18.3642 19.3021 18.3435 19.226C18.2291 18.7584 18.0224 18.3185 17.7355 17.932C17.4486 17.5455 17.0874 17.2202 16.673 16.9754C16.2586 16.7305 15.7994 16.5709 15.3225 16.5061C14.8455 16.4412 14.3604 16.4724 13.8957 16.5977C13.2681 16.7617 12.6966 17.0927 12.2421 17.5555C11.7875 18.0182 11.4668 18.5955 11.314 19.226C11.2726 19.3799 11.1637 19.5075 11.0186 19.5733C10.8719 19.6355 10.7049 19.6303 10.5624 19.5577C9.99416 19.2526 9.36251 19.0844 8.71779 19.0667C8.07307 19.049 7.43312 19.1821 6.84898 19.4555C6.26485 19.729 5.75269 20.1351 5.35336 20.6416C4.95402 21.1481 4.67856 21.7408 4.54894 22.3726C4.50851 22.5489 4.38202 22.6941 4.21199 22.7563C4.12654 22.7865 4.03466 22.7938 3.94552 22.7774C3.85638 22.761 3.77309 22.7216 3.70395 22.663C3.40399 22.4103 3.0385 22.2478 2.64993 22.1945C2.26136 22.1412 1.86563 22.1992 1.50868 22.3617C1.15173 22.5243 0.848204 22.7847 0.633325 23.1128C0.418445 23.4409 0.301029 23.8233 0.294703 24.2154C0.288378 24.6076 0.393404 24.9935 0.59759 25.3284C0.801776 25.6632 1.09675 25.9333 1.44827 26.1073C1.79979 26.2813 2.19344 26.352 2.58353 26.3112C2.97362 26.2705 3.34415 26.1199 3.65211 25.877C3.72481 25.8209 3.81111 25.785 3.9022 25.7732C3.99328 25.7614 4.08588 25.7739 4.17051 25.8096C4.25544 25.8442 4.32956 25.901 4.38516 25.9739C4.44077 26.0468 4.47584 26.1333 4.48674 26.2244C4.57711 27.0061 4.91943 27.7371 5.46198 28.3071C6.00452 28.8771 6.71783 29.255 7.49413 29.3838C8.27044 29.5126 9.06757 29.3853 9.76512 29.0211C10.4627 28.6568 11.0227 28.0755 11.3607 27.3648C11.4024 27.2778 11.4678 27.2044 11.5495 27.153C11.6311 27.1017 11.7256 27.0744 11.8221 27.0745C11.9189 27.0692 12.0151 27.093 12.0983 27.1429C12.1815 27.1928 12.2478 27.2665 12.2886 27.3545C12.5265 27.8239 12.8898 28.2183 13.3382 28.4938C13.7866 28.7692 14.3025 28.9151 14.8288 28.9151C15.3551 28.9151 15.871 28.7692 16.3194 28.4938C16.7678 28.2183 17.1311 27.8239 17.3689 27.3545C17.4127 27.2699 17.479 27.1991 17.5603 27.1497C17.6417 27.1003 17.7351 27.0743 17.8303 27.0745H17.8355C18.0325 27.0745 18.2119 27.1875 18.2969 27.3648C18.6349 28.0755 19.1949 28.6568 19.8925 29.0211C20.59 29.3853 21.3871 29.5126 22.1635 29.3838C22.9398 29.255 23.6531 28.8771 24.1956 28.3071C24.7382 27.7371 25.0805 27.0061 25.1709 26.2244C25.1817 26.1333 25.2168 26.0468 25.2724 25.9739C25.328 25.901 25.4021 25.8442 25.4871 25.8096C25.5717 25.7739 25.6643 25.7614 25.7554 25.7732C25.8465 25.785 25.9328 25.8209 26.0055 25.877C26.365 26.1636 26.8106 26.3206 27.2704 26.3228C27.8203 26.3228 28.3477 26.1044 28.7366 25.7155C29.1255 25.3266 29.344 24.7992 29.344 24.2493C29.344 23.6993 29.1255 23.1719 28.7366 22.783C28.3477 22.3941 27.8203 22.1757 27.2704 22.1757ZM8.60801 27.3596C8.47052 27.3596 8.33866 27.305 8.24144 27.2078C8.14423 27.1106 8.08961 26.9787 8.08961 26.8412C8.08961 26.7038 8.14423 26.5719 8.24144 26.4747C8.33866 26.3775 8.47052 26.3228 8.60801 26.3228C8.7455 26.3228 8.87735 26.3775 8.97457 26.4747C9.07179 26.5719 9.12641 26.7038 9.12641 26.8412C9.12641 26.9787 9.07179 27.1106 8.97457 27.2078C8.87735 27.305 8.7455 27.3596 8.60801 27.3596ZM8.08961 24.2493C7.67752 24.248 7.28267 24.0838 6.99128 23.7924C6.69989 23.501 6.53564 23.1061 6.53441 22.6941C6.53441 22.5566 6.58903 22.4247 6.68625 22.3275C6.78347 22.2303 6.91532 22.1757 7.05281 22.1757C7.1903 22.1757 7.32216 22.2303 7.41937 22.3275C7.51659 22.4247 7.57121 22.5566 7.57121 22.6941C7.57121 22.8315 7.62583 22.9634 7.72305 23.0606C7.82026 23.1578 7.95212 23.2125 8.08961 23.2125C8.2271 23.2125 8.35895 23.1578 8.45617 23.0606C8.55339 22.9634 8.60801 22.8315 8.60801 22.6941C8.60801 22.5566 8.66262 22.4247 8.75984 22.3275C8.85706 22.2303 8.98892 22.1757 9.12641 22.1757C9.26389 22.1757 9.39575 22.2303 9.49297 22.3275C9.59019 22.4247 9.6448 22.5566 9.6448 22.6941C9.64357 23.1061 9.47933 23.501 9.18794 23.7924C8.89655 24.0838 8.50169 24.248 8.08961 24.2493ZM13.792 26.3228C13.3799 26.3216 12.9851 26.1574 12.6937 25.866C12.4023 25.5746 12.238 25.1797 12.2368 24.7677C12.2368 24.6302 12.2914 24.4983 12.3886 24.4011C12.4859 24.3039 12.6177 24.2493 12.7552 24.2493C12.8927 24.2493 13.0245 24.3039 13.1218 24.4011C13.219 24.4983 13.2736 24.6302 13.2736 24.7677C13.2736 24.9051 13.3282 25.037 13.4254 25.1342C13.5227 25.2314 13.6545 25.286 13.792 25.286C13.9295 25.286 14.0613 25.2314 14.1586 25.1342C14.2558 25.037 14.3104 24.9051 14.3104 24.7677C14.3104 24.6302 14.365 24.4983 14.4622 24.4011C14.5594 24.3039 14.6913 24.2493 14.8288 24.2493C14.9663 24.2493 15.0981 24.3039 15.1954 24.4011C15.2926 24.4983 15.3472 24.6302 15.3472 24.7677C15.346 25.1797 15.1817 25.5746 14.8903 25.866C14.5989 26.1574 14.2041 26.3216 13.792 26.3228ZM14.8288 19.5837H14.8081C14.5605 19.6437 14.3345 19.7711 14.1549 19.9517C14.1065 19.9997 14.0492 20.0377 13.9862 20.0636C13.9232 20.0894 13.8557 20.1026 13.7876 20.1023C13.7195 20.1021 13.6521 20.0885 13.5892 20.0622C13.5264 20.0359 13.4693 19.9975 13.4213 19.9491C13.3733 19.9008 13.3353 19.8435 13.3095 19.7805C13.2837 19.7174 13.2705 19.6499 13.2707 19.5818C13.271 19.5137 13.2846 19.4463 13.3109 19.3835C13.3372 19.3206 13.3756 19.2636 13.4239 19.2156C13.6753 18.9731 13.971 18.7812 14.2948 18.6505C14.6464 18.5088 15.0399 18.5125 15.3887 18.6609C15.7014 18.7935 15.9876 18.9814 16.2337 19.2156C16.4358 19.4193 16.4358 19.748 16.2337 19.9517C16.1354 20.0481 16.0032 20.1021 15.8656 20.1021C15.728 20.1021 15.5958 20.0481 15.4975 19.9517C15.3177 19.7633 15.0842 19.6347 14.8288 19.5837ZM16.384 22.6941C16.2465 22.6941 16.1146 22.6394 16.0174 22.5422C15.9202 22.445 15.8656 22.3131 15.8656 22.1757C15.8656 22.0382 15.9202 21.9063 16.0174 21.8091C16.1146 21.7119 16.2465 21.6573 16.384 21.6573C16.5215 21.6573 16.6533 21.7119 16.7506 21.8091C16.8478 21.9063 16.9024 22.0382 16.9024 22.1757C16.9024 22.3131 16.8478 22.445 16.7506 22.5422C16.6533 22.6394 16.5215 22.6941 16.384 22.6941ZM21.0496 26.8412C20.9121 26.8412 20.7802 26.7866 20.683 26.6894C20.5858 26.5922 20.5312 26.4603 20.5312 26.3228C20.5312 26.1854 20.5858 26.0535 20.683 25.9563C20.7802 25.8591 20.9121 25.8044 21.0496 25.8044C21.1871 25.8044 21.3189 25.8591 21.4161 25.9563C21.5134 26.0535 21.568 26.1854 21.568 26.3228C21.568 26.4603 21.5134 26.5922 21.4161 26.6894C21.3189 26.7866 21.1871 26.8412 21.0496 26.8412ZM20.5312 23.2125C20.1191 23.2112 19.7242 23.047 19.4329 22.7556C19.1415 22.4642 18.9772 22.0693 18.976 21.6573C18.976 21.5198 19.0306 21.3879 19.1278 21.2907C19.225 21.1935 19.3569 21.1389 19.4944 21.1389C19.6319 21.1389 19.7637 21.1935 19.8609 21.2907C19.9582 21.3879 20.0128 21.5198 20.0128 21.6573C20.0128 21.7947 20.0674 21.9266 20.1646 22.0238C20.2618 22.121 20.3937 22.1757 20.5312 22.1757C20.6687 22.1757 20.8005 22.121 20.8977 22.0238C20.995 21.9266 21.0496 21.7947 21.0496 21.6573C21.0496 21.5198 21.1042 21.3879 21.2014 21.2907C21.2986 21.1935 21.4305 21.1389 21.568 21.1389C21.7055 21.1389 21.8373 21.1935 21.9345 21.2907C22.0318 21.3879 22.0864 21.5198 22.0864 21.6573C22.0851 22.0693 21.9209 22.4642 21.6295 22.7556C21.3381 23.047 20.9433 23.2112 20.5312 23.2125ZM24.16 24.2493C24.0225 24.2493 23.8906 24.1946 23.7934 24.0974C23.6962 24.0002 23.6416 23.8683 23.6416 23.7309C23.6416 23.5934 23.6962 23.4615 23.7934 23.3643C23.8906 23.2671 24.0225 23.2125 24.16 23.2125C24.2975 23.2125 24.4293 23.2671 24.5265 23.3643C24.6238 23.4615 24.6784 23.5934 24.6784 23.7309C24.6784 23.8683 24.6238 24.0002 24.5265 24.0974C24.4293 24.1946 24.2975 24.2493 24.16 24.2493Z" fill="#F98222" fill-opacity="0.7"/>
<path d="M29.3441 20.6208C29.6304 20.6208 29.8625 20.3887 29.8625 20.1024C29.8625 19.8161 29.6304 19.584 29.3441 19.584C29.0578 19.584 28.8257 19.8161 28.8257 20.1024C28.8257 20.3887 29.0578 20.6208 29.3441 20.6208Z" fill="#F98222" fill-opacity="0.3"/>
<path d="M3.42416 19.0656C3.71046 19.0656 3.94256 18.8335 3.94256 18.5472C3.94256 18.2609 3.71046 18.0288 3.42416 18.0288C3.13786 18.0288 2.90576 18.2609 2.90576 18.5472C2.90576 18.8335 3.13786 19.0656 3.42416 19.0656Z" fill="#F98222" fill-opacity="0.3"/>
<path d="M26.7518 19.5837C27.0381 19.5837 27.2702 19.3516 27.2702 19.0653C27.2702 18.779 27.0381 18.5469 26.7518 18.5469C26.4655 18.5469 26.2334 18.779 26.2334 19.0653C26.2334 19.3516 26.4655 19.5837 26.7518 19.5837Z" fill="#F98222" fill-opacity="0.3"/>
<path d="M5.49789 16.9919C5.78419 16.9919 6.01629 16.7598 6.01629 16.4735C6.01629 16.1872 5.78419 15.9551 5.49789 15.9551C5.21159 15.9551 4.97949 16.1872 4.97949 16.4735C4.97949 16.7598 5.21159 16.9919 5.49789 16.9919Z" fill="#F98222" fill-opacity="0.3"/>
<path d="M24.7249 2.51032C24.5966 2.49011 24.4654 2.51879 24.3572 2.59068C21.8305 4.62306 19.5154 6.90521 17.4469 9.40244C17.6336 7.76949 18.2297 5.00124 20.1271 3.10908C22.1281 1.10288 25.0985 0.553376 26.6848 0.40304H26.7418C26.8063 0.401115 26.8704 0.412559 26.9302 0.436649C26.9899 0.460739 27.0441 0.496953 27.0892 0.543008C27.1412 0.595499 27.1805 0.659292 27.2038 0.729423C27.2272 0.799555 27.2341 0.874134 27.224 0.947359C27.0788 2.53366 26.5293 5.50409 24.5231 7.5051C22.5895 9.43873 19.759 10.0193 18.1364 10.1904C20.1902 7.70181 22.4897 5.42663 25 3.39939C25.0945 3.31024 25.152 3.18889 25.1613 3.05934C25.1705 2.9298 25.1308 2.8015 25.05 2.69983C24.9692 2.59817 24.8531 2.53054 24.7249 2.51032Z" fill="#F98222"/>
<path d="M10.8944 11.7352C9.25106 11.6471 6.45689 11.222 4.44551 9.43873C2.32526 7.55694 1.5995 4.62799 1.35585 3.04687C1.34336 2.97443 1.34712 2.90011 1.36684 2.82929C1.38656 2.75846 1.42176 2.6929 1.4699 2.63734C1.51697 2.58538 1.57466 2.54414 1.63905 2.51641C1.70345 2.48869 1.77305 2.47512 1.84314 2.47664H1.86388C2.9304 2.51319 3.98942 2.66969 5.02093 2.94319C6.32869 3.27982 7.54291 3.90909 8.57196 4.78351C10.6145 6.59272 11.3609 9.37652 11.6305 10.9939C9.61394 9.04475 4.52845 4.37916 4.29517 4.16662C4.1933 4.07393 4.05887 4.02536 3.92128 4.03151C3.78369 4.03767 3.65414 4.09806 3.56095 4.19947C3.46776 4.30088 3.41852 4.43507 3.42399 4.57268C3.42946 4.7103 3.4892 4.84015 3.59015 4.93385C3.64717 4.98569 8.86226 9.76532 10.8944 11.7352Z" fill="#F98222"/>
<path d="M12.5481 11.9426C13.4093 12.9949 14.097 14.1779 14.5854 15.447C14.2324 15.4613 13.8825 15.5188 13.5434 15.618C13.1063 14.5503 12.5141 13.5529 11.786 12.658C11.9913 12.5709 12.1754 12.4403 12.3252 12.2744C12.4133 12.1733 12.4879 12.0618 12.5481 11.9426Z" fill="#F98222"/>
<path d="M16.8249 10.8073C16.9924 10.9734 17.1966 11.0977 17.421 11.1702C16.6879 12.5443 16.172 14.0238 15.8918 15.5558C15.5532 15.4791 15.2075 15.4392 14.8601 15.4366C15.1678 13.7134 15.758 12.0529 16.6071 10.5222C16.6658 10.6271 16.7391 10.7231 16.8249 10.8073Z" fill="#F98222"/>
</svg>
