<svg width="55" height="53" viewBox="0 0 55 53" fill="none" xmlns="http://www.w3.org/2000/svg">
<rect x="0.845703" width="53.58" height="52.75" rx="9.48511" fill="#F98222" fill-opacity="0.2"/>
<path d="M39.8275 33.6293C39.3454 33.6324 38.8788 33.805 38.5108 34.1166C38.4416 34.1752 38.3583 34.2146 38.2692 34.231C38.1801 34.2474 38.0882 34.2401 38.0027 34.2099C37.8327 34.1477 37.7062 34.0025 37.6658 33.8263C37.5362 33.1945 37.2607 32.6017 36.8614 32.0952C36.462 31.5887 35.9499 31.1826 35.3657 30.9092C34.7816 30.6357 34.1417 30.5026 33.4969 30.5203C32.8522 30.5381 32.2206 30.7062 31.6523 31.0114C31.5098 31.0839 31.3429 31.0891 31.1962 31.0269C31.1244 30.9944 31.0606 30.9463 31.0096 30.8863C30.9585 30.8263 30.9213 30.7557 30.9007 30.6796C30.7863 30.212 30.5795 29.7721 30.2926 29.3856C30.0058 28.9991 29.6445 28.6738 29.2301 28.429C28.8157 28.1841 28.3565 28.0246 27.8796 27.9597C27.4026 27.8948 26.9175 27.926 26.4528 28.0513C25.8252 28.2153 25.2538 28.5463 24.7992 29.0091C24.3446 29.4719 24.0239 30.0491 23.8712 30.6796C23.8297 30.8335 23.7208 30.9611 23.5757 31.0269C23.429 31.0891 23.2621 31.0839 23.1195 31.0114C22.5513 30.7062 21.9196 30.5381 21.2749 30.5203C20.6302 30.5026 19.9902 30.6357 19.4061 30.9092C18.822 31.1826 18.3098 31.5887 17.9105 32.0952C17.5112 32.6017 17.2357 33.1945 17.1061 33.8263C17.0656 34.0025 16.9391 34.1477 16.7691 34.2099C16.6837 34.2401 16.5918 34.2474 16.5026 34.231C16.4135 34.2146 16.3302 34.1752 16.2611 34.1166C15.9611 33.8639 15.5956 33.7014 15.2071 33.6481C14.8185 33.5948 14.4228 33.6528 14.0658 33.8153C13.7089 33.9779 13.4053 34.2383 13.1905 34.5664C12.9756 34.8945 12.8582 35.2769 12.8518 35.669C12.8455 36.0612 12.9505 36.4471 13.1547 36.782C13.3589 37.1169 13.6539 37.387 14.0054 37.5609C14.3569 37.7349 14.7506 37.8056 15.1407 37.7648C15.5308 37.7241 15.9013 37.5735 16.2092 37.3306C16.2819 37.2745 16.3682 37.2387 16.4593 37.2268C16.5504 37.215 16.643 37.2275 16.7276 37.2632C16.8126 37.2979 16.8867 37.3546 16.9423 37.4275C16.9979 37.5004 17.033 37.5869 17.0439 37.678C17.1342 38.4597 17.4766 39.1907 18.0191 39.7607C18.5617 40.3307 19.275 40.7086 20.0513 40.8374C20.8276 40.9662 21.6247 40.8389 22.3222 40.4747C23.0198 40.1104 23.5799 39.5291 23.9178 38.8184C23.9595 38.7314 24.025 38.658 24.1066 38.6067C24.1882 38.5553 24.2827 38.5281 24.3792 38.5281C24.476 38.5228 24.5723 38.5467 24.6554 38.5966C24.7386 38.6465 24.8049 38.7201 24.8458 38.8081C25.0836 39.2775 25.4469 39.6719 25.8953 39.9474C26.3437 40.2229 26.8597 40.3687 27.3859 40.3687C27.9122 40.3687 28.4282 40.2229 28.8766 39.9474C29.3249 39.6719 29.6882 39.2775 29.9261 38.8081C29.9699 38.7236 30.0361 38.6527 30.1175 38.6033C30.1989 38.554 30.2923 38.5279 30.3875 38.5281H30.3926C30.5896 38.5281 30.769 38.6411 30.854 38.8184C31.192 39.5291 31.7521 40.1104 32.4496 40.4747C33.1471 40.8389 33.9443 40.9662 34.7206 40.8374C35.4969 40.7086 36.2102 40.3307 36.7527 39.7607C37.2953 39.1907 37.6376 38.4597 37.728 37.678C37.7389 37.5869 37.7739 37.5004 37.8296 37.4275C37.8852 37.3546 37.9593 37.2979 38.0442 37.2632C38.1288 37.2275 38.2214 37.215 38.3125 37.2268C38.4036 37.2387 38.4899 37.2745 38.5626 37.3306C38.9222 37.6172 39.3677 37.7742 39.8275 37.7765C40.3774 37.7765 40.9049 37.558 41.2937 37.1691C41.6826 36.7802 41.9011 36.2528 41.9011 35.7029C41.9011 35.1529 41.6826 34.6255 41.2937 34.2366C40.9049 33.8477 40.3774 33.6293 39.8275 33.6293ZM21.1651 38.8133C21.0276 38.8133 20.8958 38.7586 20.7986 38.6614C20.7014 38.5642 20.6467 38.4323 20.6467 38.2949C20.6467 38.1574 20.7014 38.0255 20.7986 37.9283C20.8958 37.8311 21.0276 37.7765 21.1651 37.7765C21.3026 37.7765 21.4345 37.8311 21.5317 37.9283C21.6289 38.0255 21.6835 38.1574 21.6835 38.2949C21.6835 38.4323 21.6289 38.5642 21.5317 38.6614C21.4345 38.7586 21.3026 38.8133 21.1651 38.8133ZM20.6467 35.7029C20.2347 35.7016 19.8398 35.5374 19.5484 35.246C19.257 34.9546 19.0928 34.5598 19.0915 34.1477C19.0915 34.0102 19.1462 33.8783 19.2434 33.7811C19.3406 33.6839 19.4725 33.6293 19.6099 33.6293C19.7474 33.6293 19.8793 33.6839 19.9765 33.7811C20.0737 33.8783 20.1283 34.0102 20.1283 34.1477C20.1283 34.2852 20.183 34.417 20.2802 34.5142C20.3774 34.6115 20.5092 34.6661 20.6467 34.6661C20.7842 34.6661 20.9161 34.6115 21.0133 34.5142C21.1105 34.417 21.1651 34.2852 21.1651 34.1477C21.1651 34.0102 21.2198 33.8783 21.317 33.7811C21.4142 33.6839 21.546 33.6293 21.6835 33.6293C21.821 33.6293 21.9529 33.6839 22.0501 33.7811C22.1473 33.8783 22.2019 34.0102 22.2019 34.1477C22.2007 34.5598 22.0365 34.9546 21.7451 35.246C21.4537 35.5374 21.0588 35.7016 20.6467 35.7029ZM26.3491 37.7765C25.937 37.7752 25.5422 37.611 25.2508 37.3196C24.9594 37.0282 24.7952 36.6333 24.7939 36.2213C24.7939 36.0838 24.8485 35.9519 24.9458 35.8547C25.043 35.7575 25.1748 35.7029 25.3123 35.7029C25.4498 35.7029 25.5817 35.7575 25.6789 35.8547C25.7761 35.9519 25.8307 36.0838 25.8307 36.2213C25.8307 36.3588 25.8853 36.4906 25.9826 36.5878C26.0798 36.685 26.2116 36.7397 26.3491 36.7397C26.4866 36.7397 26.6185 36.685 26.7157 36.5878C26.8129 36.4906 26.8675 36.3588 26.8675 36.2213C26.8675 36.0838 26.9221 35.9519 27.0194 35.8547C27.1166 35.7575 27.2484 35.7029 27.3859 35.7029C27.5234 35.7029 27.6553 35.7575 27.7525 35.8547C27.8497 35.9519 27.9043 36.0838 27.9043 36.2213C27.9031 36.6333 27.7388 37.0282 27.4475 37.3196C27.1561 37.611 26.7612 37.7752 26.3491 37.7765ZM27.3859 31.0373H27.3652C27.1177 31.0973 26.8916 31.2247 26.712 31.4053C26.6637 31.4533 26.6064 31.4913 26.5433 31.5172C26.4803 31.543 26.4128 31.5562 26.3447 31.556C26.2766 31.5557 26.2092 31.5421 26.1463 31.5158C26.0835 31.4895 26.0265 31.4511 25.9785 31.4027C25.9305 31.3544 25.8925 31.2971 25.8666 31.2341C25.8408 31.1711 25.8276 31.1036 25.8278 31.0354C25.8281 30.9673 25.8417 30.8999 25.868 30.8371C25.8943 30.7743 25.9327 30.7172 25.9811 30.6692C26.2324 30.4267 26.5281 30.2349 26.852 30.1042C27.2035 29.9624 27.597 29.9662 27.9458 30.1145C28.2585 30.2471 28.5448 30.435 28.7908 30.6692C28.993 30.8729 28.993 31.2016 28.7908 31.4053C28.6925 31.5017 28.5604 31.5557 28.4227 31.5557C28.2851 31.5557 28.1529 31.5017 28.0547 31.4053C27.8748 31.2169 27.6413 31.0884 27.3859 31.0373ZM28.9411 34.1477C28.8036 34.1477 28.6718 34.0931 28.5746 33.9958C28.4773 33.8986 28.4227 33.7668 28.4227 33.6293C28.4227 33.4918 28.4773 33.3599 28.5746 33.2627C28.6718 33.1655 28.8036 33.1109 28.9411 33.1109C29.0786 33.1109 29.2105 33.1655 29.3077 33.2627C29.4049 33.3599 29.4595 33.4918 29.4595 33.6293C29.4595 33.7668 29.4049 33.8986 29.3077 33.9958C29.2105 34.0931 29.0786 34.1477 28.9411 34.1477ZM33.6067 38.2949C33.4692 38.2949 33.3374 38.2402 33.2401 38.143C33.1429 38.0458 33.0883 37.9139 33.0883 37.7765C33.0883 37.639 33.1429 37.5071 33.2401 37.4099C33.3374 37.3127 33.4692 37.2581 33.6067 37.2581C33.7442 37.2581 33.8761 37.3127 33.9733 37.4099C34.0705 37.5071 34.1251 37.639 34.1251 37.7765C34.1251 37.9139 34.0705 38.0458 33.9733 38.143C33.8761 38.2402 33.7442 38.2949 33.6067 38.2949ZM33.0883 34.6661C32.6762 34.6648 32.2814 34.5006 31.99 34.2092C31.6986 33.9178 31.5343 33.523 31.5331 33.1109C31.5331 32.9734 31.5877 32.8415 31.6849 32.7443C31.7822 32.6471 31.914 32.5925 32.0515 32.5925C32.189 32.5925 32.3209 32.6471 32.4181 32.7443C32.5153 32.8415 32.5699 32.9734 32.5699 33.1109C32.5699 33.2484 32.6245 33.3802 32.7217 33.4774C32.819 33.5747 32.9508 33.6293 33.0883 33.6293C33.2258 33.6293 33.3577 33.5747 33.4549 33.4774C33.5521 33.3802 33.6067 33.2484 33.6067 33.1109C33.6067 32.9734 33.6613 32.8415 33.7585 32.7443C33.8558 32.6471 33.9876 32.5925 34.1251 32.5925C34.2626 32.5925 34.3945 32.6471 34.4917 32.7443C34.5889 32.8415 34.6435 32.9734 34.6435 33.1109C34.6423 33.523 34.478 33.9178 34.1866 34.2092C33.8953 34.5006 33.5004 34.6648 33.0883 34.6661ZM36.7171 35.7029C36.5796 35.7029 36.4478 35.6482 36.3505 35.551C36.2533 35.4538 36.1987 35.322 36.1987 35.1845C36.1987 35.047 36.2533 34.9151 36.3505 34.8179C36.4478 34.7207 36.5796 34.6661 36.7171 34.6661C36.8546 34.6661 36.9864 34.7207 37.0837 34.8179C37.1809 34.9151 37.2355 35.047 37.2355 35.1845C37.2355 35.322 37.1809 35.4538 37.0837 35.551C36.9864 35.6482 36.8546 35.7029 36.7171 35.7029Z" fill="#F98222" fill-opacity="0.7"/>
<path d="M41.9012 32.0744C42.1875 32.0744 42.4196 31.8423 42.4196 31.556C42.4196 31.2697 42.1875 31.0376 41.9012 31.0376C41.6149 31.0376 41.3828 31.2697 41.3828 31.556C41.3828 31.8423 41.6149 32.0744 41.9012 32.0744Z" fill="#F98222" fill-opacity="0.3"/>
<path d="M15.9813 30.5192C16.2676 30.5192 16.4997 30.2871 16.4997 30.0008C16.4997 29.7145 16.2676 29.4824 15.9813 29.4824C15.695 29.4824 15.4629 29.7145 15.4629 30.0008C15.4629 30.2871 15.695 30.5192 15.9813 30.5192Z" fill="#F98222" fill-opacity="0.3"/>
<path d="M39.3089 31.0373C39.5952 31.0373 39.8273 30.8052 39.8273 30.5189C39.8273 30.2326 39.5952 30.0005 39.3089 30.0005C39.0226 30.0005 38.7905 30.2326 38.7905 30.5189C38.7905 30.8052 39.0226 31.0373 39.3089 31.0373Z" fill="#F98222" fill-opacity="0.3"/>
<path d="M18.055 28.4455C18.3413 28.4455 18.5734 28.2134 18.5734 27.9271C18.5734 27.6408 18.3413 27.4087 18.055 27.4087C17.7687 27.4087 17.5366 27.6408 17.5366 27.9271C17.5366 28.2134 17.7687 28.4455 18.055 28.4455Z" fill="#F98222" fill-opacity="0.3"/>
<path d="M37.282 13.9639C37.1537 13.9437 37.0225 13.9724 36.9143 14.0443C34.3877 16.0767 32.0725 18.3588 30.0041 20.8561C30.1907 19.2231 30.7869 16.4549 32.6842 14.5627C34.6852 12.5565 37.6556 12.007 39.2419 11.8567H39.299C39.3634 11.8547 39.4275 11.8662 39.4873 11.8903C39.5471 11.9144 39.6012 11.9506 39.6463 11.9966C39.6984 12.0491 39.7376 12.1129 39.761 12.183C39.7843 12.2532 39.7912 12.3277 39.7811 12.401C39.6359 13.9873 39.0864 16.9577 37.0802 18.9587C35.1466 20.8923 32.3161 21.473 30.6935 21.644C32.7474 19.1554 35.0469 16.8802 37.5571 14.853C37.6516 14.7639 37.7091 14.6425 37.7184 14.513C37.7276 14.3834 37.6879 14.2551 37.6071 14.1534C37.5263 14.0518 37.4103 13.9841 37.282 13.9639Z" fill="#F98222"/>
<path d="M23.4515 23.1889C21.8082 23.1007 19.014 22.6756 17.0026 20.8923C14.8824 19.0106 14.1566 16.0816 13.913 14.5005C13.9005 14.428 13.9042 14.3537 13.924 14.2829C13.9437 14.2121 13.9789 14.1465 14.027 14.091C14.0741 14.039 14.1318 13.9978 14.1962 13.97C14.2606 13.9423 14.3302 13.9287 14.4003 13.9302H14.421C15.4875 13.9668 16.5466 14.1233 17.5781 14.3968C18.8858 14.7334 20.1 15.3627 21.1291 16.2371C23.1716 18.0463 23.9181 20.8301 24.1876 22.4475C22.1711 20.4984 17.0856 15.8328 16.8523 15.6202C16.7504 15.5275 16.616 15.479 16.4784 15.4851C16.3408 15.4913 16.2113 15.5517 16.1181 15.6531C16.0249 15.7545 15.9756 15.8887 15.9811 16.0263C15.9866 16.1639 16.0463 16.2938 16.1473 16.3875C16.2043 16.4393 21.4194 21.2189 23.4515 23.1889Z" fill="#F98222"/>
<path d="M25.1052 23.3962C25.9664 24.4485 26.6542 25.6315 27.1425 26.9006C26.7895 26.9149 26.4396 26.9724 26.1005 27.0717C25.6634 26.004 25.0713 25.0065 24.3432 24.1116C24.5484 24.0245 24.7325 23.8939 24.8823 23.728C24.9704 23.6269 25.0451 23.5154 25.1052 23.3962Z" fill="#F98222"/>
<path d="M29.382 22.2609C29.5495 22.427 29.7537 22.5513 29.9782 22.6238C29.245 23.9979 28.7291 25.4774 28.4489 27.0095C28.1104 26.9327 27.7646 26.8928 27.4173 26.8902C27.7249 25.167 28.3152 23.5065 29.1643 21.9758C29.2229 22.0807 29.2962 22.1767 29.382 22.2609Z" fill="#F98222"/>
</svg>
