<svg width="31" height="30" viewBox="0 0 31 30" fill="none" xmlns="http://www.w3.org/2000/svg">
<path d="M17.8868 18.0723C16.548 17.8618 15.6069 16.6232 15.7563 15.3104C15.7765 15.1325 15.817 14.9574 15.8768 14.7887C16.0313 14.3428 15.8723 13.8267 15.4898 13.5053C14.6806 12.8069 13.7633 12.2447 12.7737 11.8405C12.5575 11.7491 12.3169 11.7325 12.0902 11.7933C11.8635 11.8541 11.6635 11.9888 11.522 12.1761C11.3343 12.4244 11.0987 12.6325 10.8292 12.7882C10.5596 12.9438 10.2616 13.0439 9.95279 13.0825C9.64393 13.121 9.33048 13.0973 9.03096 13.0127C8.73143 12.928 8.4519 12.7842 8.2089 12.5897C8.05885 12.4692 7.92462 12.3302 7.8094 12.1761C7.668 11.9892 7.46834 11.8547 7.24197 11.7939C7.01559 11.7331 6.77543 11.7496 6.55942 11.8405C5.6459 12.2124 4.79345 12.7194 4.0306 13.3446C3.62884 13.6711 3.46078 14.2058 3.62431 14.6664C4.08039 15.8768 3.46474 17.2954 2.21306 17.8126C1.98999 17.9052 1.75488 17.9656 1.51479 17.992C1.27008 18.021 1.04025 18.1247 0.856504 18.2889C0.67276 18.4531 0.544015 18.6699 0.487757 18.9098C0.258631 19.9271 0.238226 20.9802 0.427776 22.0056C0.476598 22.253 0.602866 22.4785 0.788313 22.6494C0.973759 22.8203 1.20877 22.9278 1.45934 22.9563C2.79872 23.0972 3.79463 24.2809 3.70919 25.5983C3.69195 25.8634 3.62956 26.1237 3.52472 26.3678C3.32667 26.825 3.48002 27.3801 3.88913 27.718C4.6933 28.4051 5.60224 28.9591 6.58149 29.359C6.70306 29.4058 6.83155 29.4322 6.96174 29.437C7.1381 29.4404 7.31244 29.3991 7.46856 29.317C7.62467 29.2348 7.75749 29.1146 7.85467 28.9674C8.06306 28.6543 8.34435 28.3964 8.67437 28.216C9.00439 28.0356 9.37328 27.938 9.74935 27.9316C10.1254 27.9252 10.4974 28.0102 10.8334 28.1793C11.1694 28.3483 11.4593 28.5965 11.6782 28.9023C11.8194 29.1028 12.0264 29.2475 12.2633 29.3112C12.5001 29.375 12.7517 29.3539 12.9746 29.2514C13.8705 28.8549 14.7039 28.3299 15.4485 27.6931C15.8384 27.3637 15.9957 26.8369 15.8304 26.3854C15.3597 25.1818 15.9595 23.7575 17.2055 23.2279C17.4163 23.138 17.6382 23.0769 17.8653 23.0462C18.1065 23.0111 18.3311 22.9029 18.5089 22.7362C18.6867 22.5694 18.809 22.3522 18.8595 22.1137C18.9668 21.6134 19.025 21.1038 19.0332 20.5921C19.0326 20.0527 18.9757 19.5149 18.8634 18.9873C18.8123 18.7539 18.6916 18.5415 18.5172 18.3781C18.3429 18.2148 18.123 18.1081 17.8868 18.0723ZM12.7878 20.5921C12.7879 21.2097 12.6049 21.8134 12.2619 22.327C11.9189 22.8405 11.4312 23.2408 10.8607 23.4772C10.2902 23.7137 9.66234 23.7756 9.05661 23.6552C8.45089 23.5347 7.89447 23.2374 7.45774 22.8007C7.02101 22.3641 6.72357 21.8077 6.60305 21.202C6.48252 20.5963 6.54432 19.9685 6.78063 19.3979C7.01695 18.8273 7.41715 18.3396 7.93064 17.9965C8.44413 17.6534 9.04784 17.4703 9.66542 17.4703C10.4921 17.4746 11.2837 17.8048 11.8683 18.3894C12.4529 18.9739 12.7834 19.7654 12.7878 20.5921Z" fill="#F98222"/>
<path d="M29.5711 19.28C28.8726 19.1701 28.3816 18.5239 28.4596 17.839C28.4701 17.7462 28.4912 17.6549 28.5225 17.5668C28.603 17.3342 28.5201 17.065 28.3205 16.8973C27.8984 16.5329 27.4198 16.2396 26.9035 16.0288C26.7907 15.9811 26.6652 15.9724 26.5469 16.0041C26.4286 16.0358 26.3243 16.1061 26.2505 16.2038C26.1525 16.3334 26.0296 16.4419 25.889 16.5231C25.7484 16.6044 25.5929 16.6566 25.4318 16.6767C25.2707 16.6968 25.1072 16.6844 24.9509 16.6403C24.7946 16.5961 24.6488 16.5211 24.522 16.4196C24.4437 16.3568 24.3737 16.2842 24.3136 16.2038C24.2398 16.1063 24.1357 16.0361 24.0176 16.0044C23.8995 15.9727 23.7742 15.9813 23.6615 16.0288C23.1849 16.2228 22.7401 16.4873 22.3422 16.8134C22.1326 16.9838 22.0449 17.2628 22.1302 17.5031C22.3681 18.1345 22.0469 18.8746 21.3939 19.1444C21.2775 19.1928 21.1549 19.2243 21.0296 19.238C20.902 19.2532 20.7821 19.3073 20.6862 19.3929C20.5903 19.4786 20.5232 19.5917 20.4938 19.7169C20.3743 20.2476 20.3636 20.797 20.4625 21.332C20.488 21.4611 20.5539 21.5787 20.6506 21.6678C20.7474 21.757 20.87 21.8131 21.0007 21.8279C21.6995 21.9015 22.219 22.519 22.1745 23.2063C22.1655 23.3446 22.1329 23.4804 22.0782 23.6078C21.9749 23.8463 22.0549 24.1359 22.2683 24.3122C22.6879 24.6706 23.1621 24.9597 23.673 25.1683C23.7364 25.1927 23.8034 25.2065 23.8714 25.209C23.9634 25.2108 24.0543 25.1892 24.1358 25.1464C24.2172 25.1035 24.2865 25.0408 24.3372 24.964C24.4459 24.8006 24.5927 24.6661 24.7649 24.572C24.937 24.4779 25.1295 24.4269 25.3257 24.4236C25.5219 24.4203 25.716 24.4646 25.8912 24.5528C26.0665 24.641 26.2178 24.7705 26.332 24.93C26.4057 25.0346 26.5137 25.1101 26.6372 25.1434C26.7607 25.1767 26.892 25.1656 27.0083 25.1122C27.4757 24.9053 27.9105 24.6314 28.299 24.2992C28.5024 24.1274 28.5844 23.8525 28.4982 23.6169C28.2526 22.989 28.5656 22.246 29.2156 21.9696C29.3256 21.9228 29.4414 21.8909 29.5598 21.8749C29.6857 21.8566 29.8029 21.8001 29.8956 21.7131C29.9884 21.6261 30.0522 21.5128 30.0785 21.3884C30.1345 21.1273 30.1649 20.8615 30.1692 20.5945C30.1688 20.3131 30.1391 20.0326 30.0806 19.7573C30.0539 19.6355 29.9909 19.5247 29.9 19.4395C29.809 19.3543 29.6943 19.2986 29.5711 19.28ZM26.9109 20.5945C26.9109 20.9167 26.8154 21.2317 26.6365 21.4996C26.4575 21.7676 26.2031 21.9764 25.9055 22.0997C25.6078 22.2231 25.2803 22.2554 24.9643 22.1926C24.6483 22.1297 24.358 21.9746 24.1301 21.7468C23.9023 21.519 23.7471 21.2287 23.6842 20.9127C23.6213 20.5967 23.6536 20.2692 23.7769 19.9715C23.9002 19.6738 24.1089 19.4194 24.3768 19.2404C24.6447 19.0614 24.9597 18.9658 25.2819 18.9658C25.7132 18.9681 26.1262 19.1404 26.4312 19.4453C26.7362 19.7503 26.9086 20.1632 26.9109 20.5945Z" fill="#F98222" fill-opacity="0.7"/>
<path d="M28.8284 5.53448C27.7404 5.36342 26.9757 4.35687 27.0971 3.29008C27.1136 3.1455 27.1464 3.00326 27.1951 2.86613C27.3206 2.50379 27.1914 2.08443 26.8806 1.82325C26.223 1.25573 25.4776 0.798847 24.6734 0.470453C24.4977 0.396171 24.3023 0.382656 24.118 0.43205C23.9338 0.481443 23.7713 0.59092 23.6563 0.743127C23.5037 0.944872 23.3123 1.11399 23.0933 1.2405C22.8743 1.367 22.6321 1.44833 22.3811 1.47966C22.1302 1.511 21.8754 1.49171 21.632 1.42293C21.3886 1.35416 21.1615 1.2373 20.964 1.07926C20.8421 0.981325 20.733 0.868389 20.6394 0.743127C20.5245 0.591225 20.3622 0.481948 20.1783 0.432567C19.9943 0.383185 19.7992 0.396516 19.6236 0.470453C18.8813 0.77263 18.1886 1.18463 17.5687 1.69266C17.2422 1.95798 17.1057 2.39251 17.2385 2.76681C17.6092 3.75037 17.1089 4.90314 16.0917 5.32342C15.9105 5.39867 15.7194 5.44775 15.5243 5.46918C15.3255 5.49278 15.1387 5.57702 14.9894 5.71046C14.8401 5.84389 14.7355 6.02005 14.6898 6.21501C14.5036 7.04165 14.487 7.89747 14.641 8.7307C14.6807 8.93175 14.7833 9.11497 14.934 9.25384C15.0847 9.39272 15.2756 9.48005 15.4793 9.5032C16.5677 9.6177 17.377 10.5796 17.3075 11.6501C17.2935 11.8656 17.2428 12.0771 17.1576 12.2755C16.9967 12.647 17.1213 13.0981 17.4537 13.3726C18.1072 13.931 18.8458 14.3812 19.6416 14.7061C19.7404 14.7441 19.8448 14.7656 19.9506 14.7696C20.0939 14.7723 20.2356 14.7387 20.3624 14.672C20.4893 14.6052 20.5972 14.5075 20.6762 14.3879C20.8455 14.1335 21.0741 13.9239 21.3423 13.7773C21.6105 13.6307 21.9102 13.5514 22.2158 13.5462C22.5214 13.541 22.8237 13.6101 23.0967 13.7475C23.3697 13.8849 23.6053 14.0865 23.7832 14.335C23.898 14.4979 24.0662 14.6155 24.2586 14.6673C24.4511 14.7191 24.6556 14.702 24.8367 14.6187C25.5647 14.2965 26.242 13.8699 26.847 13.3524C27.1638 13.0848 27.2916 12.6567 27.1574 12.2897C26.7748 11.3117 27.2622 10.1543 28.2747 9.72392C28.446 9.65091 28.6264 9.60127 28.8109 9.57632C29.0069 9.54778 29.1894 9.45984 29.3339 9.32434C29.4784 9.18884 29.5778 9.0123 29.6188 8.81853C29.706 8.41196 29.7533 7.99784 29.76 7.58207C29.7595 7.14377 29.7132 6.70672 29.622 6.27801C29.5805 6.08833 29.4824 5.91572 29.3407 5.78297C29.199 5.65021 29.0204 5.56357 28.8284 5.53448ZM24.6849 7.58207C24.685 8.08392 24.5363 8.57452 24.2575 8.99184C23.9788 9.40916 23.5825 9.73444 23.1189 9.92655C22.6553 10.1187 22.1451 10.169 21.6529 10.0711C21.1607 9.97328 20.7085 9.73166 20.3536 9.37683C19.9987 9.022 19.757 8.5699 19.6591 8.0777C19.5612 7.5855 19.6114 7.07531 19.8034 6.61165C19.9954 6.14799 20.3206 5.75169 20.7379 5.47287C21.1552 5.19405 21.6458 5.04523 22.1476 5.04523C22.8194 5.04873 23.4627 5.31711 23.9377 5.79209C24.4128 6.26707 24.6813 6.91029 24.6849 7.58207Z" fill="#F98222" fill-opacity="0.3"/>
</svg>
