<svg width="54" height="53" viewBox="0 0 54 53" fill="none" xmlns="http://www.w3.org/2000/svg">
<rect width="53.5822" height="52.7473" rx="9.48511" fill="white" fill-opacity="0.2"/>
<path d="M29.4439 29.526C28.1051 29.3155 27.1641 28.0768 27.3134 26.764C27.3337 26.5861 27.3741 26.411 27.434 26.2423C27.5885 25.7964 27.4294 25.2803 27.0469 24.9589C26.2377 24.2605 25.3204 23.6983 24.3308 23.2942C24.1146 23.2027 23.8741 23.1861 23.6473 23.2469C23.4206 23.3077 23.2206 23.4424 23.0791 23.6297C22.8914 23.878 22.6558 24.0861 22.3863 24.2418C22.1168 24.3974 21.8188 24.4975 21.5099 24.5361C21.2011 24.5746 20.8876 24.5509 20.5881 24.4663C20.2886 24.3816 20.009 24.2378 19.766 24.0433C19.616 23.9228 19.4818 23.7839 19.3665 23.6297C19.2251 23.4428 19.0255 23.3083 18.7991 23.2475C18.5727 23.1868 18.3326 23.2032 18.1165 23.2942C17.203 23.666 16.3506 24.173 15.5877 24.7982C15.186 25.1247 15.0179 25.6594 15.1814 26.12C15.6375 27.3304 15.0219 28.749 13.7702 29.2662C13.5471 29.3588 13.312 29.4192 13.0719 29.4456C12.8272 29.4746 12.5974 29.5783 12.4136 29.7425C12.2299 29.9067 12.1011 30.1235 12.0449 30.3634C11.8158 31.3807 11.7954 32.4339 11.9849 33.4592C12.0337 33.7066 12.16 33.9321 12.3454 34.103C12.5309 34.2739 12.7659 34.3814 13.0165 34.4099C14.3559 34.5508 15.3518 35.7346 15.2663 37.0519C15.2491 37.317 15.1867 37.5773 15.0818 37.8214C14.8838 38.2787 15.0371 38.8338 15.4463 39.1716C16.2504 39.8587 17.1594 40.4127 18.1386 40.8126C18.2602 40.8594 18.3887 40.8858 18.5189 40.8907C18.6952 40.894 18.8696 40.8527 19.0257 40.7706C19.1818 40.6885 19.3146 40.5682 19.4118 40.421C19.6202 40.1079 19.9015 39.85 20.2315 39.6696C20.5615 39.4892 20.9304 39.3916 21.3065 39.3852C21.6825 39.3788 22.0545 39.4638 22.3905 39.6329C22.7265 39.802 23.0164 40.0501 23.2353 40.3559C23.3766 40.5564 23.5836 40.7011 23.8204 40.7649C24.0572 40.8286 24.3089 40.8075 24.5317 40.7051C25.4276 40.3085 26.261 39.7835 27.0056 39.1467C27.3955 38.8174 27.5528 38.2905 27.3876 37.839C26.9168 36.6354 27.5166 35.2111 28.7626 34.6815C28.9734 34.5916 29.1953 34.5306 29.4224 34.4999C29.6636 34.4647 29.8882 34.3565 30.066 34.1898C30.2438 34.023 30.3662 33.8058 30.4166 33.5673C30.524 33.067 30.5821 32.5574 30.5903 32.0457C30.5897 31.5063 30.5328 30.9685 30.4206 30.4409C30.3695 30.2075 30.2487 29.9951 30.0744 29.8317C29.9 29.6684 29.6802 29.5618 29.4439 29.526ZM24.345 32.0457C24.3451 32.6633 24.162 33.267 23.819 33.7806C23.476 34.2941 22.9884 34.6944 22.4178 34.9309C21.8473 35.1673 21.2195 35.2292 20.6137 35.1088C20.008 34.9884 19.4516 34.691 19.0149 34.2544C18.5781 33.8177 18.2807 33.2613 18.1602 32.6556C18.0397 32.0499 18.1015 31.4221 18.3378 30.8515C18.5741 30.2809 18.9743 29.7933 19.4878 29.4501C20.0013 29.107 20.605 28.9239 21.2225 28.9239C22.0492 28.9282 22.8408 29.2585 23.4255 29.843C24.0101 30.4275 24.3405 31.219 24.345 32.0457Z" fill="white"/>
<path d="M41.1282 30.7336C40.4297 30.6237 39.9388 29.9775 40.0167 29.2926C40.0272 29.1998 40.0483 29.1085 40.0796 29.0204C40.1602 28.7878 40.0772 28.5186 39.8777 28.3509C39.4555 27.9865 38.9769 27.6932 38.4606 27.4824C38.3478 27.4347 38.2223 27.426 38.104 27.4577C37.9858 27.4894 37.8814 27.5597 37.8076 27.6574C37.7097 27.787 37.5868 27.8955 37.4462 27.9768C37.3055 28.058 37.1501 28.1102 36.9889 28.1303C36.8278 28.1504 36.6643 28.138 36.508 28.0939C36.3517 28.0497 36.2059 27.9747 36.0791 27.8732C36.0009 27.8104 35.9308 27.7379 35.8707 27.6574C35.7969 27.5599 35.6928 27.4898 35.5747 27.4581C35.4566 27.4264 35.3313 27.4349 35.2186 27.4824C34.742 27.6764 34.2973 27.9409 33.8993 28.2671C33.6897 28.4374 33.602 28.7164 33.6873 28.9567C33.9253 29.5881 33.6041 30.3282 32.9511 30.5981C32.8347 30.6464 32.712 30.6779 32.5868 30.6916C32.4591 30.7068 32.3392 30.7609 32.2433 30.8465C32.1475 30.9322 32.0803 31.0453 32.0509 31.1705C31.9314 31.7012 31.9208 32.2506 32.0197 32.7856C32.0451 32.9147 32.111 33.0323 32.2078 33.1215C32.3045 33.2106 32.4271 33.2667 32.5578 33.2816C33.2566 33.3551 33.7762 33.9727 33.7316 34.6599C33.7226 34.7982 33.6901 34.934 33.6354 35.0614C33.532 35.2999 33.612 35.5895 33.8255 35.7658C34.245 36.1243 34.7192 36.4133 35.2301 36.6219C35.2935 36.6463 35.3606 36.6601 35.4285 36.6626C35.5205 36.6644 35.6115 36.6428 35.6929 36.6C35.7743 36.5571 35.8436 36.4944 35.8943 36.4176C36.0031 36.2543 36.1498 36.1197 36.322 36.0256C36.4942 35.9315 36.6866 35.8806 36.8828 35.8772C37.079 35.8739 37.2731 35.9182 37.4484 36.0064C37.6236 36.0947 37.7749 36.2241 37.8891 36.3837C37.9628 36.4883 38.0708 36.5637 38.1943 36.597C38.3179 36.6303 38.4492 36.6192 38.5654 36.5658C39.0329 36.3589 39.4677 36.085 39.8561 35.7528C40.0595 35.581 40.1416 35.3061 40.0554 35.0706C39.8098 34.4426 40.1227 33.6996 40.7727 33.4233C40.8827 33.3764 40.9985 33.3445 41.117 33.3285C41.2428 33.3102 41.36 33.2537 41.4527 33.1667C41.5455 33.0797 41.6093 32.9664 41.6357 32.842C41.6917 32.581 41.722 32.3151 41.7263 32.0482C41.726 31.7668 41.6963 31.4862 41.6377 31.2109C41.6111 31.0892 41.5481 30.9783 41.4571 30.8931C41.3661 30.8079 41.2514 30.7522 41.1282 30.7336ZM38.468 32.0482C38.4681 32.3703 38.3726 32.6853 38.1936 32.9533C38.0147 33.2212 37.7603 33.43 37.4626 33.5534C37.165 33.6767 36.8374 33.709 36.5214 33.6462C36.2054 33.5834 35.9151 33.4282 35.6873 33.2004C35.4594 32.9726 35.3042 32.6824 35.2414 32.3664C35.1785 32.0504 35.2107 31.7228 35.334 31.4251C35.4573 31.1275 35.6661 30.873 35.934 30.694C36.2019 30.515 36.5168 30.4195 36.839 30.4195C37.2703 30.4217 37.6833 30.594 37.9883 30.899C38.2933 31.2039 38.4657 31.6169 38.468 32.0482Z" fill="white" fill-opacity="0.7"/>
<path d="M40.3855 16.9881C39.2976 16.817 38.5329 15.8105 38.6543 14.7437C38.6707 14.5991 38.7036 14.4569 38.7522 14.3197C38.8777 13.9574 38.7485 13.538 38.4377 13.2769C37.7801 12.7093 37.0347 12.2525 36.2305 11.9241C36.0548 11.8498 35.8594 11.8363 35.6751 11.8857C35.4909 11.9351 35.3284 12.0445 35.2134 12.1967C35.0609 12.3985 34.8694 12.5676 34.6504 12.6941C34.4314 12.8206 34.1892 12.9019 33.9383 12.9333C33.6873 12.9646 33.4326 12.9453 33.1892 12.8765C32.9458 12.8078 32.7186 12.6909 32.5212 12.5329C32.3992 12.4349 32.2902 12.322 32.1965 12.1967C32.0816 12.0448 31.9194 11.9356 31.7354 11.8862C31.5515 11.8368 31.3563 11.8501 31.1808 11.9241C30.4384 12.2262 29.7457 12.6382 29.1258 13.1463C28.7994 13.4116 28.6628 13.8461 28.7957 14.2204C29.1663 15.204 28.666 16.3568 27.6489 16.777C27.4676 16.8523 27.2766 16.9014 27.0815 16.9228C26.8826 16.9464 26.6958 17.0306 26.5465 17.1641C26.3972 17.2975 26.2926 17.4737 26.2469 17.6686C26.0607 18.4953 26.0441 19.3511 26.1981 20.1843C26.2378 20.3854 26.3404 20.5686 26.4911 20.7075C26.6418 20.8463 26.8328 20.9337 27.0364 20.9568C28.1248 21.0713 28.9341 22.0333 28.8646 23.1037C28.8506 23.3192 28.7999 23.5307 28.7147 23.7291C28.5538 24.1006 28.6784 24.5517 29.0109 24.8262C29.6643 25.3846 30.403 25.8348 31.1987 26.1597C31.2975 26.1978 31.4019 26.2192 31.5077 26.2232C31.651 26.2259 31.7927 26.1923 31.9195 26.1256C32.0464 26.0589 32.1543 25.9611 32.2333 25.8415C32.4026 25.5871 32.6312 25.3775 32.8994 25.2309C33.1676 25.0843 33.4673 25.005 33.7729 24.9998C34.0785 24.9946 34.3808 25.0637 34.6538 25.2011C34.9269 25.3385 35.1624 25.5401 35.3403 25.7886C35.4551 25.9515 35.6233 26.0691 35.8158 26.1209C36.0082 26.1728 36.2127 26.1556 36.3938 26.0723C37.1218 25.7501 37.7991 25.3235 38.4041 24.806C38.7209 24.5384 38.8488 24.1103 38.7145 23.7433C38.3319 22.7653 38.8193 21.6079 39.8319 21.1775C40.0032 21.1045 40.1835 21.0549 40.368 21.0299C40.564 21.0014 40.7466 20.9135 40.891 20.778C41.0355 20.6425 41.1349 20.4659 41.1759 20.2721C41.2632 19.8656 41.3104 19.4514 41.3171 19.0357C41.3166 18.5974 41.2704 18.1603 41.1792 17.7316C41.1376 17.5419 41.0395 17.3693 40.8978 17.2366C40.7561 17.1038 40.5775 17.0172 40.3855 16.9881ZM36.242 19.0357C36.2421 19.5375 36.0934 20.0281 35.8147 20.4455C35.5359 20.8628 35.1397 21.1881 34.676 21.3802C34.2124 21.5723 33.7022 21.6226 33.21 21.5247C32.7178 21.4269 32.2657 21.1853 31.9108 20.8304C31.5559 20.4756 31.3142 20.0235 31.2162 19.5313C31.1183 19.0391 31.1685 18.5289 31.3605 18.0653C31.5526 17.6016 31.8778 17.2053 32.295 16.9265C32.7123 16.6477 33.2029 16.4988 33.7047 16.4988C34.3765 16.5023 35.0198 16.7707 35.4949 17.2457C35.9699 17.7207 36.2384 18.3639 36.242 19.0357Z" fill="white" fill-opacity="0.3"/>
</svg>
