<svg width="31" height="30" viewBox="0 0 31 30" fill="none" xmlns="http://www.w3.org/2000/svg">
<path d="M17.8863 18.526C16.5475 18.3155 15.6064 17.0768 15.7558 15.764C15.776 15.5861 15.8165 15.411 15.8764 15.2423C16.0308 14.7964 15.8718 14.2803 15.4893 13.9589C14.6801 13.2605 13.7628 12.6983 12.7732 12.2942C12.557 12.2027 12.3164 12.1861 12.0897 12.2469C11.863 12.3077 11.663 12.4424 11.5215 12.6297C11.3338 12.878 11.0982 13.0861 10.8287 13.2418C10.5591 13.3974 10.2612 13.4975 9.9523 13.5361C9.64345 13.5746 9.32999 13.5509 9.03047 13.4663C8.73094 13.3816 8.45142 13.2378 8.20841 13.0433C8.05836 12.9228 7.92414 12.7839 7.80891 12.6297C7.66751 12.4428 7.46785 12.3083 7.24148 12.2475C7.01511 12.1868 6.77494 12.2032 6.55893 12.2942C5.64542 12.666 4.79296 13.173 4.03011 13.7982C3.62835 14.1247 3.46029 14.6594 3.62382 15.12C4.07991 16.3304 3.46425 17.749 2.21257 18.2662C1.9895 18.3588 1.75439 18.4192 1.5143 18.4456C1.2696 18.4746 1.03976 18.5783 0.856016 18.7425C0.672272 18.9067 0.543527 19.1235 0.487269 19.3634C0.258143 20.3807 0.237738 21.4339 0.427288 22.4592C0.47611 22.7066 0.602378 22.9321 0.787824 23.103C0.973271 23.2739 1.20828 23.3814 1.45885 23.4099C2.79824 23.5508 3.79415 24.7346 3.7087 26.0519C3.69146 26.317 3.62908 26.5773 3.52423 26.8214C3.32618 27.2787 3.47953 27.8338 3.88864 28.1716C4.69281 28.8587 5.60175 29.4127 6.581 29.8126C6.70258 29.8594 6.83106 29.8858 6.96126 29.8907C7.13762 29.894 7.31196 29.8527 7.46807 29.7706C7.62418 29.6885 7.757 29.5682 7.85418 29.421C8.06257 29.1079 8.34386 28.85 8.67388 28.6696C9.0039 28.4892 9.37279 28.3916 9.74886 28.3852C10.1249 28.3788 10.4969 28.4638 10.8329 28.6329C11.1689 28.802 11.4588 29.0501 11.6777 29.3559C11.819 29.5564 12.026 29.7011 12.2628 29.7649C12.4996 29.8286 12.7512 29.8075 12.9741 29.7051C13.87 29.3085 14.7034 28.7835 15.448 28.1467C15.8379 27.8174 15.9952 27.2905 15.83 26.839C15.3592 25.6354 15.959 24.2111 17.205 23.6815C17.4158 23.5916 17.6377 23.5306 17.8648 23.4999C18.106 23.4647 18.3306 23.3565 18.5084 23.1898C18.6862 23.023 18.8085 22.8058 18.859 22.5673C18.9663 22.067 19.0245 21.5574 19.0327 21.0457C19.0321 20.5063 18.9752 19.9685 18.863 19.4409C18.8118 19.2075 18.6911 18.9951 18.5167 18.8317C18.3424 18.6684 18.1225 18.5618 17.8863 18.526ZM12.7873 21.0457C12.7874 21.6633 12.6044 22.267 12.2614 22.7806C11.9184 23.2941 11.4308 23.6944 10.8602 23.9309C10.2897 24.1673 9.66185 24.2292 9.05612 24.1088C8.4504 23.9884 7.89399 23.691 7.45725 23.2544C7.02052 22.8177 6.72308 22.2613 6.60256 21.6556C6.48203 21.0499 6.54384 20.4221 6.78015 19.8515C7.01646 19.2809 7.41666 18.7933 7.93015 18.4501C8.44364 18.107 9.04735 17.9239 9.66493 17.9239C10.4916 17.9282 11.2832 18.2585 11.8678 18.843C12.4525 19.4275 12.7829 20.219 12.7873 21.0457Z" fill="#F98222"/>
<path d="M29.5701 19.7336C28.8716 19.6237 28.3807 18.9775 28.4586 18.2926C28.4691 18.1998 28.4902 18.1085 28.5215 18.0204C28.6021 17.7878 28.5191 17.5186 28.3195 17.3509C27.8974 16.9865 27.4188 16.6932 26.9025 16.4824C26.7897 16.4347 26.6642 16.426 26.5459 16.4577C26.4277 16.4894 26.3233 16.5597 26.2495 16.6574C26.1516 16.787 26.0287 16.8955 25.8881 16.9768C25.7474 17.058 25.592 17.1102 25.4308 17.1303C25.2697 17.1504 25.1062 17.138 24.9499 17.0939C24.7936 17.0497 24.6478 16.9747 24.521 16.8732C24.4428 16.8104 24.3727 16.7379 24.3126 16.6574C24.2388 16.5599 24.1347 16.4898 24.0166 16.4581C23.8985 16.4264 23.7732 16.4349 23.6605 16.4824C23.1839 16.6764 22.7392 16.9409 22.3412 17.2671C22.1316 17.4374 22.0439 17.7164 22.1292 17.9567C22.3672 18.5881 22.046 19.3282 21.3929 19.5981C21.2766 19.6464 21.1539 19.6779 21.0287 19.6916C20.901 19.7068 20.7811 19.7609 20.6852 19.8465C20.5894 19.9322 20.5222 20.0453 20.4928 20.1705C20.3733 20.7012 20.3627 21.2506 20.4615 21.7856C20.487 21.9147 20.5529 22.0323 20.6496 22.1215C20.7464 22.2106 20.869 22.2667 20.9997 22.2816C21.6985 22.3551 22.2181 22.9727 22.1735 23.6599C22.1645 23.7982 22.132 23.934 22.0773 24.0614C21.9739 24.2999 22.0539 24.5895 22.2674 24.7658C22.6869 25.1243 23.1611 25.4133 23.672 25.6219C23.7354 25.6463 23.8025 25.6601 23.8704 25.6626C23.9624 25.6644 24.0533 25.6428 24.1348 25.6C24.2162 25.5571 24.2855 25.4944 24.3362 25.4176C24.4449 25.2543 24.5917 25.1197 24.7639 25.0256C24.9361 24.9315 25.1285 24.8806 25.3247 24.8772C25.5209 24.8739 25.715 24.9182 25.8903 25.0064C26.0655 25.0947 26.2168 25.2241 26.331 25.3837C26.4047 25.4883 26.5127 25.5637 26.6362 25.597C26.7598 25.6303 26.8911 25.6192 27.0073 25.5658C27.4748 25.3589 27.9095 25.085 28.298 24.7528C28.5014 24.581 28.5835 24.3061 28.4973 24.0706C28.2516 23.4426 28.5646 22.6996 29.2146 22.4233C29.3246 22.3764 29.4404 22.3445 29.5589 22.3285C29.6847 22.3102 29.8019 22.2537 29.8946 22.1667C29.9874 22.0797 30.0512 21.9664 30.0775 21.842C30.1335 21.581 30.1639 21.3151 30.1682 21.0482C30.1678 20.7668 30.1382 20.4862 30.0796 20.2109C30.0529 20.0892 29.99 19.9783 29.899 19.8931C29.808 19.8079 29.6933 19.7522 29.5701 19.7336ZM26.9099 21.0482C26.91 21.3703 26.8145 21.6853 26.6355 21.9533C26.4566 22.2212 26.2022 22.43 25.9045 22.5534C25.6069 22.6767 25.2793 22.709 24.9633 22.6462C24.6473 22.5834 24.357 22.4282 24.1291 22.2004C23.9013 21.9726 23.7461 21.6824 23.6832 21.3664C23.6204 21.0504 23.6526 20.7228 23.7759 20.4251C23.8992 20.1275 24.108 19.873 24.3759 19.694C24.6438 19.515 24.9587 19.4195 25.2809 19.4195C25.7122 19.4217 26.1252 19.594 26.4302 19.899C26.7352 20.2039 26.9076 20.6169 26.9099 21.0482Z" fill="#F98222" fill-opacity="0.7"/>
<path d="M28.8279 5.98809C27.7399 5.81704 26.9753 4.81049 27.0967 3.7437C27.1131 3.59911 27.1459 3.45688 27.1946 3.31974C27.3201 2.9574 27.1909 2.53804 26.8801 2.27686C26.2225 1.70935 25.4771 1.25246 24.6729 0.924066C24.4972 0.849784 24.3018 0.836269 24.1175 0.885663C23.9333 0.935057 23.7708 1.04453 23.6558 1.19674C23.5033 1.39848 23.3118 1.56761 23.0928 1.69411C22.8738 1.82062 22.6316 1.90194 22.3806 1.93327C22.1297 1.96461 21.875 1.94532 21.6316 1.87655C21.3882 1.80778 21.161 1.69091 20.9635 1.53287C20.8416 1.43494 20.7325 1.322 20.6389 1.19674C20.524 1.04484 20.3618 0.935561 20.1778 0.88618C19.9938 0.836799 19.7987 0.85013 19.6232 0.924066C18.8808 1.22624 18.1881 1.63824 17.5682 2.14627C17.2417 2.41159 17.1052 2.84612 17.2381 3.22042C17.6087 4.20398 17.1084 5.35675 16.0913 5.77703C15.91 5.85228 15.7189 5.90136 15.5238 5.92279C15.325 5.9464 15.1382 6.03064 14.9889 6.16407C14.8396 6.29751 14.735 6.47367 14.6893 6.66863C14.5031 7.49527 14.4865 8.35108 14.6405 9.18431C14.6802 9.38537 14.7828 9.56858 14.9335 9.70746C15.0842 9.84633 15.2752 9.93366 15.4788 9.95682C16.5672 10.0713 17.3765 11.0333 17.307 12.1037C17.293 12.3192 17.2423 12.5307 17.1571 12.7291C16.9962 13.1006 17.1208 13.5517 17.4533 13.8262C18.1067 14.3846 18.8453 14.8348 19.6411 15.1597C19.7399 15.1978 19.8443 15.2192 19.9501 15.2232C20.0934 15.2259 20.2351 15.1923 20.3619 15.1256C20.4888 15.0589 20.5967 14.9611 20.6757 14.8415C20.845 14.5871 21.0736 14.3775 21.3418 14.2309C21.61 14.0843 21.9097 14.005 22.2153 13.9998C22.5209 13.9946 22.8232 14.0637 23.0962 14.2011C23.3692 14.3385 23.6048 14.5401 23.7827 14.7886C23.8975 14.9515 24.0657 15.0691 24.2581 15.1209C24.4506 15.1728 24.6551 15.1556 24.8362 15.0723C25.5642 14.7501 26.2415 14.3235 26.8465 13.806C27.1633 13.5384 27.2912 13.1103 27.1569 12.7433C26.7743 11.7653 27.2617 10.6079 28.2743 10.1775C28.4456 10.1045 28.6259 10.0549 28.8104 10.0299C29.0064 10.0014 29.1889 9.91345 29.3334 9.77795C29.4779 9.64245 29.5773 9.46591 29.6183 9.27214C29.7055 8.86557 29.7528 8.45145 29.7595 8.03568C29.759 7.59738 29.7127 7.16033 29.6215 6.73162C29.58 6.54195 29.4819 6.36933 29.3402 6.23658C29.1985 6.10383 29.0199 6.01718 28.8279 5.98809ZM24.6844 8.03568C24.6845 8.53753 24.5358 9.02814 24.257 9.44545C23.9783 9.86277 23.582 10.1881 23.1184 10.3802C22.6548 10.5723 22.1446 10.6226 21.6524 10.5247C21.1602 10.4269 20.708 10.1853 20.3531 9.83044C19.9982 9.47561 19.7565 9.02351 19.6586 8.53131C19.5607 8.03911 19.6109 7.52892 19.8029 7.06526C19.9949 6.6016 20.3202 6.20531 20.7374 5.92648C21.1547 5.64766 21.6453 5.49884 22.1471 5.49884C22.8189 5.50234 23.4622 5.77072 23.9372 6.2457C24.4123 6.72068 24.6808 7.36391 24.6844 8.03568Z" fill="#F98222" fill-opacity="0.3"/>
</svg>
