<svg width="30" height="30" viewBox="0 0 30 30" fill="none" xmlns="http://www.w3.org/2000/svg">
<path opacity="0.7" d="M15.1449 20.1945C9.09279 20.1945 6.52426 12.4448 11.3584 8.83494V5.90039C10.1299 6.48719 9.05355 7.34996 8.2135 8.42138C7.37344 9.49279 6.79235 10.7439 6.5156 12.0769C6.23885 13.41 6.27392 14.7889 6.61807 16.1062C6.96222 17.4235 7.60614 18.6434 8.49956 19.6707C8.35441 19.7654 8.6384 19.5003 6.80825 21.3242L5.91842 20.4343L0.55418 25.7986C0.289739 26.0633 0.109691 26.4005 0.0367767 26.7676C-0.0361376 27.1346 0.00135239 27.515 0.144512 27.8608C0.287671 28.2065 0.530078 28.5021 0.841117 28.7101C1.15216 28.9182 1.51788 29.0294 1.89208 29.0297C2.93969 29.0297 2.77561 28.9288 8.59423 23.1101L7.7044 22.2203L9.28211 20.6426C9.45882 20.4596 9.1559 20.4406 9.8564 20.9581C10.9038 21.7379 12.111 22.2758 13.3911 22.5331C14.6713 22.7905 15.9926 22.7609 17.2599 22.4465C18.5273 22.132 19.7092 21.5406 20.7206 20.7147C21.732 19.8889 22.5478 18.8491 23.1092 17.6702H20.1936C19.6085 18.4569 18.8468 19.0952 17.9699 19.5336C17.093 19.9721 16.1253 20.1985 15.1449 20.1945Z" fill="#F98222"/>
<path opacity="0.4" d="M16.9942 9.46575C17.354 9.46575 17.4612 9.62353 18.1302 10.2925C19.0705 8.39922 19.0516 8.25407 19.506 8.20358C19.9603 8.15309 20.1055 8.5065 20.8249 9.46575V6.94141H15.7762V10.7279C16.4894 9.77499 16.6093 9.46575 16.9942 9.46575ZM20.8249 11.5673L19.67 10.0274L18.8623 11.643C18.8175 11.7323 18.7522 11.8097 18.6717 11.8688C18.5912 11.9279 18.4979 11.9671 18.3993 11.9831C18.3008 11.9991 18.1998 11.9915 18.1047 11.9609C18.0097 11.9303 17.9232 11.8776 17.8525 11.8071L17.1078 11.0561C15.5617 13.1197 15.7762 12.6906 15.7762 13.2523H20.8249V11.5673Z" fill="#F98222"/>
<path d="M12.6211 15.1457C12.6211 15.4804 12.7541 15.8015 12.9908 16.0382C13.2275 16.2749 13.5485 16.4079 13.8833 16.4079H27.7672C28.1019 16.4079 28.423 16.2749 28.6597 16.0382C28.8964 15.8015 29.0294 15.4804 29.0294 15.1457V3.78613H12.6211V15.1457ZM23.9807 6.31048H26.505C26.6724 6.31048 26.8329 6.37697 26.9513 6.49532C27.0696 6.61367 27.1361 6.77419 27.1361 6.94157C27.1361 7.10894 27.0696 7.26946 26.9513 7.38781C26.8329 7.50617 26.6724 7.57265 26.505 7.57265H23.9807C23.8133 7.57265 23.6528 7.50617 23.5344 7.38781C23.4161 7.26946 23.3496 7.10894 23.3496 6.94157C23.3496 6.77419 23.4161 6.61367 23.5344 6.49532C23.6528 6.37697 23.8133 6.31048 23.9807 6.31048ZM23.9807 8.83483H26.505C26.6724 8.83483 26.8329 8.90132 26.9513 9.01967C27.0696 9.13802 27.1361 9.29854 27.1361 9.46592C27.1361 9.63329 27.0696 9.79381 26.9513 9.91216C26.8329 10.0305 26.6724 10.097 26.505 10.097H23.9807C23.8133 10.097 23.6528 10.0305 23.5344 9.91216C23.4161 9.79381 23.3496 9.63329 23.3496 9.46592C23.3496 9.29854 23.4161 9.13802 23.5344 9.01967C23.6528 8.90132 23.8133 8.83483 23.9807 8.83483ZM14.5144 6.31048C14.5144 6.14311 14.5808 5.98259 14.6992 5.86424C14.8175 5.74588 14.9781 5.67939 15.1454 5.67939H21.4563C21.6237 5.67939 21.7842 5.74588 21.9026 5.86424C22.0209 5.98259 22.0874 6.14311 22.0874 6.31048V13.8835C22.0874 14.0509 22.0209 14.2114 21.9026 14.3298C21.7842 14.4481 21.6237 14.5146 21.4563 14.5146H15.1454C14.9781 14.5146 14.8175 14.4481 14.6992 14.3298C14.5808 14.2114 14.5144 14.0509 14.5144 13.8835V6.31048Z" fill="#F98222"/>
<path opacity="0.7" fill-rule="evenodd" clip-rule="evenodd" d="M27.7672 0H13.8833C13.5485 0 13.2275 0.132979 12.9908 0.369682C12.7541 0.606386 12.6211 0.927425 12.6211 1.26217V2.52435H29.0294V1.26217C29.0294 0.927425 28.8964 0.606386 28.6597 0.369682C28.423 0.132979 28.1019 0 27.7672 0ZM15.1451 1.89269C14.9777 1.89269 14.8172 1.8262 14.6988 1.70784C14.5805 1.58949 14.514 1.42897 14.514 1.2616C14.514 1.09422 14.5805 0.933704 14.6988 0.815353C14.8172 0.697001 14.9777 0.630512 15.1451 0.630512C15.3124 0.630512 15.473 0.697001 15.5913 0.815353C15.7097 0.933704 15.7762 1.09422 15.7762 1.2616C15.7762 1.42897 15.7097 1.58949 15.5913 1.70784C15.473 1.8262 15.3124 1.89269 15.1451 1.89269ZM19.7473 1.70784C19.8657 1.8262 20.0262 1.89269 20.1936 1.89269C20.3609 1.89269 20.5215 1.8262 20.6398 1.70784C20.7582 1.58949 20.8247 1.42897 20.8247 1.2616C20.8247 1.09422 20.7582 0.933704 20.6398 0.815353C20.5215 0.697001 20.3609 0.630512 20.1936 0.630512C20.0262 0.630512 19.8657 0.697001 19.7473 0.815353C19.629 0.933704 19.5625 1.09422 19.5625 1.2616C19.5625 1.42897 19.629 1.58949 19.7473 1.70784ZM17.6701 1.89269C17.5027 1.89269 17.3422 1.8262 17.2238 1.70784C17.1055 1.58949 17.039 1.42897 17.039 1.2616C17.039 1.09422 17.1055 0.933704 17.2238 0.815353C17.3422 0.697001 17.5027 0.630512 17.6701 0.630512C17.8374 0.630512 17.9979 0.697001 18.1163 0.815353C18.2346 0.933704 18.3011 1.09422 18.3011 1.2616C18.3011 1.42897 18.2346 1.58949 18.1163 1.70784C17.9979 1.8262 17.8374 1.89269 17.6701 1.89269Z" fill="#F98222"/>
</svg>
