<svg width="33" height="30" viewBox="0 0 33 30" fill="none" xmlns="http://www.w3.org/2000/svg">
<path d="M22.935 13.4716C23.5103 13.4716 23.9785 13.0034 23.9785 12.4282V8.82271C23.9785 8.2473 23.5103 7.7793 22.935 7.7793H9.73189C9.15662 7.7793 8.68848 8.2473 8.68848 8.82271V12.4283C8.68848 13.0036 9.15662 13.4717 9.73189 13.4717L22.935 13.4716ZM22.935 29.0301C23.5103 29.0301 23.9785 28.5621 23.9785 27.9866V24.381C23.9785 23.8056 23.5103 23.3376 22.935 23.3376H9.73189C9.15662 23.3376 8.68848 23.8056 8.68848 24.381V27.9866C8.68848 28.5621 9.15662 29.0301 9.73189 29.0301H22.935Z" fill="#F98222"/>
<path opacity="0.4" d="M32.5908 27.9864C32.5908 28.5618 32.1228 29.0298 31.5474 29.0298H27.1088C26.5334 29.0298 26.0654 28.5618 26.0654 27.9864V24.3808C26.0654 23.8054 26.5334 23.3374 27.1088 23.3374H31.5474C32.1228 23.3374 32.5908 23.8054 32.5908 24.3808V27.9864Z" fill="#F98222"/>
<path opacity="0.4" d="M6.60151 27.9864C6.60151 28.5618 6.13351 29.0298 5.5581 29.0298H1.11958C0.544176 29.0298 0.0761719 28.5618 0.0761719 27.9864V24.3808C0.0761719 23.8054 0.544176 23.3374 1.11958 23.3374H5.5581C6.13351 23.3374 6.60151 23.8054 6.60151 24.3808V27.9864Z" fill="#F98222"/>
<path opacity="0.4" d="M6.60151 12.4282C6.60151 13.0036 6.13351 13.4716 5.5581 13.4716L1.11958 13.4717C0.544176 13.4717 0.0761719 13.0037 0.0761719 12.4283V8.82271C0.0761719 8.2473 0.544176 7.7793 1.11958 7.7793H5.5581C6.13351 7.7793 6.60151 8.2473 6.60151 8.82271V12.4282Z" fill="#F98222"/>
<path opacity="0.4" d="M32.5908 12.4282C32.5908 13.0036 32.1228 13.4716 31.5474 13.4716L27.1088 13.4717C26.5334 13.4717 26.0654 13.0037 26.0654 12.4283V8.82271C26.0654 8.2473 26.5334 7.7793 27.1088 7.7793H31.5474C32.1228 7.7793 32.5908 8.2473 32.5908 8.82271V12.4282Z" fill="#F98222"/>
<g opacity="0.7">
<path d="M15.29 20.2071C15.29 20.7825 14.8218 21.2505 14.2466 21.2505H1.04341C0.468143 21.2505 0 20.7825 0 20.2071V16.6015C0 16.0262 0.468143 15.5581 1.04341 15.5581H14.2466C14.8218 15.5581 15.29 16.0262 15.29 16.6015V20.2071Z" fill="#F98222"/>
<path d="M32.6669 20.2071C32.6669 20.7825 32.1988 21.2505 31.6235 21.2505H18.4203C17.8451 21.2505 17.3769 20.7825 17.3769 20.2071V16.6015C17.3769 16.0262 17.8451 15.5581 18.4203 15.5581H31.6235C32.1988 15.5581 32.6669 16.0262 32.6669 16.6015V20.2071Z" fill="#F98222"/>
</g>
<g opacity="0.7">
<path d="M0 4.64901C0 5.22442 0.468143 5.69242 1.04341 5.69242H14.2466C14.8218 5.69242 15.29 5.22442 15.29 4.64901V1.04341C15.29 0.468004 14.8218 0 14.2466 0H1.04341C0.468143 0 0 0.468004 0 1.04341V4.64901Z" fill="#F98222"/>
<path d="M32.6669 4.64901C32.6669 5.22442 32.1988 5.69242 31.6235 5.69242H18.4203C17.8451 5.69242 17.3769 5.22442 17.3769 4.64901V1.04341C17.3769 0.468004 17.8451 0 18.4203 0H31.6235C32.1988 0 32.6669 0.468004 32.6669 1.04341V4.64901Z" fill="#F98222"/>
</g>
</svg>
