<svg width="25" height="30" viewBox="0 0 25 30" fill="none" xmlns="http://www.w3.org/2000/svg">
<g opacity="0.4">
<path fill-rule="evenodd" clip-rule="evenodd" d="M19.666 0.370847C19.666 0.575932 19.8323 0.742188 20.0374 0.742188H23.9292C24.1343 0.742188 24.3005 0.575932 24.3005 0.370847C24.3005 0.165761 24.1343 -0.000494491 23.9292 -0.000494491H20.0374C19.8323 -0.000494491 19.666 0.165761 19.666 0.370847Z" fill="white"/>
<path fill-rule="evenodd" clip-rule="evenodd" d="M3.46509 24.0825C3.67018 24.0825 3.83643 23.9163 3.83643 23.7112V13.2555L15.9208 1.17115L15.9209 1.17113C16.0568 1.03518 16.2182 0.927338 16.3958 0.853762C16.5734 0.780187 16.7638 0.74232 16.9561 0.742326H19.6659V7.76738C19.6659 7.97247 19.8322 8.13872 20.0373 8.13872C20.2424 8.13872 20.4086 7.97247 20.4086 7.76738V0.370985C20.4086 0.165897 20.2424 -0.000356191 20.0373 -0.000356191H16.9561C16.6663 -0.00036419 16.3793 0.0567139 16.1116 0.167617C15.8438 0.27852 15.6006 0.441078 15.3957 0.645989L3.20251 12.8391C3.13287 12.9087 3.09375 13.0032 3.09375 13.1017V23.7112C3.09375 23.9163 3.26001 24.0825 3.46509 24.0825Z" fill="white"/>
<path fill-rule="evenodd" clip-rule="evenodd" d="M13.8962 13.4536C14.1013 13.4536 14.2676 13.2874 14.2676 13.0823V2.67089C14.2676 2.4658 14.1013 2.29955 13.8962 2.29955C13.6912 2.29955 13.5249 2.4658 13.5249 2.67089V13.0823C13.5249 13.2874 13.6912 13.4536 13.8962 13.4536Z" fill="white"/>
<path fill-rule="evenodd" clip-rule="evenodd" d="M0.869997 15.6974C1.01502 15.8424 1.25014 15.8424 1.39515 15.6974L3.72775 13.3647C3.87277 13.2197 3.87276 12.9846 3.72774 12.8396C3.58272 12.6946 3.3476 12.6946 3.20259 12.8396L0.86999 15.1722C0.724975 15.3173 0.724978 15.5524 0.869997 15.6974Z" fill="white"/>
<path fill-rule="evenodd" clip-rule="evenodd" d="M8.52027 18.7681C8.72535 18.7681 8.89161 18.6018 8.89161 18.3967V8.04679C8.89161 7.84171 8.72535 7.67545 8.52027 7.67545C8.31518 7.67545 8.14893 7.84171 8.14893 8.04679V18.3967C8.14893 18.6018 8.31518 18.7681 8.52027 18.7681Z" fill="white"/>
</g>
<path d="M23.6576 8.26639C23.6502 7.98879 23.4231 7.76758 23.1454 7.76758H17.1232C16.8402 7.76758 16.6108 7.99699 16.6108 8.27999V12.5698C16.6108 12.8528 16.3814 13.0822 16.0984 13.0822H11.8086C11.5256 13.0822 11.2962 13.3116 11.2962 13.5946V17.8844C11.2962 18.1674 11.0668 18.3968 10.7838 18.3968H6.49396C6.21097 18.3968 5.98155 18.6262 5.98155 18.9092V23.199C5.98155 23.482 5.75214 23.7114 5.46915 23.7114H1.1794C0.896404 23.7114 0.666992 23.9408 0.666992 24.2238V28.5174C0.666992 28.8004 0.896405 29.0298 1.1794 29.0298H23.6824" fill="white"/>
</svg>
