<svg width="37" height="30" viewBox="0 0 37 30" fill="none" xmlns="http://www.w3.org/2000/svg">
<path d="M36.2115 9.55029C36.1587 9.46955 36.0866 9.40324 36.0017 9.35735C35.9168 9.31146 35.8219 9.28743 35.7254 9.28744L25.8534 9.28943L25.8524 4.6458L27.0139 4.64556C27.1679 4.64553 27.3156 4.58435 27.4244 4.47547C27.5333 4.36659 27.5945 4.21894 27.5944 4.06499L27.5937 0.582264C27.5937 0.428318 27.5325 0.280689 27.4236 0.171855C27.3146 0.0630206 27.1669 0.00189544 27.0129 0.00192656L12.4953 0.0048601C12.3413 0.00489122 12.1936 0.066076 12.0847 0.174954C11.9758 0.283833 11.9147 0.431486 11.9147 0.585432L11.9154 4.06816C11.9154 4.2221 11.9766 4.36973 12.0856 4.47857C12.1945 4.5874 12.3422 4.64853 12.4962 4.6485L13.6576 4.64826L13.6586 9.2919L9.01294 9.29284C8.89999 9.29292 8.78953 9.32592 8.69506 9.38779C8.6006 9.44967 8.52624 9.53774 8.48108 9.64122L0.354962 28.2174C0.316421 28.3057 0.300482 28.4022 0.308583 28.4983C0.316683 28.5943 0.348569 28.6868 0.401363 28.7674C0.454158 28.848 0.5262 28.9142 0.610991 28.96C0.695782 29.0059 0.790655 29.0299 0.887052 29.0299L27.5995 29.0245C27.7124 29.0245 27.8229 28.9915 27.9174 28.9296C28.0118 28.8677 28.0862 28.7796 28.1313 28.6762L28.9927 26.7024L35.7289 26.7011C35.8829 26.701 36.0306 26.6399 36.1395 26.531C36.2484 26.4221 36.3095 26.2744 36.3095 26.1205L36.3062 9.86778L36.3021 9.86778C36.3036 9.75537 36.2721 9.645 36.2115 9.55029ZM34.8377 10.4485L31.0289 19.1561L25.9082 19.1571L29.7176 10.4496L34.8377 10.4485ZM28.45 10.4498L24.6411 19.1574L18.9398 19.1586L19.6996 17.417L22.9515 17.4164C23.0599 17.417 23.1663 17.3872 23.2587 17.3304C23.351 17.2737 23.4256 17.1922 23.4741 17.0953L25.796 12.4512C25.8351 12.3703 25.855 12.2815 25.854 12.1917L25.8536 10.4503L28.45 10.4498ZM14.8214 16.2571L14.819 4.64803L22.3682 4.6465L22.3706 16.2556L14.8214 16.2571ZM23.5316 14.377L23.5296 4.64627L24.691 4.64603L24.6925 12.055L23.5316 14.377ZM13.0767 3.48747L13.0762 1.16565L26.4324 1.16295L26.4329 3.48477L13.0767 3.48747ZM14.2409 17.4181L18.4342 17.4173L17.6727 19.1588L11.9713 19.16L13.6598 15.3002L13.6601 16.8378C13.6601 16.9918 13.7213 17.1394 13.8303 17.2482C13.9392 17.357 14.0869 17.4182 14.2409 17.4181ZM9.39295 10.4537L13.6588 10.4528L13.6592 12.4049L10.7042 19.1602L5.58354 19.1613L9.39295 10.4537ZM1.77472 27.8688L5.07566 20.3223L10.1963 20.3212L6.89479 27.8678L1.77472 27.8688ZM8.16247 27.8676L11.4634 20.321L17.1648 20.3198L13.8633 27.8664L8.16247 27.8676ZM15.1309 27.8661L18.4319 20.3196L24.1332 20.3184L20.8317 27.865L15.1309 27.8661ZM27.2195 27.8637L22.0994 27.8647L25.4003 20.3182L30.521 20.3171L27.2195 27.8637ZM35.1479 25.5403L29.5029 25.5414L35.1453 12.6426L35.1479 25.5403Z" fill="white" fill-opacity="0.2"/>
<path d="M31.0245 19.1627H25.907L29.7158 10.4575H34.8327L31.0245 19.1627ZM28.4489 10.4575L24.6406 19.1627H18.9428L19.7025 17.4217H22.9524C23.0608 17.4223 23.1671 17.3925 23.2594 17.3358C23.3517 17.2791 23.4263 17.1977 23.4747 17.1007L25.7961 12.458C25.8353 12.3772 25.8551 12.2884 25.8541 12.1986V10.4575H28.4489ZM14.2472 17.4217H18.4379L17.6765 19.1627H11.9787L13.6669 15.304V16.8413C13.6669 16.9952 13.728 17.1429 13.8369 17.2517C13.9457 17.3605 14.0933 17.4217 14.2472 17.4217ZM17.1687 20.3234L13.8677 27.8679H8.17043L11.4709 20.3234H17.1687ZM18.435 20.3234H24.1328L20.8318 27.8679H15.1346L18.435 20.3234ZM9.40366 10.4575H13.6669V12.4092L10.7123 19.1627H5.59485L9.40366 10.4575ZM5.08705 20.3234H10.2045L6.90353 27.8679H1.78662L5.08705 20.3234ZM27.2156 27.8679H22.0987L25.3992 20.3234H30.5166L27.2156 27.8679Z" fill="white"/>
<path opacity="0.7" d="M22.3721 16.2612V4.6543H14.8276V16.2612H22.3721Z" fill="white"/>
<path opacity="0.7" d="M35.1401 12.6514L29.4985 25.5467H35.1401V12.6514Z" fill="white"/>
<path opacity="0.4" d="M23.5327 14.3832L24.6934 12.0618V4.6543H23.5327V14.3832Z" fill="white"/>
<path d="M26.4344 1.17236H13.0864V3.49375H26.4344V1.17236Z" fill="white"/>
</svg>
