<svg width="14" height="30" viewBox="0 0 14 30" fill="none" xmlns="http://www.w3.org/2000/svg">
<path d="M10.8055 17.0859V4.03143C10.8055 1.80848 8.99656 0 6.77315 0C4.55008 0 2.74149 1.80848 2.74149 4.03143V17.0858C1.08989 18.3439 0.117188 20.2871 0.117188 22.3739C0.117188 26.0441 3.10293 29.03 6.77315 29.03C10.4436 29.03 13.4296 26.0441 13.4296 22.3739C13.4296 20.2873 12.4569 18.3441 10.8055 17.0859ZM6.77315 27.2895C4.06275 27.2895 1.85767 25.0844 1.85767 22.3739C1.85767 20.7154 2.69171 19.1787 4.08874 18.2635C4.20954 18.1843 4.30875 18.0763 4.37742 17.9493C4.44609 17.8222 4.48206 17.68 4.48209 17.5356V4.03143C4.48209 2.76818 5.5099 1.74048 6.77326 1.74048C8.03709 1.74048 9.06513 2.76818 9.06513 4.03143V17.5356C9.06512 17.6801 9.10108 17.8222 9.16975 17.9493C9.23842 18.0764 9.33765 18.1843 9.45848 18.2635C10.8553 19.1789 11.6893 20.7155 11.6893 22.3739C11.6891 25.0844 9.48378 27.2895 6.77315 27.2895Z" fill="#F98222"/>
<path opacity="0.4" d="M7.64379 19.6143V8.11341C7.64379 7.6328 7.25427 7.24316 6.77354 7.24316C6.29282 7.24316 5.9033 7.6328 5.9033 8.11341V19.6143C4.73091 19.9836 3.88086 21.0789 3.88086 22.3739C3.88086 23.9713 5.17578 25.2667 6.77354 25.2667C8.37166 25.2667 9.66646 23.9713 9.66646 22.3739C9.66634 21.0787 8.81629 19.9834 7.64379 19.6143Z" fill="#F98222"/>
</svg>
