<svg width="37" height="30" viewBox="0 0 37 30" fill="none" xmlns="http://www.w3.org/2000/svg">
<path d="M28.7388 23.2539V5.77612H31.1288V0H5.50195V5.77612H7.85894V23.2539H5.50195V29.03H31.1289V23.2539H28.7388ZM7.20293 4.07514V1.70098H29.4279V4.07514H7.20293ZM19.1825 13.6645V5.77612H27.0377V13.6645H19.1825ZM27.0377 15.3655V23.2539H19.1825V15.3655H27.0377ZM9.55992 13.6645V5.77612H17.4814V13.6645H9.55992ZM17.4814 15.3655V23.2539H9.55992V15.3655H17.4814ZM29.4279 27.329H7.20293V24.9549H29.4279V27.329Z" fill="#F98222"/>
<path opacity="0.4" d="M9.39999 15.3617H17.5102V23.4386H9.39999V15.3617ZM7.04297 24.9513H29.4569V27.5139H7.04297V24.9513ZM7.04297 1.69678H29.4569V4.25932H7.04297V1.69678ZM19.0229 5.77204H27.0665V13.849H19.0229V5.77204Z" fill="#F98222"/>
<path opacity="0.7" d="M17.5101 5.77197H9.3999V13.8489H17.5101V5.77197Z" fill="#F98222"/>
<path opacity="0.7" d="M27.0666 15.3618H19.0229V23.4387H27.0666V15.3618Z" fill="#F98222"/>
</svg>
