<?xml version="1.0" standalone="no"?>
<!DOCTYPE svg PUBLIC "-//W3C//DTD SVG 20010904//EN"
 "http://www.w3.org/TR/2001/REC-SVG-20010904/DTD/svg10.dtd">
<svg version="1.0" xmlns="http://www.w3.org/2000/svg"
 width="500.000000pt" height="500.000000pt" viewBox="0 0 500.000000 500.000000"
 preserveAspectRatio="xMidYMid meet">
<metadata>
Created by potrace 1.14, written by Peter Selinger 2001-2017
</metadata>
<g transform="translate(0.000000,500.000000) scale(0.100000,-0.100000)"
fill="#000000" stroke="none">
<path d="M2337 4994 c-1 -1 -42 -5 -92 -9 -49 -3 -97 -8 -105 -10 -8 -2 -37
-6 -65 -10 -123 -15 -349 -77 -500 -138 -336 -134 -584 -303 -866 -592 -232
-237 -377 -445 -496 -715 -76 -173 -145 -390 -167 -530 -34 -208 -41 -301 -40
-510 1 -250 18 -402 70 -610 78 -316 210 -590 416 -864 69 -92 179 -218 185
-212 2 2 6 16 9 32 3 16 16 76 30 134 231 981 727 1668 1479 2049 89 46 294
134 315 136 3 1 43 14 90 30 47 16 90 30 95 31 6 2 44 12 85 23 41 11 86 22
100 24 14 3 43 10 65 15 22 6 58 13 80 16 22 4 63 10 90 16 53 10 102 17 175
25 25 3 58 8 73 10 158 26 897 26 1072 1 17 -2 66 -7 110 -11 44 -4 89 -9 100
-11 11 -2 43 -6 70 -9 28 -3 76 -9 108 -14 31 -4 57 -5 57 -2 0 16 -77 206
-113 281 -184 380 -437 678 -842 988 -28 22 -105 72 -138 91 -20 11 -54 31
-74 42 -181 103 -417 195 -613 239 -154 35 -160 36 -235 44 -27 3 -77 9 -110
12 -54 6 -413 13 -418 8z m211 -658 c129 -13 183 -22 307 -50 70 -17 264 -77
320 -101 17 -7 55 -23 85 -35 89 -36 290 -135 355 -174 l60 -36 -40 -1 c-22 0
-47 -2 -55 -3 -8 -2 -40 -6 -70 -10 -89 -10 -163 -21 -225 -32 -10 -2 -37 -6
-60 -10 -109 -16 -375 -84 -530 -136 -529 -177 -948 -443 -1316 -834 -210
-224 -439 -585 -584 -920 -63 -146 -150 -395 -200 -579 l-17 -60 -44 140 c-24
77 -46 149 -48 160 -3 11 -13 58 -24 105 -21 87 -24 101 -41 205 -27 162 -35
265 -35 425 0 359 79 661 248 950 79 136 159 236 295 370 375 370 828 592
1274 626 45 4 83 7 84 8 4 3 203 -3 261 -8z"/>
<path d="M2982 2938 c0 -24 -1 -66 -1 -95 l-1 -51 -95 -1 c-417 -5 -839 -169
-1144 -446 -314 -285 -544 -669 -721 -1205 -43 -130 -103 -347 -116 -417 -3
-15 -7 -29 -9 -33 -2 -4 -7 -27 -10 -51 -6 -45 -6 -46 47 -91 154 -131 394
-279 583 -358 98 -40 265 -98 307 -105 17 -3 35 -8 40 -11 4 -3 18 -7 30 -9
13 -3 55 -11 93 -19 69 -15 103 -20 220 -34 33 -4 177 -7 320 -6 204 0 280 4
355 18 52 10 111 20 130 22 19 2 87 18 150 35 756 201 1415 804 1694 1550 31
84 77 245 90 313 2 11 11 57 19 101 27 139 32 214 32 445 0 226 -9 368 -24
383 -5 5 -28 10 -52 12 -42 4 -114 11 -189 20 -19 2 -66 7 -103 10 -37 4 -76
8 -85 10 -9 1 -55 6 -101 10 -47 4 -92 8 -101 10 -16 3 -152 16 -200 19 -28 1
-28 3 -16 -114 3 -36 9 -99 13 -140 15 -157 7 -632 -12 -730 -2 -10 -6 -40
-10 -68 -5 -40 -38 -195 -60 -282 -21 -84 -123 -334 -150 -370 -6 -8 -23 -36
-38 -61 -76 -133 -241 -320 -374 -422 -205 -158 -488 -290 -773 -361 -135 -34
-153 -38 -265 -53 -77 -10 -420 -10 -505 0 -97 12 -292 53 -405 86 -181 52
-435 154 -435 175 0 18 55 203 88 296 27 77 42 112 110 260 35 78 150 260 220
349 110 141 243 267 422 399 76 56 275 160 400 210 76 30 257 89 299 97 12 2
31 7 41 10 10 3 29 8 42 10 13 3 46 9 73 15 130 25 225 35 225 23 0 -10 -27
-194 -36 -246 -6 -35 -22 -44 191 110 94 68 179 129 190 137 224 160 355 260
348 266 -6 5 -604 344 -735 416 -3 2 -6 -15 -6 -38z"/>
</g>
</svg>
