<svg width="32" height="35" viewBox="0 0 32 35" fill="none" xmlns="http://www.w3.org/2000/svg">
<rect width="22.0206" height="12.365" transform="matrix(-1 0 0 1 27.3623 17.5249)" fill="white" fill-opacity="0.4"/>
<path d="M0.440247 7.63734V27.4182C0.44249 29.2911 1.18751 31.0867 2.51189 32.4111C3.83627 33.7355 5.63187 34.4805 7.50483 34.4828H24.4598C26.3328 34.4805 28.1284 33.7355 29.4528 32.4111C30.7771 31.0867 31.5222 29.2911 31.5244 27.4182V7.63734C31.5222 5.76438 30.7771 3.96878 29.4528 2.6444C28.1284 1.32002 26.3328 0.574997 24.4598 0.572754L7.50483 0.572754C5.63187 0.574997 3.83627 1.32002 2.51189 2.6444C1.18751 3.96878 0.44249 5.76438 0.440247 7.63734ZM23.0469 26.0053C23.0469 25.7258 23.1298 25.4526 23.285 25.2203C23.4403 24.9879 23.661 24.8068 23.9191 24.6999C24.1773 24.593 24.4614 24.565 24.7355 24.6195C25.0096 24.674 25.2613 24.8086 25.4589 25.0062C25.6565 25.2038 25.7911 25.4555 25.8456 25.7296C25.9001 26.0037 25.8721 26.2878 25.7652 26.546C25.6583 26.8041 25.4772 27.0248 25.2448 27.1801C25.0125 27.3353 24.7393 27.4182 24.4598 27.4182C24.0851 27.4182 23.7257 27.2693 23.4607 27.0043C23.1958 26.7394 23.0469 26.38 23.0469 26.0053ZM23.0469 20.3536C23.0469 20.0741 23.1298 19.801 23.285 19.5686C23.4403 19.3363 23.661 19.1552 23.9191 19.0482C24.1773 18.9413 24.4614 18.9133 24.7355 18.9678C25.0096 19.0223 25.2613 19.1569 25.4589 19.3545C25.6565 19.5521 25.7911 19.8039 25.8456 20.0779C25.9001 20.352 25.8721 20.6361 25.7652 20.8943C25.6583 21.1525 25.4772 21.3731 25.2448 21.5284C25.0125 21.6836 24.7393 21.7665 24.4598 21.7665C24.0851 21.7665 23.7257 21.6176 23.4607 21.3527C23.1958 21.0877 23.0469 20.7283 23.0469 20.3536ZM17.3952 26.0053C17.3952 25.7258 17.4781 25.4526 17.6334 25.2203C17.7886 24.9879 18.0093 24.8068 18.2675 24.6999C18.5256 24.593 18.8097 24.565 19.0838 24.6195C19.3579 24.674 19.6096 24.8086 19.8072 25.0062C20.0048 25.2038 20.1394 25.4555 20.1939 25.7296C20.2484 26.0037 20.2205 26.2878 20.1135 26.546C20.0066 26.8041 19.8255 27.0248 19.5931 27.1801C19.3608 27.3353 19.0876 27.4182 18.8082 27.4182C18.4334 27.4182 18.0741 27.2693 17.8091 27.0043C17.5441 26.7394 17.3952 26.38 17.3952 26.0053ZM17.3952 20.3536C17.3952 20.0741 17.4781 19.801 17.6334 19.5686C17.7886 19.3363 18.0093 19.1552 18.2675 19.0482C18.5256 18.9413 18.8097 18.9133 19.0838 18.9678C19.3579 19.0223 19.6096 19.1569 19.8072 19.3545C20.0048 19.5521 20.1394 19.8039 20.1939 20.0779C20.2484 20.352 20.2205 20.6361 20.1135 20.8943C20.0066 21.1525 19.8255 21.3731 19.5931 21.5284C19.3608 21.6836 19.0876 21.7665 18.8082 21.7665C18.4334 21.7665 18.0741 21.6176 17.8091 21.3527C17.5441 21.0877 17.3952 20.7283 17.3952 20.3536ZM6.09192 26.0053C6.09192 25.6305 6.24077 25.2711 6.50574 25.0062C6.77072 24.7412 7.1301 24.5923 7.50483 24.5923H13.1565C13.5312 24.5923 13.8906 24.7412 14.1556 25.0062C14.4206 25.2711 14.5694 25.6305 14.5694 26.0053C14.5694 26.38 14.4206 26.7394 14.1556 27.0043C13.8906 27.2693 13.5312 27.4182 13.1565 27.4182H7.50483C7.1301 27.4182 6.77072 27.2693 6.50574 27.0043C6.24077 26.7394 6.09192 26.38 6.09192 26.0053ZM13.1565 21.7665C12.877 21.7665 12.6039 21.6836 12.3715 21.5284C12.1392 21.3731 11.9581 21.1525 11.8511 20.8943C11.7442 20.6361 11.7162 20.352 11.7707 20.0779C11.8252 19.8039 11.9598 19.5521 12.1574 19.3545C12.355 19.1569 12.6068 19.0223 12.8808 18.9678C13.1549 18.9133 13.439 18.9413 13.6972 19.0482C13.9554 19.1552 14.176 19.3363 14.3313 19.5686C14.4865 19.801 14.5694 20.0741 14.5694 20.3536C14.5694 20.7283 14.4206 21.0877 14.1556 21.3527C13.8906 21.6176 13.5312 21.7665 13.1565 21.7665ZM6.09192 20.3536C6.09192 20.0741 6.17478 19.801 6.33003 19.5686C6.48528 19.3363 6.70596 19.1552 6.96413 19.0482C7.22231 18.9413 7.5064 18.9133 7.78048 18.9678C8.05456 19.0223 8.30631 19.1569 8.50391 19.3545C8.70151 19.5521 8.83608 19.8039 8.8906 20.0779C8.94512 20.352 8.91714 20.6361 8.8102 20.8943C8.70325 21.1525 8.52216 21.3731 8.2898 21.5284C8.05745 21.6836 7.78428 21.7665 7.50483 21.7665C7.1301 21.7665 6.77072 21.6176 6.50574 21.3527C6.24077 21.0877 6.09192 20.7283 6.09192 20.3536ZM6.09192 10.4632C6.09192 9.33898 6.53849 8.26084 7.33341 7.46592C8.12833 6.671 9.20648 6.22442 10.3307 6.22442H21.634C22.7582 6.22442 23.8363 6.671 24.6312 7.46592C25.4262 8.26084 25.8727 9.33898 25.8727 10.4632C25.8727 11.5874 25.4262 12.6655 24.6312 13.4604C23.8363 14.2553 22.7582 14.7019 21.634 14.7019H10.3307C9.20648 14.7019 8.12833 14.2553 7.33341 13.4604C6.53849 12.6655 6.09192 11.5874 6.09192 10.4632Z" fill="white"/>
<path d="M9.33154 11.4623C9.06657 11.1973 8.91771 10.8379 8.91771 10.4632C8.91771 10.0885 9.06657 9.7291 9.33154 9.46413C9.59651 9.19915 9.9559 9.05029 10.3306 9.05029H21.634C22.0087 9.05029 22.3681 9.19915 22.633 9.46413C22.898 9.7291 23.0469 10.0885 23.0469 10.4632C23.0469 10.8379 22.898 11.1973 22.633 11.4623C22.3681 11.7273 22.0087 11.8761 21.634 11.8761H10.3306C9.9559 11.8761 9.59651 11.7273 9.33154 11.4623Z" fill="white" fill-opacity="0.4"/>
</svg>
