<svg width="34" height="35" viewBox="0 0 34 35" fill="none" xmlns="http://www.w3.org/2000/svg">
<g id="Group 8224">
<path id="Vector" d="M32.942 0.276733H28.9026C28.3535 0.276733 27.9093 0.721005 27.9093 1.27004V2.26334H19.7799C19.3684 1.10965 18.2762 0.276733 16.9829 0.276733C15.6896 0.276733 14.5974 1.10965 14.186 2.26334H6.05656V1.27004C6.05656 0.721005 5.61229 0.276733 5.06326 0.276733H1.02382C0.47479 0.276733 0.0305176 0.721005 0.0305176 1.27004V5.24326C0.0305176 5.79229 0.47479 6.23656 1.02382 6.23656H5.06326C5.61229 6.23656 6.05656 5.79229 6.05656 5.24326V4.23671H10.136C6.68877 6.39026 4.41576 10.1727 4.14406 14.4091C2.95222 14.7992 2.08335 15.9087 2.08335 17.2291C2.08335 18.8723 3.42007 20.209 5.06326 20.209C6.70645 20.209 8.04317 18.8723 8.04317 17.2291C8.04317 15.9617 7.24449 14.8841 6.12676 14.454C6.46567 9.73087 9.76132 5.74997 14.3456 4.61416C14.8413 5.57283 15.8311 6.23656 16.9829 6.23656C18.1347 6.23656 19.1245 5.57283 19.6203 4.61416C24.2045 5.74991 27.5002 9.73081 27.8391 14.454C26.7213 14.8841 25.9227 15.9617 25.9227 17.2291C25.9227 18.8723 27.2594 20.209 28.9026 20.209C30.5458 20.209 31.8825 18.8723 31.8825 17.2291C31.8825 15.9087 31.0136 14.7992 29.8218 14.4091C29.5501 10.1727 27.2771 6.4035 23.8298 4.24995H27.9093V5.24326C27.9093 5.79229 28.3535 6.23656 28.9026 6.23656H32.942C33.491 6.23656 33.9353 5.79229 33.9353 5.24326V1.27004C33.9353 0.721005 33.491 0.276733 32.942 0.276733ZM23.7407 32.9495C23.2211 31.3596 21.7243 30.1421 19.9628 30.1421H14.003C12.2415 30.1421 10.7447 31.3596 10.2251 32.9495C10.0248 33.5625 10.5463 34.1815 11.1913 34.1815H22.7745C23.4195 34.1815 23.941 33.5625 23.7407 32.9495Z" fill="white" fill-opacity="0.4"/>
<path id="Vector_2" d="M25.7553 20.6513L17.9758 8.98193V18.4053C19.1295 18.8168 19.9624 19.909 19.9624 21.2023C19.9624 22.8455 18.6257 24.1822 16.9825 24.1822C15.3393 24.1822 14.0026 22.8455 14.0026 21.2023C14.0026 19.909 14.8355 18.8168 15.9892 18.4053V8.98193L8.20961 20.6513C7.94671 21.0451 7.99909 21.5699 8.33377 21.9046C10.1573 23.7281 11.3229 26.0773 11.7727 28.5972C12.4627 28.3173 13.2132 28.1554 14.0026 28.1554H19.9624C20.7517 28.1554 21.5022 28.3172 22.1922 28.597C22.6421 26.077 23.8077 23.7281 25.6312 21.9046C25.9659 21.5699 26.0182 21.0451 25.7553 20.6513Z" fill="white"/>
<path id="Vector_3" d="M16.9821 20.209C16.434 20.209 15.9888 20.6542 15.9888 21.2023C15.9888 21.7503 16.434 22.1956 16.9821 22.1956C17.5301 22.1956 17.9754 21.7503 17.9754 21.2023C17.9754 20.6542 17.5301 20.209 16.9821 20.209Z" fill="white"/>
</g>
</svg>
