<svg width="26" height="35" viewBox="0 0 26 35" fill="none" xmlns="http://www.w3.org/2000/svg">
<g id="Group">
<path id="Vector" d="M13.9797 30.6485H25.9473V34.6377H13.9797V30.6485ZM13.9797 0.729614V28.6539H25.9473V0.729614H13.9797ZM18.9662 26.6593H16.9716V24.6647H18.9662V26.6593ZM18.9662 22.6701H16.9716V20.6756H18.9662V22.6701ZM18.9662 18.681H16.9716V16.6864H18.9662V18.681ZM18.9662 14.6918H16.9716V12.6972H18.9662V14.6918ZM18.9662 10.7026H16.9716V8.70799H18.9662V10.7026ZM18.9662 6.7134H16.9716V4.7188H18.9662V6.7134ZM22.9554 26.6593H20.9608V24.6647H22.9554V26.6593ZM22.9554 22.6701H20.9608V20.6756H22.9554V22.6701ZM22.9554 18.681H20.9608V16.6864H22.9554V18.681ZM22.9554 14.6918H20.9608V12.6972H22.9554V14.6918ZM22.9554 10.7026H20.9608V8.70799H22.9554V10.7026ZM22.9554 6.7134H20.9608V4.7188H22.9554V6.7134ZM0.0175781 34.6377H3.00947V27.6566H8.99325V34.6377H11.9851V12.6972H0.0175781V34.6377ZM6.99866 15.6891H8.99325V17.6837H6.99866V15.6891ZM6.99866 19.6783H8.99325V21.6728H6.99866V19.6783ZM6.99866 23.6674H8.99325V25.662H6.99866V23.6674ZM3.00947 15.6891H5.00406V17.6837H3.00947V15.6891ZM3.00947 19.6783H5.00406V21.6728H3.00947V19.6783ZM3.00947 23.6674H5.00406V25.662H3.00947V23.6674Z" fill="white"/>
<path id="Vector_2" d="M5.00367 29.6511H6.99826V34.6376H5.00367V29.6511ZM7.95799 3.61302C7.76291 3.02113 7.43457 2.4819 6.99826 2.03689C5.4095 0.413427 2.80921 0.406513 1.21015 2.00558C-1.19114 4.40687 0.248222 8.53315 3.60971 8.92808C3.50883 9.51388 3.48292 10.1101 3.53259 10.7025H11.9847V3.302C10.6395 3.00806 9.23187 3.11723 7.95799 3.61302Z" fill="white" fill-opacity="0.4"/>
</g>
</svg>
