<svg width="36" height="34" viewBox="0 0 36 34" fill="none" xmlns="http://www.w3.org/2000/svg">
<g id="Group 8223">
<g id="Group">
<path id="Vector" d="M12.166 5.31059C10.9723 5.31059 11.6686 2.54757 13.7656 2.54757H16.4559C16.6102 2.54757 16.7582 2.60886 16.8673 2.71794C16.9763 2.82703 17.0376 2.97499 17.0376 3.12926C17.0376 3.28353 16.9763 3.43149 16.8673 3.54058C16.7582 3.64966 16.6102 3.71095 16.4559 3.71095H13.7656C13.2043 3.71095 12.7477 4.16757 12.7477 4.7289C12.7477 4.88318 12.6864 5.03113 12.5773 5.14022C12.4682 5.24931 12.3203 5.31059 12.166 5.31059ZM19.0735 0.584374C19.0735 0.430101 19.0123 0.282146 18.9032 0.173058C18.7941 0.0639704 18.6461 0.00268555 18.4919 0.00268555H17.9829C17.8286 0.00268555 17.6806 0.0639704 17.5716 0.173058C17.4625 0.282146 17.4012 0.430101 17.4012 0.584374C17.4012 0.738647 17.4625 0.886602 17.5716 0.99569C17.6806 1.10478 17.8286 1.16606 17.9829 1.16606H18.4919C18.6461 1.16606 18.7941 1.10478 18.9032 0.99569C19.0123 0.886602 19.0735 0.738647 19.0735 0.584374ZM9.83924 4.7289C9.83924 2.76432 11.4375 1.16606 13.4021 1.16606H15.238C15.3923 1.16606 15.5403 1.10478 15.6493 0.99569C15.7584 0.886602 15.8197 0.738647 15.8197 0.584374C15.8197 0.430101 15.7584 0.282146 15.6493 0.173058C15.5403 0.0639704 15.3923 0.00268555 15.238 0.00268555H13.4021C10.796 0.00268555 8.67586 2.12287 8.67586 4.7289C8.67586 4.88318 8.73715 5.03113 8.84624 5.14022C8.95532 5.24931 9.10328 5.31059 9.25755 5.31059C9.41182 5.31059 9.55978 5.24931 9.66887 5.14022C9.77795 5.03113 9.83924 4.88318 9.83924 4.7289ZM15.6537 21.2343H7.29682C6.95392 21.2343 6.6854 20.9391 6.71775 20.5977L7.95166 7.58281C7.96504 7.4386 8.03182 7.30459 8.13889 7.20707C8.24596 7.10955 8.38561 7.05554 8.53044 7.05566H14.42C14.7203 7.05566 14.9712 7.28397 14.9988 7.58281L16.2327 20.5977C16.2651 20.9391 15.9966 21.2343 15.6537 21.2343ZM12.6594 15.3447H11.2124L12.0627 13.5589C12.1291 13.4196 12.1373 13.2597 12.0858 13.1143C12.0342 12.9689 11.927 12.8499 11.7877 12.7836C11.7187 12.7507 11.644 12.7318 11.5677 12.7278C11.4914 12.7239 11.4151 12.735 11.3431 12.7605C11.2711 12.7861 11.2048 12.8255 11.1481 12.8767C11.0913 12.9279 11.0453 12.9897 11.0124 13.0587L9.76587 15.6763C9.58228 16.0617 9.86382 16.508 10.2911 16.508H11.7381L10.8877 18.2939C10.7026 18.6827 10.9898 19.1258 11.4125 19.1258C11.5225 19.1258 11.6303 19.0947 11.7233 19.0359C11.8163 18.9772 11.8908 18.8933 11.9381 18.794L13.1847 16.1764C13.3682 15.791 13.0866 15.3447 12.6594 15.3447ZM26.5628 12.8653V20.6526C26.5628 20.8069 26.5015 20.9548 26.3924 21.0639C26.2833 21.173 26.1354 21.2343 25.9811 21.2343H17.9907C17.8459 21.2343 17.7063 21.1803 17.5992 21.0829C17.4922 20.9855 17.4252 20.8516 17.4116 20.7075C16.7186 13.4011 16.8423 14.7047 16.7061 13.2633C16.6672 12.852 16.9784 12.7132 17.4157 12.3948C17.6336 12.2362 17.0021 12.2836 25.9811 12.2836C26.1354 12.2836 26.2833 12.3449 26.3924 12.454C26.5015 12.563 26.5628 12.711 26.5628 12.8653ZM20.7459 16.7989C20.7459 16.6447 20.6846 16.4967 20.5755 16.3876C20.4664 16.2785 20.3185 16.2172 20.1642 16.2172H19.4371C19.2828 16.2172 19.1349 16.2785 19.0258 16.3876C18.9167 16.4967 18.8554 16.6447 18.8554 16.7989C18.8554 16.9532 18.9167 17.1012 19.0258 17.2103C19.1349 17.3193 19.2828 17.3806 19.4371 17.3806H20.1642C20.3185 17.3806 20.4664 17.3193 20.5755 17.2103C20.6846 17.1012 20.7459 16.9532 20.7459 16.7989ZM24.3814 16.7989C24.3814 16.6447 24.3202 16.4967 24.2111 16.3876C24.102 16.2785 23.954 16.2172 23.7998 16.2172H23.0726C22.9184 16.2172 22.7704 16.2785 22.6613 16.3876C22.5522 16.4967 22.491 16.6447 22.491 16.7989C22.491 16.9532 22.5522 17.1012 22.6613 17.2103C22.7704 17.3193 22.9184 17.3806 23.0726 17.3806H23.7998C23.954 17.3806 24.102 17.3193 24.2111 17.2103C24.3202 17.1012 24.3814 16.9532 24.3814 16.7989ZM34.8518 22.3977H1.11391C0.792532 22.3977 0.532227 22.658 0.532227 22.9794C0.532227 23.3008 0.792532 23.5611 1.11391 23.5611H34.8518C35.1732 23.5611 35.4335 23.3008 35.4335 22.9794C35.4335 22.658 35.1732 22.3977 34.8518 22.3977Z" fill="white"/>
<g id="Vector_2">
<path d="M9.4027 29.5468C9.90485 29.5468 10.1746 28.9468 9.8317 28.5717L8.23206 26.8266C8.17745 26.7673 8.11114 26.7199 8.03729 26.6876C7.96345 26.6552 7.8837 26.6384 7.80306 26.6384C7.72243 26.6384 7.64267 26.6552 7.56883 26.6876C7.49499 26.7199 7.42867 26.7673 7.37407 26.8266L5.77442 28.5717C5.67037 28.6856 5.6157 28.8361 5.62237 28.9903C5.62905 29.1444 5.69654 29.2896 5.81005 29.3941C5.92396 29.4981 6.07446 29.5528 6.22859 29.5461C6.38273 29.5394 6.52793 29.472 6.63241 29.3584L7.21701 28.7208C7.14248 30.4989 9.33399 30.9864 7.91067 32.9911C7.72453 33.2528 7.78634 33.6157 8.0481 33.8018C8.11039 33.8461 8.1808 33.8777 8.2553 33.8947C8.32981 33.9118 8.40694 33.914 8.4823 33.9012C8.55766 33.8885 8.62976 33.861 8.69449 33.8204C8.75922 33.7797 8.81531 33.7267 8.85955 33.6644C9.36489 32.9526 9.59611 32.2385 9.54667 31.5412C9.49303 30.7881 9.12433 30.2409 8.82741 29.8003L8.82465 29.7962C8.49113 29.3027 8.38329 29.1379 8.38329 28.7142C8.96244 29.3462 9.06503 29.5468 9.4027 29.5468Z" fill="white" fill-opacity="0.4"/>
<path d="M17.4897 26.6876C17.5636 26.7199 17.6299 26.7673 17.6845 26.8266L19.2841 28.5717C19.627 28.9468 19.3574 29.5468 18.8551 29.5468C18.5139 29.5468 18.3895 29.3184 17.8357 28.7142C17.8357 29.1258 17.9364 29.2921 18.2771 29.7962L18.2798 29.8003C18.5768 30.2409 18.9455 30.7881 18.9991 31.5412C19.0486 32.2385 18.8173 32.9526 18.312 33.6644C18.2677 33.7267 18.2117 33.7797 18.1469 33.8204C18.0822 33.861 18.0101 33.8885 17.9347 33.9012C17.8594 33.914 17.7822 33.9118 17.7077 33.8947C17.6332 33.8777 17.5628 33.8461 17.5005 33.8018C17.2388 33.6157 17.177 33.2528 17.3631 32.9911C18.7882 30.9839 16.5948 30.5034 16.6694 28.7208L16.0848 29.3584C15.9804 29.472 15.8352 29.5394 15.681 29.5461C15.5269 29.5528 15.3764 29.4981 15.2625 29.3941C15.149 29.2896 15.0815 29.1444 15.0748 28.9903C15.0681 28.8361 15.1228 28.6856 15.2269 28.5717L16.8265 26.8266C16.8811 26.7673 16.9474 26.7199 17.0213 26.6876C17.0951 26.6552 17.1749 26.6384 17.2555 26.6384C17.3361 26.6384 17.4159 26.6552 17.4897 26.6876Z" fill="white" fill-opacity="0.4"/>
<path d="M28.3076 29.5468C28.8097 29.5468 29.0795 28.9468 28.7366 28.5717L27.1369 26.8266C27.0823 26.7673 27.016 26.7199 26.9422 26.6876C26.8683 26.6552 26.7886 26.6384 26.7079 26.6384C26.6273 26.6384 26.5475 26.6552 26.4737 26.6876C26.3999 26.7199 26.3335 26.7673 26.2789 26.8266L24.6793 28.5717C24.5752 28.6856 24.5206 28.8361 24.5272 28.9903C24.5339 29.1444 24.6014 29.2896 24.7149 29.3941C24.8288 29.4981 24.9793 29.5528 25.1335 29.5461C25.2876 29.5394 25.4328 29.472 25.5373 29.3584L26.1219 28.7208C26.0474 30.4989 28.2389 30.9864 26.8155 32.9911C26.6294 33.2528 26.6912 33.6157 26.953 33.8018C27.0153 33.8461 27.0857 33.8777 27.1602 33.8947C27.2347 33.9118 27.3118 33.914 27.3872 33.9012C27.4625 33.8885 27.5346 33.861 27.5994 33.8204C27.6641 33.7797 27.7202 33.7267 27.7644 33.6644C28.2698 32.9526 28.501 32.2385 28.4515 31.5412C28.3979 30.7881 28.0292 30.2409 27.7323 29.8003L27.7295 29.7962C27.396 29.3027 27.2882 29.1379 27.2882 28.7142C27.8673 29.3462 27.9699 29.5468 28.3076 29.5468Z" fill="white" fill-opacity="0.4"/>
</g>
</g>
</g>
</svg>
